G04 #@! TF.FileFunction,Copper,L1,Top,Signal*
%FSLAX46Y46*%
G04 Gerber Fmt 4.6, Leading zero omitted, Abs format (unit mm)*
G04 Created by KiCad (PCBNEW 4.0.7-e2-6376~58~ubuntu16.04.1) date Wed Mar 28 14:59:42 2018*
%MOMM*%
%LPD*%
G01*
G04 APERTURE LIST*
%ADD10C,0.100000*%
%ADD11R,1.700000X1.700000*%
%ADD12O,1.700000X1.700000*%
%ADD13R,0.900000X0.500000*%
%ADD14C,6.000000*%
%ADD15R,2.030000X1.730000*%
%ADD16O,2.030000X1.730000*%
%ADD17R,0.800000X0.600000*%
%ADD18R,0.500000X0.900000*%
%ADD19C,5.700000*%
%ADD20R,2.000000X3.600000*%
%ADD21O,2.000000X3.600000*%
%ADD22C,1.000000*%
%ADD23C,0.350000*%
%ADD24C,1.000000*%
%ADD25C,0.300000*%
G04 APERTURE END LIST*
D10*
D11*
X126000000Y-69000000D03*
D12*
X126000000Y-74080000D03*
X126000000Y-76620000D03*
X126000000Y-79160000D03*
X126000000Y-81700000D03*
X126000000Y-84240000D03*
X126000000Y-86780000D03*
X126000000Y-89320000D03*
X126000000Y-91860000D03*
X126000000Y-94400000D03*
X126000000Y-96940000D03*
X126000000Y-99480000D03*
X126000000Y-102020000D03*
X126000000Y-104560000D03*
X126000000Y-107100000D03*
X126000000Y-109640000D03*
X126000000Y-112180000D03*
X126000000Y-114720000D03*
X126000000Y-117260000D03*
X126000000Y-119800000D03*
X126000000Y-122340000D03*
X126000000Y-124880000D03*
X126000000Y-127420000D03*
D13*
X123200000Y-69000000D03*
X123200000Y-70500000D03*
D14*
X117500000Y-107000000D03*
X117500000Y-99500000D03*
D15*
X139250000Y-88040000D03*
D16*
X139250000Y-85500000D03*
X139250000Y-82960000D03*
D17*
X132900000Y-80000000D03*
X132900000Y-78300000D03*
D18*
X131400000Y-76750000D03*
X132900000Y-76750000D03*
D19*
X94750000Y-73100000D03*
X168750000Y-73100000D03*
X94750000Y-123400000D03*
X168750000Y-123400000D03*
X118300000Y-73100000D03*
D13*
X121575000Y-69000000D03*
X121575000Y-70500000D03*
D20*
X135100000Y-112000000D03*
D21*
X140100000Y-112000000D03*
X145100000Y-112000000D03*
X150100000Y-112000000D03*
X155100000Y-112000000D03*
X160100000Y-112000000D03*
D20*
X135100000Y-124100000D03*
D21*
X140100000Y-124100000D03*
X145100000Y-124100000D03*
X150100000Y-124100000D03*
X155100000Y-124100000D03*
X160100000Y-124100000D03*
D22*
X169000000Y-117000000D03*
X123000000Y-107300000D03*
X123000000Y-105300000D03*
X169000000Y-113000000D03*
X169000000Y-109000000D03*
X169000000Y-105000000D03*
X169000000Y-101000000D03*
X170000000Y-99000000D03*
X166000000Y-99000000D03*
X165000000Y-101000000D03*
X161000000Y-101000000D03*
X162000000Y-99000000D03*
X115000000Y-127000000D03*
X115000000Y-123000000D03*
X115000000Y-119000000D03*
X115000000Y-115000000D03*
X117000000Y-127000000D03*
X116000000Y-125000000D03*
X116000000Y-121000000D03*
X116000000Y-117000000D03*
X117000000Y-115000000D03*
X117000000Y-119000000D03*
X117000000Y-123000000D03*
X129000000Y-101000000D03*
X130000000Y-99000000D03*
X158000000Y-99000000D03*
X154000000Y-99000000D03*
X150000000Y-99000000D03*
X146000000Y-99000000D03*
X142000000Y-99000000D03*
X138000000Y-99000000D03*
X134000000Y-99000000D03*
X157000000Y-101000000D03*
X153000000Y-101000000D03*
X149000000Y-101000000D03*
X145000000Y-101000000D03*
X141000000Y-101000000D03*
X137000000Y-101000000D03*
X133000000Y-101000000D03*
X114400000Y-102200000D03*
X114400000Y-96800000D03*
X120800000Y-102200000D03*
X120800000Y-96800000D03*
D23*
X121575000Y-69000000D02*
X123200000Y-69000000D01*
X126000000Y-69000000D02*
X123200000Y-69000000D01*
X169000000Y-113000000D02*
X169000000Y-117000000D01*
X132900000Y-82000000D02*
X132900000Y-80000000D01*
X169000000Y-109000000D02*
X169000000Y-113000000D01*
X169000000Y-101000000D02*
X169000000Y-105000000D01*
X166000000Y-99000000D02*
X170000000Y-99000000D01*
X161000000Y-101000000D02*
X165000000Y-101000000D01*
X158000000Y-99000000D02*
X162000000Y-99000000D01*
X153000000Y-101000000D02*
X157000000Y-101000000D01*
X149000000Y-101000000D02*
X153000000Y-101000000D01*
X145000000Y-101000000D02*
X149000000Y-101000000D01*
X141000000Y-101000000D02*
X145000000Y-101000000D01*
X137000000Y-101000000D02*
X141000000Y-101000000D01*
X133000000Y-101000000D02*
X137000000Y-101000000D01*
X158000000Y-99000000D02*
X158000000Y-100000000D01*
X158000000Y-100000000D02*
X157000000Y-101000000D01*
X154000000Y-99000000D02*
X158000000Y-99000000D01*
X150000000Y-99000000D02*
X154000000Y-99000000D01*
X146000000Y-99000000D02*
X150000000Y-99000000D01*
X142000000Y-99000000D02*
X146000000Y-99000000D01*
X138000000Y-99000000D02*
X142000000Y-99000000D01*
X134000000Y-99000000D02*
X138000000Y-99000000D01*
X130000000Y-99000000D02*
X134000000Y-99000000D01*
X129000000Y-101000000D02*
X129000000Y-100000000D01*
X129000000Y-100000000D02*
X130000000Y-99000000D01*
X132900000Y-82000000D02*
X128240000Y-82000000D01*
X128240000Y-82000000D02*
X126000000Y-84240000D01*
X131400000Y-76750000D02*
X126130000Y-76750000D01*
X126130000Y-76750000D02*
X126000000Y-76620000D01*
X121575000Y-70500000D02*
X123200000Y-70500000D01*
X123200000Y-70500000D02*
X123200000Y-76360000D01*
X123200000Y-76360000D02*
X126000000Y-79160000D01*
X137440000Y-85500000D02*
X139250000Y-85500000D01*
X137440000Y-85500000D02*
X126000000Y-96940000D01*
D24*
X125980000Y-99500000D02*
X126000000Y-99480000D01*
D23*
X132900000Y-76750000D02*
X132900000Y-78300000D01*
D25*
G36*
X126950000Y-102950000D02*
X124800000Y-102950000D01*
X124636444Y-102980775D01*
X124528866Y-103050000D01*
X113850000Y-103050000D01*
X113850000Y-95850000D01*
X126950000Y-95850000D01*
X126950000Y-102950000D01*
X126950000Y-102950000D01*
G37*
X126950000Y-102950000D02*
X124800000Y-102950000D01*
X124636444Y-102980775D01*
X124528866Y-103050000D01*
X113850000Y-103050000D01*
X113850000Y-95850000D01*
X126950000Y-95850000D01*
X126950000Y-102950000D01*
G36*
X113700000Y-103650000D02*
X124350000Y-103650000D01*
X124350000Y-107600000D01*
X124383075Y-107769332D01*
X124481802Y-107918198D01*
X125281802Y-108718198D01*
X125424925Y-108814546D01*
X125600000Y-108850000D01*
X126413604Y-108850000D01*
X126750000Y-109186396D01*
X126750000Y-110013604D01*
X126313604Y-110450000D01*
X125600000Y-110450000D01*
X125430668Y-110483075D01*
X125281802Y-110581802D01*
X124481802Y-111381802D01*
X124385454Y-111524925D01*
X124350000Y-111700000D01*
X124350000Y-112600000D01*
X124383075Y-112769332D01*
X124481802Y-112918198D01*
X125381802Y-113818198D01*
X125524925Y-113914546D01*
X125700000Y-113950000D01*
X126413604Y-113950000D01*
X126750000Y-114286396D01*
X126750000Y-115113604D01*
X126313604Y-115550000D01*
X125600000Y-115550000D01*
X125430668Y-115583075D01*
X125281802Y-115681802D01*
X124481802Y-116481802D01*
X124385454Y-116624925D01*
X124350000Y-116800000D01*
X124350000Y-117700000D01*
X124383075Y-117869332D01*
X124481802Y-118018198D01*
X125281802Y-118818198D01*
X125424925Y-118914546D01*
X125600000Y-118950000D01*
X126313604Y-118950000D01*
X126750000Y-119386396D01*
X126750000Y-120213604D01*
X126313604Y-120650000D01*
X125500000Y-120650000D01*
X125330668Y-120683075D01*
X125181802Y-120781802D01*
X124481802Y-121481802D01*
X124385454Y-121624925D01*
X124350000Y-121800000D01*
X124350000Y-122800000D01*
X124383075Y-122969332D01*
X124481802Y-123118198D01*
X125281802Y-123918198D01*
X125424925Y-124014546D01*
X125600000Y-124050000D01*
X126313604Y-124050000D01*
X126750000Y-124486396D01*
X126750000Y-125313604D01*
X126313604Y-125750000D01*
X125600000Y-125750000D01*
X125430668Y-125783075D01*
X125281802Y-125881802D01*
X124381802Y-126781802D01*
X124285454Y-126924925D01*
X124250000Y-127100000D01*
X124250000Y-129050000D01*
X91450000Y-129050000D01*
X91450000Y-114650000D01*
X113500000Y-114650000D01*
X113554519Y-114639742D01*
X113604591Y-114607521D01*
X113638182Y-114558358D01*
X113650000Y-114500000D01*
X113650000Y-103639875D01*
X113700000Y-103650000D01*
X113700000Y-103650000D01*
G37*
X113700000Y-103650000D02*
X124350000Y-103650000D01*
X124350000Y-107600000D01*
X124383075Y-107769332D01*
X124481802Y-107918198D01*
X125281802Y-108718198D01*
X125424925Y-108814546D01*
X125600000Y-108850000D01*
X126413604Y-108850000D01*
X126750000Y-109186396D01*
X126750000Y-110013604D01*
X126313604Y-110450000D01*
X125600000Y-110450000D01*
X125430668Y-110483075D01*
X125281802Y-110581802D01*
X124481802Y-111381802D01*
X124385454Y-111524925D01*
X124350000Y-111700000D01*
X124350000Y-112600000D01*
X124383075Y-112769332D01*
X124481802Y-112918198D01*
X125381802Y-113818198D01*
X125524925Y-113914546D01*
X125700000Y-113950000D01*
X126413604Y-113950000D01*
X126750000Y-114286396D01*
X126750000Y-115113604D01*
X126313604Y-115550000D01*
X125600000Y-115550000D01*
X125430668Y-115583075D01*
X125281802Y-115681802D01*
X124481802Y-116481802D01*
X124385454Y-116624925D01*
X124350000Y-116800000D01*
X124350000Y-117700000D01*
X124383075Y-117869332D01*
X124481802Y-118018198D01*
X125281802Y-118818198D01*
X125424925Y-118914546D01*
X125600000Y-118950000D01*
X126313604Y-118950000D01*
X126750000Y-119386396D01*
X126750000Y-120213604D01*
X126313604Y-120650000D01*
X125500000Y-120650000D01*
X125330668Y-120683075D01*
X125181802Y-120781802D01*
X124481802Y-121481802D01*
X124385454Y-121624925D01*
X124350000Y-121800000D01*
X124350000Y-122800000D01*
X124383075Y-122969332D01*
X124481802Y-123118198D01*
X125281802Y-123918198D01*
X125424925Y-124014546D01*
X125600000Y-124050000D01*
X126313604Y-124050000D01*
X126750000Y-124486396D01*
X126750000Y-125313604D01*
X126313604Y-125750000D01*
X125600000Y-125750000D01*
X125430668Y-125783075D01*
X125281802Y-125881802D01*
X124381802Y-126781802D01*
X124285454Y-126924925D01*
X124250000Y-127100000D01*
X124250000Y-129050000D01*
X91450000Y-129050000D01*
X91450000Y-114650000D01*
X113500000Y-114650000D01*
X113554519Y-114639742D01*
X113604591Y-114607521D01*
X113638182Y-114558358D01*
X113650000Y-114500000D01*
X113650000Y-103639875D01*
X113700000Y-103650000D01*
G36*
X172050000Y-129050000D02*
X164250000Y-129050000D01*
X164250000Y-103400000D01*
X164219225Y-103236444D01*
X164122563Y-103086228D01*
X163975075Y-102985454D01*
X163800000Y-102950000D01*
X127550000Y-102950000D01*
X127550000Y-96344594D01*
X137719594Y-86175000D01*
X137911212Y-86175000D01*
X138105118Y-86465201D01*
X138531350Y-86750000D01*
X137900000Y-86750000D01*
X137845481Y-86760258D01*
X137795409Y-86792479D01*
X137761818Y-86841642D01*
X137750000Y-86900000D01*
X137750000Y-89200000D01*
X137760258Y-89254519D01*
X137792479Y-89304591D01*
X137841642Y-89338182D01*
X137900000Y-89350000D01*
X140600000Y-89350000D01*
X140654519Y-89339742D01*
X140704591Y-89307521D01*
X140738182Y-89258358D01*
X140750000Y-89200000D01*
X140750000Y-86900000D01*
X140739742Y-86845481D01*
X140707521Y-86795409D01*
X140658358Y-86761818D01*
X140600000Y-86750000D01*
X139968650Y-86750000D01*
X140394882Y-86465201D01*
X140690777Y-86022363D01*
X140794681Y-85500000D01*
X140690777Y-84977637D01*
X140394882Y-84534799D01*
X139952044Y-84238904D01*
X139907280Y-84230000D01*
X139952044Y-84221096D01*
X140394882Y-83925201D01*
X140690777Y-83482363D01*
X140794681Y-82960000D01*
X140690777Y-82437637D01*
X140394882Y-81994799D01*
X139952044Y-81698904D01*
X139429681Y-81595000D01*
X139070319Y-81595000D01*
X138547956Y-81698904D01*
X138105118Y-81994799D01*
X137809223Y-82437637D01*
X137705319Y-82960000D01*
X137809223Y-83482363D01*
X138105118Y-83925201D01*
X138547956Y-84221096D01*
X138592720Y-84230000D01*
X138547956Y-84238904D01*
X138105118Y-84534799D01*
X137911212Y-84825000D01*
X137440000Y-84825000D01*
X137181688Y-84876381D01*
X136962703Y-85022703D01*
X127324563Y-94660843D01*
X127376448Y-94400000D01*
X127273685Y-93883377D01*
X126981042Y-93445406D01*
X126543071Y-93152763D01*
X126428634Y-93130000D01*
X126543071Y-93107237D01*
X126981042Y-92814594D01*
X127273685Y-92376623D01*
X127376448Y-91860000D01*
X127273685Y-91343377D01*
X126981042Y-90905406D01*
X126543071Y-90612763D01*
X126428634Y-90590000D01*
X126543071Y-90567237D01*
X126981042Y-90274594D01*
X127273685Y-89836623D01*
X127376448Y-89320000D01*
X127273685Y-88803377D01*
X126981042Y-88365406D01*
X126543071Y-88072763D01*
X126026448Y-87970000D01*
X125973552Y-87970000D01*
X125456929Y-88072763D01*
X125018958Y-88365406D01*
X124726315Y-88803377D01*
X124623552Y-89320000D01*
X124726315Y-89836623D01*
X125018958Y-90274594D01*
X125456929Y-90567237D01*
X125571366Y-90590000D01*
X125456929Y-90612763D01*
X125018958Y-90905406D01*
X124726315Y-91343377D01*
X124623552Y-91860000D01*
X124726315Y-92376623D01*
X125018958Y-92814594D01*
X125456929Y-93107237D01*
X125571366Y-93130000D01*
X125456929Y-93152763D01*
X125018958Y-93445406D01*
X124726315Y-93883377D01*
X124623552Y-94400000D01*
X124726315Y-94916623D01*
X124949070Y-95250000D01*
X113700000Y-95250000D01*
X113650000Y-95259408D01*
X113650000Y-92000000D01*
X113639742Y-91945481D01*
X113607521Y-91895409D01*
X113558358Y-91861818D01*
X113500000Y-91850000D01*
X91450000Y-91850000D01*
X91450000Y-68750000D01*
X120615205Y-68750000D01*
X120615205Y-69250000D01*
X120650069Y-69435289D01*
X120759575Y-69605465D01*
X120926661Y-69719630D01*
X121074855Y-69749640D01*
X120939711Y-69775069D01*
X120769535Y-69884575D01*
X120655370Y-70051661D01*
X120615205Y-70250000D01*
X120615205Y-70750000D01*
X120650069Y-70935289D01*
X120759575Y-71105465D01*
X120926661Y-71219630D01*
X121125000Y-71259795D01*
X122025000Y-71259795D01*
X122210289Y-71224931D01*
X122287883Y-71175000D01*
X122486343Y-71175000D01*
X122525000Y-71201413D01*
X122525000Y-76360000D01*
X122576381Y-76618312D01*
X122722703Y-76837297D01*
X124693542Y-78808136D01*
X124623552Y-79160000D01*
X124726315Y-79676623D01*
X125018958Y-80114594D01*
X125456929Y-80407237D01*
X125571366Y-80430000D01*
X125456929Y-80452763D01*
X125018958Y-80745406D01*
X124726315Y-81183377D01*
X124623552Y-81700000D01*
X124726315Y-82216623D01*
X125018958Y-82654594D01*
X125456929Y-82947237D01*
X125973552Y-83050000D01*
X126026448Y-83050000D01*
X126543071Y-82947237D01*
X126981042Y-82654594D01*
X127273685Y-82216623D01*
X127376448Y-81700000D01*
X127273685Y-81183377D01*
X126981042Y-80745406D01*
X126543071Y-80452763D01*
X126428634Y-80430000D01*
X126543071Y-80407237D01*
X126981042Y-80114594D01*
X127273685Y-79676623D01*
X127324198Y-79422677D01*
X132050000Y-79422677D01*
X132050000Y-80622677D01*
X132060258Y-80677196D01*
X132092479Y-80727268D01*
X132141642Y-80760859D01*
X132200000Y-80772677D01*
X133600000Y-80772677D01*
X133654519Y-80762419D01*
X133704591Y-80730198D01*
X133738182Y-80681035D01*
X133750000Y-80622677D01*
X133750000Y-79422677D01*
X133739742Y-79368158D01*
X133707521Y-79318086D01*
X133658358Y-79284495D01*
X133600000Y-79272677D01*
X132200000Y-79272677D01*
X132145481Y-79282935D01*
X132095409Y-79315156D01*
X132061818Y-79364319D01*
X132050000Y-79422677D01*
X127324198Y-79422677D01*
X127376448Y-79160000D01*
X127273685Y-78643377D01*
X126981042Y-78205406D01*
X126543071Y-77912763D01*
X126428634Y-77890000D01*
X126543071Y-77867237D01*
X126981042Y-77574594D01*
X127080998Y-77425000D01*
X130700623Y-77425000D01*
X130784575Y-77555465D01*
X130951661Y-77669630D01*
X131150000Y-77709795D01*
X131650000Y-77709795D01*
X131835289Y-77674931D01*
X132005465Y-77565425D01*
X132119630Y-77398339D01*
X132149640Y-77250145D01*
X132175069Y-77385289D01*
X132225000Y-77462883D01*
X132225000Y-77582797D01*
X132144535Y-77634575D01*
X132030370Y-77801661D01*
X131990205Y-78000000D01*
X131990205Y-78600000D01*
X132025069Y-78785289D01*
X132134575Y-78955465D01*
X132301661Y-79069630D01*
X132500000Y-79109795D01*
X133300000Y-79109795D01*
X133485289Y-79074931D01*
X133655465Y-78965425D01*
X133769630Y-78798339D01*
X133809795Y-78600000D01*
X133809795Y-78000000D01*
X133774931Y-77814711D01*
X133665425Y-77644535D01*
X133575000Y-77582750D01*
X133575000Y-77463657D01*
X133619630Y-77398339D01*
X133659795Y-77200000D01*
X133659795Y-76300000D01*
X133624931Y-76114711D01*
X133515425Y-75944535D01*
X133348339Y-75830370D01*
X133150000Y-75790205D01*
X132650000Y-75790205D01*
X132464711Y-75825069D01*
X132294535Y-75934575D01*
X132180370Y-76101661D01*
X132150360Y-76249855D01*
X132124931Y-76114711D01*
X132015425Y-75944535D01*
X131848339Y-75830370D01*
X131650000Y-75790205D01*
X131150000Y-75790205D01*
X130964711Y-75825069D01*
X130794535Y-75934575D01*
X130698587Y-76075000D01*
X127254724Y-76075000D01*
X126981042Y-75665406D01*
X126543071Y-75372763D01*
X126026448Y-75270000D01*
X125973552Y-75270000D01*
X125456929Y-75372763D01*
X125018958Y-75665406D01*
X124726315Y-76103377D01*
X124623552Y-76620000D01*
X124675437Y-76880843D01*
X123875000Y-76080406D01*
X123875000Y-71199377D01*
X124005465Y-71115425D01*
X124119630Y-70948339D01*
X124159795Y-70750000D01*
X124159795Y-70250000D01*
X124124931Y-70064711D01*
X124015425Y-69894535D01*
X123848339Y-69780370D01*
X123700145Y-69750360D01*
X123835289Y-69724931D01*
X123912883Y-69675000D01*
X124640205Y-69675000D01*
X124640205Y-69850000D01*
X124675069Y-70035289D01*
X124784575Y-70205465D01*
X124951661Y-70319630D01*
X125150000Y-70359795D01*
X126850000Y-70359795D01*
X127035289Y-70324931D01*
X127205465Y-70215425D01*
X127319630Y-70048339D01*
X127359795Y-69850000D01*
X127359795Y-68150000D01*
X127324931Y-67964711D01*
X127215425Y-67794535D01*
X127048339Y-67680370D01*
X126850000Y-67640205D01*
X125150000Y-67640205D01*
X124964711Y-67675069D01*
X124794535Y-67784575D01*
X124680370Y-67951661D01*
X124640205Y-68150000D01*
X124640205Y-68325000D01*
X123913657Y-68325000D01*
X123848339Y-68280370D01*
X123650000Y-68240205D01*
X122750000Y-68240205D01*
X122564711Y-68275069D01*
X122487117Y-68325000D01*
X122288657Y-68325000D01*
X122223339Y-68280370D01*
X122025000Y-68240205D01*
X121125000Y-68240205D01*
X120939711Y-68275069D01*
X120769535Y-68384575D01*
X120655370Y-68551661D01*
X120615205Y-68750000D01*
X91450000Y-68750000D01*
X91450000Y-67450000D01*
X172050000Y-67450000D01*
X172050000Y-129050000D01*
X172050000Y-129050000D01*
G37*
X172050000Y-129050000D02*
X164250000Y-129050000D01*
X164250000Y-103400000D01*
X164219225Y-103236444D01*
X164122563Y-103086228D01*
X163975075Y-102985454D01*
X163800000Y-102950000D01*
X127550000Y-102950000D01*
X127550000Y-96344594D01*
X137719594Y-86175000D01*
X137911212Y-86175000D01*
X138105118Y-86465201D01*
X138531350Y-86750000D01*
X137900000Y-86750000D01*
X137845481Y-86760258D01*
X137795409Y-86792479D01*
X137761818Y-86841642D01*
X137750000Y-86900000D01*
X137750000Y-89200000D01*
X137760258Y-89254519D01*
X137792479Y-89304591D01*
X137841642Y-89338182D01*
X137900000Y-89350000D01*
X140600000Y-89350000D01*
X140654519Y-89339742D01*
X140704591Y-89307521D01*
X140738182Y-89258358D01*
X140750000Y-89200000D01*
X140750000Y-86900000D01*
X140739742Y-86845481D01*
X140707521Y-86795409D01*
X140658358Y-86761818D01*
X140600000Y-86750000D01*
X139968650Y-86750000D01*
X140394882Y-86465201D01*
X140690777Y-86022363D01*
X140794681Y-85500000D01*
X140690777Y-84977637D01*
X140394882Y-84534799D01*
X139952044Y-84238904D01*
X139907280Y-84230000D01*
X139952044Y-84221096D01*
X140394882Y-83925201D01*
X140690777Y-83482363D01*
X140794681Y-82960000D01*
X140690777Y-82437637D01*
X140394882Y-81994799D01*
X139952044Y-81698904D01*
X139429681Y-81595000D01*
X139070319Y-81595000D01*
X138547956Y-81698904D01*
X138105118Y-81994799D01*
X137809223Y-82437637D01*
X137705319Y-82960000D01*
X137809223Y-83482363D01*
X138105118Y-83925201D01*
X138547956Y-84221096D01*
X138592720Y-84230000D01*
X138547956Y-84238904D01*
X138105118Y-84534799D01*
X137911212Y-84825000D01*
X137440000Y-84825000D01*
X137181688Y-84876381D01*
X136962703Y-85022703D01*
X127324563Y-94660843D01*
X127376448Y-94400000D01*
X127273685Y-93883377D01*
X126981042Y-93445406D01*
X126543071Y-93152763D01*
X126428634Y-93130000D01*
X126543071Y-93107237D01*
X126981042Y-92814594D01*
X127273685Y-92376623D01*
X127376448Y-91860000D01*
X127273685Y-91343377D01*
X126981042Y-90905406D01*
X126543071Y-90612763D01*
X126428634Y-90590000D01*
X126543071Y-90567237D01*
X126981042Y-90274594D01*
X127273685Y-89836623D01*
X127376448Y-89320000D01*
X127273685Y-88803377D01*
X126981042Y-88365406D01*
X126543071Y-88072763D01*
X126026448Y-87970000D01*
X125973552Y-87970000D01*
X125456929Y-88072763D01*
X125018958Y-88365406D01*
X124726315Y-88803377D01*
X124623552Y-89320000D01*
X124726315Y-89836623D01*
X125018958Y-90274594D01*
X125456929Y-90567237D01*
X125571366Y-90590000D01*
X125456929Y-90612763D01*
X125018958Y-90905406D01*
X124726315Y-91343377D01*
X124623552Y-91860000D01*
X124726315Y-92376623D01*
X125018958Y-92814594D01*
X125456929Y-93107237D01*
X125571366Y-93130000D01*
X125456929Y-93152763D01*
X125018958Y-93445406D01*
X124726315Y-93883377D01*
X124623552Y-94400000D01*
X124726315Y-94916623D01*
X124949070Y-95250000D01*
X113700000Y-95250000D01*
X113650000Y-95259408D01*
X113650000Y-92000000D01*
X113639742Y-91945481D01*
X113607521Y-91895409D01*
X113558358Y-91861818D01*
X113500000Y-91850000D01*
X91450000Y-91850000D01*
X91450000Y-68750000D01*
X120615205Y-68750000D01*
X120615205Y-69250000D01*
X120650069Y-69435289D01*
X120759575Y-69605465D01*
X120926661Y-69719630D01*
X121074855Y-69749640D01*
X120939711Y-69775069D01*
X120769535Y-69884575D01*
X120655370Y-70051661D01*
X120615205Y-70250000D01*
X120615205Y-70750000D01*
X120650069Y-70935289D01*
X120759575Y-71105465D01*
X120926661Y-71219630D01*
X121125000Y-71259795D01*
X122025000Y-71259795D01*
X122210289Y-71224931D01*
X122287883Y-71175000D01*
X122486343Y-71175000D01*
X122525000Y-71201413D01*
X122525000Y-76360000D01*
X122576381Y-76618312D01*
X122722703Y-76837297D01*
X124693542Y-78808136D01*
X124623552Y-79160000D01*
X124726315Y-79676623D01*
X125018958Y-80114594D01*
X125456929Y-80407237D01*
X125571366Y-80430000D01*
X125456929Y-80452763D01*
X125018958Y-80745406D01*
X124726315Y-81183377D01*
X124623552Y-81700000D01*
X124726315Y-82216623D01*
X125018958Y-82654594D01*
X125456929Y-82947237D01*
X125973552Y-83050000D01*
X126026448Y-83050000D01*
X126543071Y-82947237D01*
X126981042Y-82654594D01*
X127273685Y-82216623D01*
X127376448Y-81700000D01*
X127273685Y-81183377D01*
X126981042Y-80745406D01*
X126543071Y-80452763D01*
X126428634Y-80430000D01*
X126543071Y-80407237D01*
X126981042Y-80114594D01*
X127273685Y-79676623D01*
X127324198Y-79422677D01*
X132050000Y-79422677D01*
X132050000Y-80622677D01*
X132060258Y-80677196D01*
X132092479Y-80727268D01*
X132141642Y-80760859D01*
X132200000Y-80772677D01*
X133600000Y-80772677D01*
X133654519Y-80762419D01*
X133704591Y-80730198D01*
X133738182Y-80681035D01*
X133750000Y-80622677D01*
X133750000Y-79422677D01*
X133739742Y-79368158D01*
X133707521Y-79318086D01*
X133658358Y-79284495D01*
X133600000Y-79272677D01*
X132200000Y-79272677D01*
X132145481Y-79282935D01*
X132095409Y-79315156D01*
X132061818Y-79364319D01*
X132050000Y-79422677D01*
X127324198Y-79422677D01*
X127376448Y-79160000D01*
X127273685Y-78643377D01*
X126981042Y-78205406D01*
X126543071Y-77912763D01*
X126428634Y-77890000D01*
X126543071Y-77867237D01*
X126981042Y-77574594D01*
X127080998Y-77425000D01*
X130700623Y-77425000D01*
X130784575Y-77555465D01*
X130951661Y-77669630D01*
X131150000Y-77709795D01*
X131650000Y-77709795D01*
X131835289Y-77674931D01*
X132005465Y-77565425D01*
X132119630Y-77398339D01*
X132149640Y-77250145D01*
X132175069Y-77385289D01*
X132225000Y-77462883D01*
X132225000Y-77582797D01*
X132144535Y-77634575D01*
X132030370Y-77801661D01*
X131990205Y-78000000D01*
X131990205Y-78600000D01*
X132025069Y-78785289D01*
X132134575Y-78955465D01*
X132301661Y-79069630D01*
X132500000Y-79109795D01*
X133300000Y-79109795D01*
X133485289Y-79074931D01*
X133655465Y-78965425D01*
X133769630Y-78798339D01*
X133809795Y-78600000D01*
X133809795Y-78000000D01*
X133774931Y-77814711D01*
X133665425Y-77644535D01*
X133575000Y-77582750D01*
X133575000Y-77463657D01*
X133619630Y-77398339D01*
X133659795Y-77200000D01*
X133659795Y-76300000D01*
X133624931Y-76114711D01*
X133515425Y-75944535D01*
X133348339Y-75830370D01*
X133150000Y-75790205D01*
X132650000Y-75790205D01*
X132464711Y-75825069D01*
X132294535Y-75934575D01*
X132180370Y-76101661D01*
X132150360Y-76249855D01*
X132124931Y-76114711D01*
X132015425Y-75944535D01*
X131848339Y-75830370D01*
X131650000Y-75790205D01*
X131150000Y-75790205D01*
X130964711Y-75825069D01*
X130794535Y-75934575D01*
X130698587Y-76075000D01*
X127254724Y-76075000D01*
X126981042Y-75665406D01*
X126543071Y-75372763D01*
X126026448Y-75270000D01*
X125973552Y-75270000D01*
X125456929Y-75372763D01*
X125018958Y-75665406D01*
X124726315Y-76103377D01*
X124623552Y-76620000D01*
X124675437Y-76880843D01*
X123875000Y-76080406D01*
X123875000Y-71199377D01*
X124005465Y-71115425D01*
X124119630Y-70948339D01*
X124159795Y-70750000D01*
X124159795Y-70250000D01*
X124124931Y-70064711D01*
X124015425Y-69894535D01*
X123848339Y-69780370D01*
X123700145Y-69750360D01*
X123835289Y-69724931D01*
X123912883Y-69675000D01*
X124640205Y-69675000D01*
X124640205Y-69850000D01*
X124675069Y-70035289D01*
X124784575Y-70205465D01*
X124951661Y-70319630D01*
X125150000Y-70359795D01*
X126850000Y-70359795D01*
X127035289Y-70324931D01*
X127205465Y-70215425D01*
X127319630Y-70048339D01*
X127359795Y-69850000D01*
X127359795Y-68150000D01*
X127324931Y-67964711D01*
X127215425Y-67794535D01*
X127048339Y-67680370D01*
X126850000Y-67640205D01*
X125150000Y-67640205D01*
X124964711Y-67675069D01*
X124794535Y-67784575D01*
X124680370Y-67951661D01*
X124640205Y-68150000D01*
X124640205Y-68325000D01*
X123913657Y-68325000D01*
X123848339Y-68280370D01*
X123650000Y-68240205D01*
X122750000Y-68240205D01*
X122564711Y-68275069D01*
X122487117Y-68325000D01*
X122288657Y-68325000D01*
X122223339Y-68280370D01*
X122025000Y-68240205D01*
X121125000Y-68240205D01*
X120939711Y-68275069D01*
X120769535Y-68384575D01*
X120655370Y-68551661D01*
X120615205Y-68750000D01*
X91450000Y-68750000D01*
X91450000Y-67450000D01*
X172050000Y-67450000D01*
X172050000Y-129050000D01*
G36*
X163650000Y-129050000D02*
X124850000Y-129050000D01*
X124850000Y-127162132D01*
X125662132Y-126350000D01*
X126500000Y-126350000D01*
X126558358Y-126338182D01*
X126606066Y-126306066D01*
X127306066Y-125606066D01*
X127338975Y-125556444D01*
X127350000Y-125500000D01*
X127350000Y-125012963D01*
X127376448Y-124880000D01*
X127350000Y-124747037D01*
X127350000Y-124300000D01*
X127338182Y-124241642D01*
X127306066Y-124193934D01*
X126606066Y-123493934D01*
X126556444Y-123461025D01*
X126500000Y-123450000D01*
X125662132Y-123450000D01*
X124950000Y-122737868D01*
X124950000Y-122300000D01*
X133590205Y-122300000D01*
X133590205Y-125900000D01*
X133625069Y-126085289D01*
X133734575Y-126255465D01*
X133901661Y-126369630D01*
X134100000Y-126409795D01*
X136100000Y-126409795D01*
X136285289Y-126374931D01*
X136455465Y-126265425D01*
X136569630Y-126098339D01*
X136609795Y-125900000D01*
X136609795Y-123254940D01*
X138600000Y-123254940D01*
X138600000Y-124945060D01*
X138714181Y-125519085D01*
X139039340Y-126005720D01*
X139525975Y-126330879D01*
X140100000Y-126445060D01*
X140674025Y-126330879D01*
X141160660Y-126005720D01*
X141485819Y-125519085D01*
X141600000Y-124945060D01*
X141600000Y-123254940D01*
X143600000Y-123254940D01*
X143600000Y-124945060D01*
X143714181Y-125519085D01*
X144039340Y-126005720D01*
X144525975Y-126330879D01*
X145100000Y-126445060D01*
X145674025Y-126330879D01*
X146160660Y-126005720D01*
X146485819Y-125519085D01*
X146600000Y-124945060D01*
X146600000Y-123254940D01*
X148600000Y-123254940D01*
X148600000Y-124945060D01*
X148714181Y-125519085D01*
X149039340Y-126005720D01*
X149525975Y-126330879D01*
X150100000Y-126445060D01*
X150674025Y-126330879D01*
X151160660Y-126005720D01*
X151485819Y-125519085D01*
X151600000Y-124945060D01*
X151600000Y-123254940D01*
X153600000Y-123254940D01*
X153600000Y-124945060D01*
X153714181Y-125519085D01*
X154039340Y-126005720D01*
X154525975Y-126330879D01*
X155100000Y-126445060D01*
X155674025Y-126330879D01*
X156160660Y-126005720D01*
X156485819Y-125519085D01*
X156600000Y-124945060D01*
X156600000Y-123254940D01*
X158600000Y-123254940D01*
X158600000Y-124945060D01*
X158714181Y-125519085D01*
X159039340Y-126005720D01*
X159525975Y-126330879D01*
X160100000Y-126445060D01*
X160674025Y-126330879D01*
X161160660Y-126005720D01*
X161485819Y-125519085D01*
X161600000Y-124945060D01*
X161600000Y-123254940D01*
X161485819Y-122680915D01*
X161160660Y-122194280D01*
X160674025Y-121869121D01*
X160100000Y-121754940D01*
X159525975Y-121869121D01*
X159039340Y-122194280D01*
X158714181Y-122680915D01*
X158600000Y-123254940D01*
X156600000Y-123254940D01*
X156485819Y-122680915D01*
X156160660Y-122194280D01*
X155674025Y-121869121D01*
X155100000Y-121754940D01*
X154525975Y-121869121D01*
X154039340Y-122194280D01*
X153714181Y-122680915D01*
X153600000Y-123254940D01*
X151600000Y-123254940D01*
X151485819Y-122680915D01*
X151160660Y-122194280D01*
X150674025Y-121869121D01*
X150100000Y-121754940D01*
X149525975Y-121869121D01*
X149039340Y-122194280D01*
X148714181Y-122680915D01*
X148600000Y-123254940D01*
X146600000Y-123254940D01*
X146485819Y-122680915D01*
X146160660Y-122194280D01*
X145674025Y-121869121D01*
X145100000Y-121754940D01*
X144525975Y-121869121D01*
X144039340Y-122194280D01*
X143714181Y-122680915D01*
X143600000Y-123254940D01*
X141600000Y-123254940D01*
X141485819Y-122680915D01*
X141160660Y-122194280D01*
X140674025Y-121869121D01*
X140100000Y-121754940D01*
X139525975Y-121869121D01*
X139039340Y-122194280D01*
X138714181Y-122680915D01*
X138600000Y-123254940D01*
X136609795Y-123254940D01*
X136609795Y-122300000D01*
X136574931Y-122114711D01*
X136465425Y-121944535D01*
X136298339Y-121830370D01*
X136100000Y-121790205D01*
X134100000Y-121790205D01*
X133914711Y-121825069D01*
X133744535Y-121934575D01*
X133630370Y-122101661D01*
X133590205Y-122300000D01*
X124950000Y-122300000D01*
X124950000Y-121862132D01*
X125562132Y-121250000D01*
X126500000Y-121250000D01*
X126558358Y-121238182D01*
X126606066Y-121206066D01*
X127306066Y-120506066D01*
X127338975Y-120456444D01*
X127350000Y-120400000D01*
X127350000Y-119932963D01*
X127376448Y-119800000D01*
X127350000Y-119667037D01*
X127350000Y-119200000D01*
X127338182Y-119141642D01*
X127306066Y-119093934D01*
X126606066Y-118393934D01*
X126556444Y-118361025D01*
X126500000Y-118350000D01*
X125662132Y-118350000D01*
X124950000Y-117637868D01*
X124950000Y-116862132D01*
X125662132Y-116150000D01*
X126500000Y-116150000D01*
X126558358Y-116138182D01*
X126606066Y-116106066D01*
X127306066Y-115406066D01*
X127338975Y-115356444D01*
X127350000Y-115300000D01*
X127350000Y-114852963D01*
X127376448Y-114720000D01*
X127350000Y-114587037D01*
X127350000Y-114100000D01*
X127338182Y-114041642D01*
X127306066Y-113993934D01*
X126706066Y-113393934D01*
X126656444Y-113361025D01*
X126600000Y-113350000D01*
X125762132Y-113350000D01*
X124950000Y-112537868D01*
X124950000Y-111762132D01*
X125662132Y-111050000D01*
X126500000Y-111050000D01*
X126558358Y-111038182D01*
X126606066Y-111006066D01*
X127306066Y-110306066D01*
X127338975Y-110256444D01*
X127350000Y-110200000D01*
X127350000Y-109772963D01*
X127376448Y-109640000D01*
X127350000Y-109507037D01*
X127350000Y-109000000D01*
X127338182Y-108941642D01*
X127306066Y-108893934D01*
X126706066Y-108293934D01*
X126656444Y-108261025D01*
X126600000Y-108250000D01*
X125662132Y-108250000D01*
X124950000Y-107537868D01*
X124950000Y-103550000D01*
X163650000Y-103550000D01*
X163650000Y-129050000D01*
X163650000Y-129050000D01*
G37*
X163650000Y-129050000D02*
X124850000Y-129050000D01*
X124850000Y-127162132D01*
X125662132Y-126350000D01*
X126500000Y-126350000D01*
X126558358Y-126338182D01*
X126606066Y-126306066D01*
X127306066Y-125606066D01*
X127338975Y-125556444D01*
X127350000Y-125500000D01*
X127350000Y-125012963D01*
X127376448Y-124880000D01*
X127350000Y-124747037D01*
X127350000Y-124300000D01*
X127338182Y-124241642D01*
X127306066Y-124193934D01*
X126606066Y-123493934D01*
X126556444Y-123461025D01*
X126500000Y-123450000D01*
X125662132Y-123450000D01*
X124950000Y-122737868D01*
X124950000Y-122300000D01*
X133590205Y-122300000D01*
X133590205Y-125900000D01*
X133625069Y-126085289D01*
X133734575Y-126255465D01*
X133901661Y-126369630D01*
X134100000Y-126409795D01*
X136100000Y-126409795D01*
X136285289Y-126374931D01*
X136455465Y-126265425D01*
X136569630Y-126098339D01*
X136609795Y-125900000D01*
X136609795Y-123254940D01*
X138600000Y-123254940D01*
X138600000Y-124945060D01*
X138714181Y-125519085D01*
X139039340Y-126005720D01*
X139525975Y-126330879D01*
X140100000Y-126445060D01*
X140674025Y-126330879D01*
X141160660Y-126005720D01*
X141485819Y-125519085D01*
X141600000Y-124945060D01*
X141600000Y-123254940D01*
X143600000Y-123254940D01*
X143600000Y-124945060D01*
X143714181Y-125519085D01*
X144039340Y-126005720D01*
X144525975Y-126330879D01*
X145100000Y-126445060D01*
X145674025Y-126330879D01*
X146160660Y-126005720D01*
X146485819Y-125519085D01*
X146600000Y-124945060D01*
X146600000Y-123254940D01*
X148600000Y-123254940D01*
X148600000Y-124945060D01*
X148714181Y-125519085D01*
X149039340Y-126005720D01*
X149525975Y-126330879D01*
X150100000Y-126445060D01*
X150674025Y-126330879D01*
X151160660Y-126005720D01*
X151485819Y-125519085D01*
X151600000Y-124945060D01*
X151600000Y-123254940D01*
X153600000Y-123254940D01*
X153600000Y-124945060D01*
X153714181Y-125519085D01*
X154039340Y-126005720D01*
X154525975Y-126330879D01*
X155100000Y-126445060D01*
X155674025Y-126330879D01*
X156160660Y-126005720D01*
X156485819Y-125519085D01*
X156600000Y-124945060D01*
X156600000Y-123254940D01*
X158600000Y-123254940D01*
X158600000Y-124945060D01*
X158714181Y-125519085D01*
X159039340Y-126005720D01*
X159525975Y-126330879D01*
X160100000Y-126445060D01*
X160674025Y-126330879D01*
X161160660Y-126005720D01*
X161485819Y-125519085D01*
X161600000Y-124945060D01*
X161600000Y-123254940D01*
X161485819Y-122680915D01*
X161160660Y-122194280D01*
X160674025Y-121869121D01*
X160100000Y-121754940D01*
X159525975Y-121869121D01*
X159039340Y-122194280D01*
X158714181Y-122680915D01*
X158600000Y-123254940D01*
X156600000Y-123254940D01*
X156485819Y-122680915D01*
X156160660Y-122194280D01*
X155674025Y-121869121D01*
X155100000Y-121754940D01*
X154525975Y-121869121D01*
X154039340Y-122194280D01*
X153714181Y-122680915D01*
X153600000Y-123254940D01*
X151600000Y-123254940D01*
X151485819Y-122680915D01*
X151160660Y-122194280D01*
X150674025Y-121869121D01*
X150100000Y-121754940D01*
X149525975Y-121869121D01*
X149039340Y-122194280D01*
X148714181Y-122680915D01*
X148600000Y-123254940D01*
X146600000Y-123254940D01*
X146485819Y-122680915D01*
X146160660Y-122194280D01*
X145674025Y-121869121D01*
X145100000Y-121754940D01*
X144525975Y-121869121D01*
X144039340Y-122194280D01*
X143714181Y-122680915D01*
X143600000Y-123254940D01*
X141600000Y-123254940D01*
X141485819Y-122680915D01*
X141160660Y-122194280D01*
X140674025Y-121869121D01*
X140100000Y-121754940D01*
X139525975Y-121869121D01*
X139039340Y-122194280D01*
X138714181Y-122680915D01*
X138600000Y-123254940D01*
X136609795Y-123254940D01*
X136609795Y-122300000D01*
X136574931Y-122114711D01*
X136465425Y-121944535D01*
X136298339Y-121830370D01*
X136100000Y-121790205D01*
X134100000Y-121790205D01*
X133914711Y-121825069D01*
X133744535Y-121934575D01*
X133630370Y-122101661D01*
X133590205Y-122300000D01*
X124950000Y-122300000D01*
X124950000Y-121862132D01*
X125562132Y-121250000D01*
X126500000Y-121250000D01*
X126558358Y-121238182D01*
X126606066Y-121206066D01*
X127306066Y-120506066D01*
X127338975Y-120456444D01*
X127350000Y-120400000D01*
X127350000Y-119932963D01*
X127376448Y-119800000D01*
X127350000Y-119667037D01*
X127350000Y-119200000D01*
X127338182Y-119141642D01*
X127306066Y-119093934D01*
X126606066Y-118393934D01*
X126556444Y-118361025D01*
X126500000Y-118350000D01*
X125662132Y-118350000D01*
X124950000Y-117637868D01*
X124950000Y-116862132D01*
X125662132Y-116150000D01*
X126500000Y-116150000D01*
X126558358Y-116138182D01*
X126606066Y-116106066D01*
X127306066Y-115406066D01*
X127338975Y-115356444D01*
X127350000Y-115300000D01*
X127350000Y-114852963D01*
X127376448Y-114720000D01*
X127350000Y-114587037D01*
X127350000Y-114100000D01*
X127338182Y-114041642D01*
X127306066Y-113993934D01*
X126706066Y-113393934D01*
X126656444Y-113361025D01*
X126600000Y-113350000D01*
X125762132Y-113350000D01*
X124950000Y-112537868D01*
X124950000Y-111762132D01*
X125662132Y-111050000D01*
X126500000Y-111050000D01*
X126558358Y-111038182D01*
X126606066Y-111006066D01*
X127306066Y-110306066D01*
X127338975Y-110256444D01*
X127350000Y-110200000D01*
X127350000Y-109772963D01*
X127376448Y-109640000D01*
X127350000Y-109507037D01*
X127350000Y-109000000D01*
X127338182Y-108941642D01*
X127306066Y-108893934D01*
X126706066Y-108293934D01*
X126656444Y-108261025D01*
X126600000Y-108250000D01*
X125662132Y-108250000D01*
X124950000Y-107537868D01*
X124950000Y-103550000D01*
X163650000Y-103550000D01*
X163650000Y-129050000D01*
M02*
