M48
METRIC,TZ
T1C0.500
T2C1.000
T3C1.020
T4C1.400
T5C3.200
T6C4.500
%
G90
G05
T1
X114.4Y-96.8
X114.4Y-102.2
X115.Y-115.
X115.Y-119.
X115.Y-123.
X115.Y-127.
X116.Y-117.
X116.Y-121.
X116.Y-125.
X117.Y-115.
X117.Y-119.
X117.Y-123.
X117.Y-127.
X120.8Y-96.8
X120.8Y-102.2
X123.Y-105.3
X123.Y-107.3
X129.Y-101.
X130.Y-99.
X133.Y-101.
X134.Y-99.
X137.Y-101.
X138.Y-99.
X141.Y-101.
X142.Y-99.
X145.Y-101.
X146.Y-99.
X149.Y-101.
X150.Y-99.
X153.Y-101.
X154.Y-99.
X157.Y-101.
X158.Y-99.
X161.Y-101.
X162.Y-99.
X165.Y-101.
X166.Y-99.
X169.Y-101.
X169.Y-105.
X169.Y-109.
X169.Y-113.
X169.Y-117.
X170.Y-99.
T2
X126.Y-69.
X126.Y-74.08
X126.Y-76.62
X126.Y-79.16
X126.Y-81.7
X126.Y-84.24
X126.Y-86.78
X126.Y-89.32
X126.Y-91.86
X126.Y-94.4
X126.Y-96.94
X126.Y-99.48
X126.Y-102.02
X126.Y-104.56
X126.Y-107.1
X126.Y-109.64
X126.Y-112.18
X126.Y-114.72
X126.Y-117.26
X126.Y-119.8
X126.Y-122.34
X126.Y-124.88
X126.Y-127.42
T3
X139.25Y-82.96
X139.25Y-85.5
X139.25Y-88.04
T4
X135.1Y-112.
X135.1Y-124.1
X140.1Y-112.
X140.1Y-124.1
X145.1Y-112.
X145.1Y-124.1
X150.1Y-112.
X150.1Y-124.1
X155.1Y-112.
X155.1Y-124.1
X160.1Y-112.
X160.1Y-124.1
T5
X94.75Y-73.1
X94.75Y-123.4
X118.3Y-73.1
X168.75Y-73.1
X168.75Y-123.4
T6
X117.5Y-99.5
X117.5Y-107.
T0
M30
