M48
METRIC,TZ
T1C0.500
T2C1.000
T3C1.020
T4C1.400
T5C3.200
T6C4.500
%
G90
G05
T1
X114.4Y-96.8
X114.4Y-102.2
X116.Y-113.
X116.Y-117.
X116.Y-121.
X116.Y-125.
X117.Y-111.
X117.Y-115.
X117.Y-119.
X117.Y-123.
X117.Y-127.
X118.Y-113.
X118.Y-117.
X118.Y-121.
X118.Y-125.
X119.Y-111.
X119.Y-115.
X119.Y-119.
X119.Y-123.
X119.Y-127.
X120.Y-113.
X120.Y-117.
X120.Y-121.
X120.Y-125.
X120.8Y-96.8
X120.8Y-102.2
X129.Y-101.
X130.Y-99.
X131.Y-101.
X132.Y-99.
X133.Y-101.
X134.Y-99.
X135.Y-101.
X136.Y-99.
X137.Y-101.
X138.Y-99.
X139.Y-101.
X140.Y-99.
X141.Y-101.
X142.Y-99.
X143.Y-101.
X144.Y-99.
X145.Y-101.
X146.Y-99.
X147.Y-101.
X148.Y-99.
X149.Y-101.
X150.Y-99.
X151.Y-101.
X152.Y-99.
X153.Y-101.
X154.Y-99.
X155.Y-101.
X156.Y-99.
X157.Y-101.
X158.Y-99.
X159.Y-101.
X161.Y-101.
X161.Y-103.
X161.Y-105.
X161.Y-107.
X161.Y-109.
X161.Y-111.
X161.Y-113.
X161.Y-115.
X161.Y-117.
X161.Y-119.
X161.Y-121.
X161.Y-123.
X163.Y-104.
X163.Y-106.
X163.Y-108.
X163.Y-110.
X163.Y-112.
X163.Y-114.
X163.Y-116.
X163.Y-118.
X163.Y-120.
X163.Y-122.
T2
X126.Y-69.
X126.Y-74.08
X126.Y-76.62
X126.Y-79.16
X126.Y-81.7
X126.Y-84.24
X126.Y-86.78
X126.Y-89.32
X126.Y-91.86
X126.Y-94.4
X126.Y-96.94
X126.Y-99.48
X126.Y-102.02
X126.Y-104.56
X126.Y-107.1
X126.Y-109.64
X126.Y-112.18
X126.Y-114.72
X126.Y-117.26
X126.Y-119.8
X126.Y-122.34
X126.Y-124.88
X126.Y-127.42
T3
X141.25Y-82.96
X141.25Y-85.5
X141.25Y-88.04
T4
X135.1Y-112.
X135.1Y-124.1
X140.1Y-112.
X140.1Y-124.1
X145.1Y-112.
X145.1Y-124.1
X150.1Y-112.
X150.1Y-124.1
X155.1Y-112.
X155.1Y-124.1
T5
X94.75Y-70.75
X94.75Y-125.75
X163.75Y-70.75
X163.75Y-125.75
T6
X117.5Y-99.5
X117.5Y-107.
T0
M30
