M48
METRIC,TZ
T1C1.000
T2C1.020
T3C1.400
T4C3.200
T5C4.500
%
G90
G05
T1
X126.Y-69.
X126.Y-74.08
X126.Y-76.62
X126.Y-79.16
X126.Y-81.7
X126.Y-84.24
X126.Y-86.78
X126.Y-89.32
X126.Y-91.86
X126.Y-94.4
X126.Y-96.94
X126.Y-99.48
X126.Y-102.02
X126.Y-104.56
X126.Y-107.1
X126.Y-109.64
X126.Y-112.18
X126.Y-114.72
X126.Y-117.26
X126.Y-119.8
X126.Y-122.34
X126.Y-124.88
X126.Y-127.42
T2
X141.25Y-82.96
X141.25Y-85.5
X141.25Y-88.04
T3
X137.Y-110.
X137.Y-125.1
X142.Y-110.
X142.Y-125.1
X147.Y-110.
X147.Y-125.1
X152.Y-110.
X152.Y-125.1
X157.Y-110.
X157.Y-125.1
X162.Y-110.
X162.Y-125.1
X167.Y-110.
X167.Y-125.1
X172.Y-110.
X172.Y-125.1
X177.Y-110.
X177.Y-125.1
X182.Y-110.
X182.Y-125.1
T4
X94.75Y-70.75
X94.75Y-125.75
X193.75Y-70.75
X193.75Y-125.75
T5
X117.5Y-99.5
X117.5Y-107.
T0
M30
