G04 #@! TF.FileFunction,Copper,L1,Top,Signal*
%FSLAX46Y46*%
G04 Gerber Fmt 4.6, Leading zero omitted, Abs format (unit mm)*
G04 Created by KiCad (PCBNEW 4.0.7-e2-6376~58~ubuntu16.04.1) date Sat Jan 13 22:00:32 2018*
%MOMM*%
%LPD*%
G01*
G04 APERTURE LIST*
%ADD10C,0.100000*%
%ADD11R,1.700000X1.700000*%
%ADD12O,1.700000X1.700000*%
%ADD13R,0.900000X0.500000*%
%ADD14R,2.000000X3.600000*%
%ADD15O,2.000000X3.600000*%
%ADD16C,6.000000*%
%ADD17R,2.030000X1.730000*%
%ADD18O,2.030000X1.730000*%
%ADD19R,0.800000X0.600000*%
%ADD20R,0.500000X0.900000*%
%ADD21C,5.700000*%
%ADD22C,0.250000*%
%ADD23C,1.000000*%
%ADD24C,0.300000*%
%ADD25C,0.200000*%
G04 APERTURE END LIST*
D10*
D11*
X126000000Y-69000000D03*
D12*
X126000000Y-74080000D03*
X126000000Y-76620000D03*
X126000000Y-79160000D03*
X126000000Y-81700000D03*
X126000000Y-84240000D03*
X126000000Y-86780000D03*
X126000000Y-89320000D03*
X126000000Y-91860000D03*
X126000000Y-94400000D03*
X126000000Y-96940000D03*
X126000000Y-99480000D03*
X126000000Y-102020000D03*
X126000000Y-104560000D03*
X126000000Y-107100000D03*
X126000000Y-109640000D03*
X126000000Y-112180000D03*
X126000000Y-114720000D03*
X126000000Y-117260000D03*
X126000000Y-119800000D03*
X126000000Y-122340000D03*
X126000000Y-124880000D03*
X126000000Y-127420000D03*
D13*
X122250000Y-72750000D03*
X122250000Y-74250000D03*
D14*
X137000000Y-110000000D03*
D15*
X142000000Y-110000000D03*
X147000000Y-110000000D03*
X152000000Y-110000000D03*
X157000000Y-110000000D03*
X162000000Y-110000000D03*
X167000000Y-110000000D03*
X172000000Y-110000000D03*
X177000000Y-110000000D03*
X182000000Y-110000000D03*
D14*
X137000000Y-125100000D03*
D15*
X142000000Y-125100000D03*
X147000000Y-125100000D03*
X152000000Y-125100000D03*
X157000000Y-125100000D03*
X162000000Y-125100000D03*
X167000000Y-125100000D03*
X172000000Y-125100000D03*
X177000000Y-125100000D03*
X182000000Y-125100000D03*
D16*
X117500000Y-107000000D03*
X117500000Y-99500000D03*
D17*
X141250000Y-88040000D03*
D18*
X141250000Y-85500000D03*
X141250000Y-82960000D03*
D19*
X129500000Y-81200000D03*
X129500000Y-79500000D03*
D20*
X128500000Y-76750000D03*
X130000000Y-76750000D03*
D21*
X94750000Y-70750000D03*
X193750000Y-70750000D03*
X94750000Y-125750000D03*
X193750000Y-125750000D03*
D22*
X126000000Y-69000000D02*
X124900000Y-69000000D01*
X124900000Y-69000000D02*
X122250000Y-71650000D01*
X122250000Y-71650000D02*
X122250000Y-72250000D01*
X122250000Y-72250000D02*
X122250000Y-72750000D01*
X129500000Y-83600000D02*
X128860000Y-84240000D01*
X128860000Y-84240000D02*
X126000000Y-84240000D01*
X129500000Y-81200000D02*
X129500000Y-83600000D01*
X128500000Y-76750000D02*
X126130000Y-76750000D01*
X126130000Y-76750000D02*
X126000000Y-76620000D01*
X122250000Y-74250000D02*
X122250000Y-75410000D01*
X122250000Y-75410000D02*
X126000000Y-79160000D01*
X141250000Y-85500000D02*
X137440000Y-85500000D01*
X137440000Y-85500000D02*
X126000000Y-96940000D01*
D23*
X117500000Y-99500000D02*
X125980000Y-99500000D01*
X125980000Y-99500000D02*
X126000000Y-99480000D01*
X177000000Y-110000000D02*
X182000000Y-110000000D01*
X172000000Y-110000000D02*
X177000000Y-110000000D01*
X167000000Y-110000000D02*
X172000000Y-110000000D01*
X162000000Y-110000000D02*
X167000000Y-110000000D01*
X157000000Y-110000000D02*
X162000000Y-110000000D01*
X152000000Y-110000000D02*
X157000000Y-110000000D01*
X147000000Y-110000000D02*
X152000000Y-110000000D01*
X142000000Y-110000000D02*
X147000000Y-110000000D01*
X137000000Y-110000000D02*
X142000000Y-110000000D01*
X126000000Y-107100000D02*
X128900000Y-110000000D01*
X128900000Y-110000000D02*
X137000000Y-110000000D01*
D22*
X130000000Y-76750000D02*
X130000000Y-79000000D01*
X130000000Y-79000000D02*
X129500000Y-79500000D01*
D24*
G36*
X126950000Y-103050000D02*
X113850000Y-103050000D01*
X113850000Y-95850000D01*
X126950000Y-95850000D01*
X126950000Y-103050000D01*
X126950000Y-103050000D01*
G37*
X126950000Y-103050000D02*
X113850000Y-103050000D01*
X113850000Y-95850000D01*
X126950000Y-95850000D01*
X126950000Y-103050000D01*
D25*
G36*
X183150000Y-123595731D02*
X182954594Y-123303285D01*
X182516623Y-123010642D01*
X182000000Y-122907879D01*
X181483377Y-123010642D01*
X181045406Y-123303285D01*
X180752763Y-123741256D01*
X180650000Y-124257879D01*
X180650000Y-125942121D01*
X180752763Y-126458744D01*
X181045406Y-126896715D01*
X181483377Y-127189358D01*
X182000000Y-127292121D01*
X182516623Y-127189358D01*
X182954594Y-126896715D01*
X183150000Y-126604269D01*
X183150000Y-129100000D01*
X124850000Y-129100000D01*
X124850000Y-127288524D01*
X125744379Y-126300000D01*
X126200000Y-126300000D01*
X126238906Y-126292121D01*
X126270711Y-126270711D01*
X126693800Y-125847622D01*
X126872037Y-125728528D01*
X126991131Y-125550291D01*
X127170711Y-125370711D01*
X127192650Y-125337629D01*
X127200000Y-125300000D01*
X127200000Y-124998187D01*
X127223509Y-124880000D01*
X127200000Y-124761813D01*
X127200000Y-124400000D01*
X127192121Y-124361094D01*
X127170711Y-124329289D01*
X126370711Y-123529289D01*
X126337629Y-123507350D01*
X126300000Y-123500000D01*
X125741422Y-123500000D01*
X125541422Y-123300000D01*
X135643144Y-123300000D01*
X135643144Y-126900000D01*
X135667549Y-127029702D01*
X135744203Y-127148825D01*
X135861163Y-127228741D01*
X136000000Y-127256856D01*
X138000000Y-127256856D01*
X138129702Y-127232451D01*
X138248825Y-127155797D01*
X138328741Y-127038837D01*
X138356856Y-126900000D01*
X138356856Y-124257879D01*
X140650000Y-124257879D01*
X140650000Y-125942121D01*
X140752763Y-126458744D01*
X141045406Y-126896715D01*
X141483377Y-127189358D01*
X142000000Y-127292121D01*
X142516623Y-127189358D01*
X142954594Y-126896715D01*
X143247237Y-126458744D01*
X143350000Y-125942121D01*
X143350000Y-124257879D01*
X145650000Y-124257879D01*
X145650000Y-125942121D01*
X145752763Y-126458744D01*
X146045406Y-126896715D01*
X146483377Y-127189358D01*
X147000000Y-127292121D01*
X147516623Y-127189358D01*
X147954594Y-126896715D01*
X148247237Y-126458744D01*
X148350000Y-125942121D01*
X148350000Y-124257879D01*
X150650000Y-124257879D01*
X150650000Y-125942121D01*
X150752763Y-126458744D01*
X151045406Y-126896715D01*
X151483377Y-127189358D01*
X152000000Y-127292121D01*
X152516623Y-127189358D01*
X152954594Y-126896715D01*
X153247237Y-126458744D01*
X153350000Y-125942121D01*
X153350000Y-124257879D01*
X155650000Y-124257879D01*
X155650000Y-125942121D01*
X155752763Y-126458744D01*
X156045406Y-126896715D01*
X156483377Y-127189358D01*
X157000000Y-127292121D01*
X157516623Y-127189358D01*
X157954594Y-126896715D01*
X158247237Y-126458744D01*
X158350000Y-125942121D01*
X158350000Y-124257879D01*
X160650000Y-124257879D01*
X160650000Y-125942121D01*
X160752763Y-126458744D01*
X161045406Y-126896715D01*
X161483377Y-127189358D01*
X162000000Y-127292121D01*
X162516623Y-127189358D01*
X162954594Y-126896715D01*
X163247237Y-126458744D01*
X163350000Y-125942121D01*
X163350000Y-124257879D01*
X165650000Y-124257879D01*
X165650000Y-125942121D01*
X165752763Y-126458744D01*
X166045406Y-126896715D01*
X166483377Y-127189358D01*
X167000000Y-127292121D01*
X167516623Y-127189358D01*
X167954594Y-126896715D01*
X168247237Y-126458744D01*
X168350000Y-125942121D01*
X168350000Y-124257879D01*
X170650000Y-124257879D01*
X170650000Y-125942121D01*
X170752763Y-126458744D01*
X171045406Y-126896715D01*
X171483377Y-127189358D01*
X172000000Y-127292121D01*
X172516623Y-127189358D01*
X172954594Y-126896715D01*
X173247237Y-126458744D01*
X173350000Y-125942121D01*
X173350000Y-124257879D01*
X175650000Y-124257879D01*
X175650000Y-125942121D01*
X175752763Y-126458744D01*
X176045406Y-126896715D01*
X176483377Y-127189358D01*
X177000000Y-127292121D01*
X177516623Y-127189358D01*
X177954594Y-126896715D01*
X178247237Y-126458744D01*
X178350000Y-125942121D01*
X178350000Y-124257879D01*
X178247237Y-123741256D01*
X177954594Y-123303285D01*
X177516623Y-123010642D01*
X177000000Y-122907879D01*
X176483377Y-123010642D01*
X176045406Y-123303285D01*
X175752763Y-123741256D01*
X175650000Y-124257879D01*
X173350000Y-124257879D01*
X173247237Y-123741256D01*
X172954594Y-123303285D01*
X172516623Y-123010642D01*
X172000000Y-122907879D01*
X171483377Y-123010642D01*
X171045406Y-123303285D01*
X170752763Y-123741256D01*
X170650000Y-124257879D01*
X168350000Y-124257879D01*
X168247237Y-123741256D01*
X167954594Y-123303285D01*
X167516623Y-123010642D01*
X167000000Y-122907879D01*
X166483377Y-123010642D01*
X166045406Y-123303285D01*
X165752763Y-123741256D01*
X165650000Y-124257879D01*
X163350000Y-124257879D01*
X163247237Y-123741256D01*
X162954594Y-123303285D01*
X162516623Y-123010642D01*
X162000000Y-122907879D01*
X161483377Y-123010642D01*
X161045406Y-123303285D01*
X160752763Y-123741256D01*
X160650000Y-124257879D01*
X158350000Y-124257879D01*
X158247237Y-123741256D01*
X157954594Y-123303285D01*
X157516623Y-123010642D01*
X157000000Y-122907879D01*
X156483377Y-123010642D01*
X156045406Y-123303285D01*
X155752763Y-123741256D01*
X155650000Y-124257879D01*
X153350000Y-124257879D01*
X153247237Y-123741256D01*
X152954594Y-123303285D01*
X152516623Y-123010642D01*
X152000000Y-122907879D01*
X151483377Y-123010642D01*
X151045406Y-123303285D01*
X150752763Y-123741256D01*
X150650000Y-124257879D01*
X148350000Y-124257879D01*
X148247237Y-123741256D01*
X147954594Y-123303285D01*
X147516623Y-123010642D01*
X147000000Y-122907879D01*
X146483377Y-123010642D01*
X146045406Y-123303285D01*
X145752763Y-123741256D01*
X145650000Y-124257879D01*
X143350000Y-124257879D01*
X143247237Y-123741256D01*
X142954594Y-123303285D01*
X142516623Y-123010642D01*
X142000000Y-122907879D01*
X141483377Y-123010642D01*
X141045406Y-123303285D01*
X140752763Y-123741256D01*
X140650000Y-124257879D01*
X138356856Y-124257879D01*
X138356856Y-123300000D01*
X138332451Y-123170298D01*
X138255797Y-123051175D01*
X138138837Y-122971259D01*
X138000000Y-122943144D01*
X136000000Y-122943144D01*
X135870298Y-122967549D01*
X135751175Y-123044203D01*
X135671259Y-123161163D01*
X135643144Y-123300000D01*
X125541422Y-123300000D01*
X125000000Y-122758578D01*
X125000000Y-121941422D01*
X125741422Y-121200000D01*
X126200000Y-121200000D01*
X126238906Y-121192121D01*
X126270711Y-121170711D01*
X126633527Y-120807895D01*
X126872037Y-120648528D01*
X127031404Y-120410018D01*
X127170711Y-120270711D01*
X127192650Y-120237629D01*
X127200000Y-120200000D01*
X127200000Y-119918187D01*
X127223509Y-119800000D01*
X127200000Y-119681813D01*
X127200000Y-119300000D01*
X127192121Y-119261094D01*
X127170711Y-119229289D01*
X126370711Y-118429289D01*
X126337629Y-118407350D01*
X126300000Y-118400000D01*
X125741422Y-118400000D01*
X125000000Y-117658578D01*
X125000000Y-116841422D01*
X125741422Y-116100000D01*
X126300000Y-116100000D01*
X126338906Y-116092121D01*
X126370711Y-116070711D01*
X127170711Y-115270711D01*
X127192650Y-115237629D01*
X127200000Y-115200000D01*
X127200000Y-114838187D01*
X127223509Y-114720000D01*
X127200000Y-114601813D01*
X127200000Y-114300000D01*
X127192121Y-114261094D01*
X127170711Y-114229289D01*
X126991131Y-114049709D01*
X126872037Y-113871472D01*
X126693800Y-113752378D01*
X126370711Y-113429289D01*
X126337629Y-113407350D01*
X126300000Y-113400000D01*
X125841422Y-113400000D01*
X125000000Y-112558578D01*
X125000000Y-111741422D01*
X125741422Y-111000000D01*
X126300000Y-111000000D01*
X126338906Y-110992121D01*
X126370711Y-110970711D01*
X126814346Y-110527076D01*
X126872037Y-110488528D01*
X126910585Y-110430837D01*
X127170711Y-110170711D01*
X127192650Y-110137629D01*
X127200000Y-110100000D01*
X127200000Y-109758187D01*
X127223509Y-109640000D01*
X127200000Y-109521813D01*
X127200000Y-109200000D01*
X127192121Y-109161094D01*
X127170711Y-109129289D01*
X126950858Y-108909436D01*
X126872037Y-108791472D01*
X126754073Y-108712651D01*
X126370711Y-108329289D01*
X126337629Y-108307350D01*
X126300000Y-108300000D01*
X125741422Y-108300000D01*
X125000000Y-107558578D01*
X125000000Y-103600000D01*
X183150000Y-103600000D01*
X183150000Y-123595731D01*
X183150000Y-123595731D01*
G37*
X183150000Y-123595731D02*
X182954594Y-123303285D01*
X182516623Y-123010642D01*
X182000000Y-122907879D01*
X181483377Y-123010642D01*
X181045406Y-123303285D01*
X180752763Y-123741256D01*
X180650000Y-124257879D01*
X180650000Y-125942121D01*
X180752763Y-126458744D01*
X181045406Y-126896715D01*
X181483377Y-127189358D01*
X182000000Y-127292121D01*
X182516623Y-127189358D01*
X182954594Y-126896715D01*
X183150000Y-126604269D01*
X183150000Y-129100000D01*
X124850000Y-129100000D01*
X124850000Y-127288524D01*
X125744379Y-126300000D01*
X126200000Y-126300000D01*
X126238906Y-126292121D01*
X126270711Y-126270711D01*
X126693800Y-125847622D01*
X126872037Y-125728528D01*
X126991131Y-125550291D01*
X127170711Y-125370711D01*
X127192650Y-125337629D01*
X127200000Y-125300000D01*
X127200000Y-124998187D01*
X127223509Y-124880000D01*
X127200000Y-124761813D01*
X127200000Y-124400000D01*
X127192121Y-124361094D01*
X127170711Y-124329289D01*
X126370711Y-123529289D01*
X126337629Y-123507350D01*
X126300000Y-123500000D01*
X125741422Y-123500000D01*
X125541422Y-123300000D01*
X135643144Y-123300000D01*
X135643144Y-126900000D01*
X135667549Y-127029702D01*
X135744203Y-127148825D01*
X135861163Y-127228741D01*
X136000000Y-127256856D01*
X138000000Y-127256856D01*
X138129702Y-127232451D01*
X138248825Y-127155797D01*
X138328741Y-127038837D01*
X138356856Y-126900000D01*
X138356856Y-124257879D01*
X140650000Y-124257879D01*
X140650000Y-125942121D01*
X140752763Y-126458744D01*
X141045406Y-126896715D01*
X141483377Y-127189358D01*
X142000000Y-127292121D01*
X142516623Y-127189358D01*
X142954594Y-126896715D01*
X143247237Y-126458744D01*
X143350000Y-125942121D01*
X143350000Y-124257879D01*
X145650000Y-124257879D01*
X145650000Y-125942121D01*
X145752763Y-126458744D01*
X146045406Y-126896715D01*
X146483377Y-127189358D01*
X147000000Y-127292121D01*
X147516623Y-127189358D01*
X147954594Y-126896715D01*
X148247237Y-126458744D01*
X148350000Y-125942121D01*
X148350000Y-124257879D01*
X150650000Y-124257879D01*
X150650000Y-125942121D01*
X150752763Y-126458744D01*
X151045406Y-126896715D01*
X151483377Y-127189358D01*
X152000000Y-127292121D01*
X152516623Y-127189358D01*
X152954594Y-126896715D01*
X153247237Y-126458744D01*
X153350000Y-125942121D01*
X153350000Y-124257879D01*
X155650000Y-124257879D01*
X155650000Y-125942121D01*
X155752763Y-126458744D01*
X156045406Y-126896715D01*
X156483377Y-127189358D01*
X157000000Y-127292121D01*
X157516623Y-127189358D01*
X157954594Y-126896715D01*
X158247237Y-126458744D01*
X158350000Y-125942121D01*
X158350000Y-124257879D01*
X160650000Y-124257879D01*
X160650000Y-125942121D01*
X160752763Y-126458744D01*
X161045406Y-126896715D01*
X161483377Y-127189358D01*
X162000000Y-127292121D01*
X162516623Y-127189358D01*
X162954594Y-126896715D01*
X163247237Y-126458744D01*
X163350000Y-125942121D01*
X163350000Y-124257879D01*
X165650000Y-124257879D01*
X165650000Y-125942121D01*
X165752763Y-126458744D01*
X166045406Y-126896715D01*
X166483377Y-127189358D01*
X167000000Y-127292121D01*
X167516623Y-127189358D01*
X167954594Y-126896715D01*
X168247237Y-126458744D01*
X168350000Y-125942121D01*
X168350000Y-124257879D01*
X170650000Y-124257879D01*
X170650000Y-125942121D01*
X170752763Y-126458744D01*
X171045406Y-126896715D01*
X171483377Y-127189358D01*
X172000000Y-127292121D01*
X172516623Y-127189358D01*
X172954594Y-126896715D01*
X173247237Y-126458744D01*
X173350000Y-125942121D01*
X173350000Y-124257879D01*
X175650000Y-124257879D01*
X175650000Y-125942121D01*
X175752763Y-126458744D01*
X176045406Y-126896715D01*
X176483377Y-127189358D01*
X177000000Y-127292121D01*
X177516623Y-127189358D01*
X177954594Y-126896715D01*
X178247237Y-126458744D01*
X178350000Y-125942121D01*
X178350000Y-124257879D01*
X178247237Y-123741256D01*
X177954594Y-123303285D01*
X177516623Y-123010642D01*
X177000000Y-122907879D01*
X176483377Y-123010642D01*
X176045406Y-123303285D01*
X175752763Y-123741256D01*
X175650000Y-124257879D01*
X173350000Y-124257879D01*
X173247237Y-123741256D01*
X172954594Y-123303285D01*
X172516623Y-123010642D01*
X172000000Y-122907879D01*
X171483377Y-123010642D01*
X171045406Y-123303285D01*
X170752763Y-123741256D01*
X170650000Y-124257879D01*
X168350000Y-124257879D01*
X168247237Y-123741256D01*
X167954594Y-123303285D01*
X167516623Y-123010642D01*
X167000000Y-122907879D01*
X166483377Y-123010642D01*
X166045406Y-123303285D01*
X165752763Y-123741256D01*
X165650000Y-124257879D01*
X163350000Y-124257879D01*
X163247237Y-123741256D01*
X162954594Y-123303285D01*
X162516623Y-123010642D01*
X162000000Y-122907879D01*
X161483377Y-123010642D01*
X161045406Y-123303285D01*
X160752763Y-123741256D01*
X160650000Y-124257879D01*
X158350000Y-124257879D01*
X158247237Y-123741256D01*
X157954594Y-123303285D01*
X157516623Y-123010642D01*
X157000000Y-122907879D01*
X156483377Y-123010642D01*
X156045406Y-123303285D01*
X155752763Y-123741256D01*
X155650000Y-124257879D01*
X153350000Y-124257879D01*
X153247237Y-123741256D01*
X152954594Y-123303285D01*
X152516623Y-123010642D01*
X152000000Y-122907879D01*
X151483377Y-123010642D01*
X151045406Y-123303285D01*
X150752763Y-123741256D01*
X150650000Y-124257879D01*
X148350000Y-124257879D01*
X148247237Y-123741256D01*
X147954594Y-123303285D01*
X147516623Y-123010642D01*
X147000000Y-122907879D01*
X146483377Y-123010642D01*
X146045406Y-123303285D01*
X145752763Y-123741256D01*
X145650000Y-124257879D01*
X143350000Y-124257879D01*
X143247237Y-123741256D01*
X142954594Y-123303285D01*
X142516623Y-123010642D01*
X142000000Y-122907879D01*
X141483377Y-123010642D01*
X141045406Y-123303285D01*
X140752763Y-123741256D01*
X140650000Y-124257879D01*
X138356856Y-124257879D01*
X138356856Y-123300000D01*
X138332451Y-123170298D01*
X138255797Y-123051175D01*
X138138837Y-122971259D01*
X138000000Y-122943144D01*
X136000000Y-122943144D01*
X135870298Y-122967549D01*
X135751175Y-123044203D01*
X135671259Y-123161163D01*
X135643144Y-123300000D01*
X125541422Y-123300000D01*
X125000000Y-122758578D01*
X125000000Y-121941422D01*
X125741422Y-121200000D01*
X126200000Y-121200000D01*
X126238906Y-121192121D01*
X126270711Y-121170711D01*
X126633527Y-120807895D01*
X126872037Y-120648528D01*
X127031404Y-120410018D01*
X127170711Y-120270711D01*
X127192650Y-120237629D01*
X127200000Y-120200000D01*
X127200000Y-119918187D01*
X127223509Y-119800000D01*
X127200000Y-119681813D01*
X127200000Y-119300000D01*
X127192121Y-119261094D01*
X127170711Y-119229289D01*
X126370711Y-118429289D01*
X126337629Y-118407350D01*
X126300000Y-118400000D01*
X125741422Y-118400000D01*
X125000000Y-117658578D01*
X125000000Y-116841422D01*
X125741422Y-116100000D01*
X126300000Y-116100000D01*
X126338906Y-116092121D01*
X126370711Y-116070711D01*
X127170711Y-115270711D01*
X127192650Y-115237629D01*
X127200000Y-115200000D01*
X127200000Y-114838187D01*
X127223509Y-114720000D01*
X127200000Y-114601813D01*
X127200000Y-114300000D01*
X127192121Y-114261094D01*
X127170711Y-114229289D01*
X126991131Y-114049709D01*
X126872037Y-113871472D01*
X126693800Y-113752378D01*
X126370711Y-113429289D01*
X126337629Y-113407350D01*
X126300000Y-113400000D01*
X125841422Y-113400000D01*
X125000000Y-112558578D01*
X125000000Y-111741422D01*
X125741422Y-111000000D01*
X126300000Y-111000000D01*
X126338906Y-110992121D01*
X126370711Y-110970711D01*
X126814346Y-110527076D01*
X126872037Y-110488528D01*
X126910585Y-110430837D01*
X127170711Y-110170711D01*
X127192650Y-110137629D01*
X127200000Y-110100000D01*
X127200000Y-109758187D01*
X127223509Y-109640000D01*
X127200000Y-109521813D01*
X127200000Y-109200000D01*
X127192121Y-109161094D01*
X127170711Y-109129289D01*
X126950858Y-108909436D01*
X126872037Y-108791472D01*
X126754073Y-108712651D01*
X126370711Y-108329289D01*
X126337629Y-108307350D01*
X126300000Y-108300000D01*
X125741422Y-108300000D01*
X125000000Y-107558578D01*
X125000000Y-103600000D01*
X183150000Y-103600000D01*
X183150000Y-123595731D01*
G36*
X113700000Y-103600000D02*
X124600000Y-103600000D01*
X124600000Y-107600000D01*
X124622050Y-107712888D01*
X124687868Y-107812132D01*
X125487868Y-108612132D01*
X125583283Y-108676364D01*
X125700000Y-108700000D01*
X126175736Y-108700000D01*
X126800000Y-109324264D01*
X126800000Y-109975736D01*
X126175736Y-110600000D01*
X125700000Y-110600000D01*
X125587112Y-110622050D01*
X125487868Y-110687868D01*
X124687868Y-111487868D01*
X124623636Y-111583283D01*
X124600000Y-111700000D01*
X124600000Y-112600000D01*
X124622050Y-112712888D01*
X124687868Y-112812132D01*
X125587868Y-113712132D01*
X125683283Y-113776364D01*
X125800000Y-113800000D01*
X126175736Y-113800000D01*
X126800000Y-114424264D01*
X126800000Y-115075736D01*
X126175736Y-115700000D01*
X125700000Y-115700000D01*
X125587112Y-115722050D01*
X125487868Y-115787868D01*
X124687868Y-116587868D01*
X124623636Y-116683283D01*
X124600000Y-116800000D01*
X124600000Y-117700000D01*
X124622050Y-117812888D01*
X124687868Y-117912132D01*
X125487868Y-118712132D01*
X125583283Y-118776364D01*
X125700000Y-118800000D01*
X126175736Y-118800000D01*
X126800000Y-119424264D01*
X126800000Y-120075736D01*
X126075736Y-120800000D01*
X125700000Y-120800000D01*
X125587112Y-120822050D01*
X125487868Y-120887868D01*
X124687868Y-121687868D01*
X124623636Y-121783283D01*
X124600000Y-121900000D01*
X124600000Y-122800000D01*
X124622050Y-122912888D01*
X124687868Y-123012132D01*
X125487868Y-123812132D01*
X125583283Y-123876364D01*
X125700000Y-123900000D01*
X126175736Y-123900000D01*
X126800000Y-124524264D01*
X126800000Y-125175736D01*
X126075736Y-125900000D01*
X125700000Y-125900000D01*
X125573373Y-125928034D01*
X125477539Y-125998726D01*
X124527539Y-127048726D01*
X124473636Y-127133283D01*
X124450000Y-127250000D01*
X124450000Y-129100000D01*
X91400000Y-129100000D01*
X91400000Y-114600000D01*
X113500000Y-114600000D01*
X113536346Y-114593161D01*
X113569727Y-114571681D01*
X113592121Y-114538906D01*
X113600000Y-114500000D01*
X113600000Y-103579750D01*
X113700000Y-103600000D01*
X113700000Y-103600000D01*
G37*
X113700000Y-103600000D02*
X124600000Y-103600000D01*
X124600000Y-107600000D01*
X124622050Y-107712888D01*
X124687868Y-107812132D01*
X125487868Y-108612132D01*
X125583283Y-108676364D01*
X125700000Y-108700000D01*
X126175736Y-108700000D01*
X126800000Y-109324264D01*
X126800000Y-109975736D01*
X126175736Y-110600000D01*
X125700000Y-110600000D01*
X125587112Y-110622050D01*
X125487868Y-110687868D01*
X124687868Y-111487868D01*
X124623636Y-111583283D01*
X124600000Y-111700000D01*
X124600000Y-112600000D01*
X124622050Y-112712888D01*
X124687868Y-112812132D01*
X125587868Y-113712132D01*
X125683283Y-113776364D01*
X125800000Y-113800000D01*
X126175736Y-113800000D01*
X126800000Y-114424264D01*
X126800000Y-115075736D01*
X126175736Y-115700000D01*
X125700000Y-115700000D01*
X125587112Y-115722050D01*
X125487868Y-115787868D01*
X124687868Y-116587868D01*
X124623636Y-116683283D01*
X124600000Y-116800000D01*
X124600000Y-117700000D01*
X124622050Y-117812888D01*
X124687868Y-117912132D01*
X125487868Y-118712132D01*
X125583283Y-118776364D01*
X125700000Y-118800000D01*
X126175736Y-118800000D01*
X126800000Y-119424264D01*
X126800000Y-120075736D01*
X126075736Y-120800000D01*
X125700000Y-120800000D01*
X125587112Y-120822050D01*
X125487868Y-120887868D01*
X124687868Y-121687868D01*
X124623636Y-121783283D01*
X124600000Y-121900000D01*
X124600000Y-122800000D01*
X124622050Y-122912888D01*
X124687868Y-123012132D01*
X125487868Y-123812132D01*
X125583283Y-123876364D01*
X125700000Y-123900000D01*
X126175736Y-123900000D01*
X126800000Y-124524264D01*
X126800000Y-125175736D01*
X126075736Y-125900000D01*
X125700000Y-125900000D01*
X125573373Y-125928034D01*
X125477539Y-125998726D01*
X124527539Y-127048726D01*
X124473636Y-127133283D01*
X124450000Y-127250000D01*
X124450000Y-129100000D01*
X91400000Y-129100000D01*
X91400000Y-114600000D01*
X113500000Y-114600000D01*
X113536346Y-114593161D01*
X113569727Y-114571681D01*
X113592121Y-114538906D01*
X113600000Y-114500000D01*
X113600000Y-103579750D01*
X113700000Y-103600000D01*
G36*
X197100000Y-129100000D02*
X183550000Y-129100000D01*
X183550000Y-103500000D01*
X183529483Y-103390963D01*
X183465042Y-103290819D01*
X183366717Y-103223636D01*
X183250000Y-103200000D01*
X127500000Y-103200000D01*
X127500000Y-96111752D01*
X136711752Y-86900000D01*
X139800000Y-86900000D01*
X139800000Y-89200000D01*
X139806839Y-89236346D01*
X139828319Y-89269727D01*
X139861094Y-89292121D01*
X139900000Y-89300000D01*
X142600000Y-89300000D01*
X142636346Y-89293161D01*
X142669727Y-89271681D01*
X142692121Y-89238906D01*
X142700000Y-89200000D01*
X142700000Y-86900000D01*
X142693161Y-86863654D01*
X142671681Y-86830273D01*
X142638906Y-86807879D01*
X142600000Y-86800000D01*
X139900000Y-86800000D01*
X139863654Y-86806839D01*
X139830273Y-86828319D01*
X139807879Y-86861094D01*
X139800000Y-86900000D01*
X136711752Y-86900000D01*
X137636752Y-85975000D01*
X139957453Y-85975000D01*
X140214123Y-86359135D01*
X140608298Y-86622514D01*
X141073258Y-86715000D01*
X141426742Y-86715000D01*
X141891702Y-86622514D01*
X142285877Y-86359135D01*
X142549256Y-85964960D01*
X142641742Y-85500000D01*
X142549256Y-85035040D01*
X142285877Y-84640865D01*
X141891702Y-84377486D01*
X141426742Y-84285000D01*
X141073258Y-84285000D01*
X140608298Y-84377486D01*
X140214123Y-84640865D01*
X139957453Y-85025000D01*
X137440000Y-85025000D01*
X137258225Y-85061157D01*
X137104124Y-85164124D01*
X126968248Y-95300000D01*
X126795004Y-95300000D01*
X126872037Y-95248528D01*
X127132164Y-94859220D01*
X127223509Y-94400000D01*
X127132164Y-93940780D01*
X126872037Y-93551472D01*
X126482729Y-93291345D01*
X126023509Y-93200000D01*
X125976491Y-93200000D01*
X125517271Y-93291345D01*
X125127963Y-93551472D01*
X124867836Y-93940780D01*
X124776491Y-94400000D01*
X124867836Y-94859220D01*
X125127963Y-95248528D01*
X125204996Y-95300000D01*
X113700000Y-95300000D01*
X113600000Y-95318817D01*
X113600000Y-92000000D01*
X113593161Y-91963654D01*
X113571681Y-91930273D01*
X113538906Y-91907879D01*
X113500000Y-91900000D01*
X91400000Y-91900000D01*
X91400000Y-91860000D01*
X124776491Y-91860000D01*
X124867836Y-92319220D01*
X125127963Y-92708528D01*
X125517271Y-92968655D01*
X125976491Y-93060000D01*
X126023509Y-93060000D01*
X126482729Y-92968655D01*
X126872037Y-92708528D01*
X127132164Y-92319220D01*
X127223509Y-91860000D01*
X127132164Y-91400780D01*
X126872037Y-91011472D01*
X126482729Y-90751345D01*
X126023509Y-90660000D01*
X125976491Y-90660000D01*
X125517271Y-90751345D01*
X125127963Y-91011472D01*
X124867836Y-91400780D01*
X124776491Y-91860000D01*
X91400000Y-91860000D01*
X91400000Y-89320000D01*
X124776491Y-89320000D01*
X124867836Y-89779220D01*
X125127963Y-90168528D01*
X125517271Y-90428655D01*
X125976491Y-90520000D01*
X126023509Y-90520000D01*
X126482729Y-90428655D01*
X126872037Y-90168528D01*
X127132164Y-89779220D01*
X127223509Y-89320000D01*
X127132164Y-88860780D01*
X126872037Y-88471472D01*
X126482729Y-88211345D01*
X126023509Y-88120000D01*
X125976491Y-88120000D01*
X125517271Y-88211345D01*
X125127963Y-88471472D01*
X124867836Y-88860780D01*
X124776491Y-89320000D01*
X91400000Y-89320000D01*
X91400000Y-82960000D01*
X139858258Y-82960000D01*
X139950744Y-83424960D01*
X140214123Y-83819135D01*
X140608298Y-84082514D01*
X141073258Y-84175000D01*
X141426742Y-84175000D01*
X141891702Y-84082514D01*
X142285877Y-83819135D01*
X142549256Y-83424960D01*
X142641742Y-82960000D01*
X142549256Y-82495040D01*
X142285877Y-82100865D01*
X141891702Y-81837486D01*
X141426742Y-81745000D01*
X141073258Y-81745000D01*
X140608298Y-81837486D01*
X140214123Y-82100865D01*
X139950744Y-82495040D01*
X139858258Y-82960000D01*
X91400000Y-82960000D01*
X91400000Y-81700000D01*
X124776491Y-81700000D01*
X124867836Y-82159220D01*
X125127963Y-82548528D01*
X125517271Y-82808655D01*
X125976491Y-82900000D01*
X126023509Y-82900000D01*
X126482729Y-82808655D01*
X126872037Y-82548528D01*
X127132164Y-82159220D01*
X127223509Y-81700000D01*
X127132164Y-81240780D01*
X126872037Y-80851472D01*
X126495683Y-80600000D01*
X128700000Y-80600000D01*
X128700000Y-81800000D01*
X128706839Y-81836346D01*
X128728319Y-81869727D01*
X128761094Y-81892121D01*
X128800000Y-81900000D01*
X130200000Y-81900000D01*
X130236346Y-81893161D01*
X130269727Y-81871681D01*
X130292121Y-81838906D01*
X130300000Y-81800000D01*
X130300000Y-80600000D01*
X130293161Y-80563654D01*
X130271681Y-80530273D01*
X130238906Y-80507879D01*
X130200000Y-80500000D01*
X128800000Y-80500000D01*
X128763654Y-80506839D01*
X128730273Y-80528319D01*
X128707879Y-80561094D01*
X128700000Y-80600000D01*
X126495683Y-80600000D01*
X126482729Y-80591345D01*
X126023509Y-80500000D01*
X125976491Y-80500000D01*
X125517271Y-80591345D01*
X125127963Y-80851472D01*
X124867836Y-81240780D01*
X124776491Y-81700000D01*
X91400000Y-81700000D01*
X91400000Y-74000000D01*
X121443144Y-74000000D01*
X121443144Y-74500000D01*
X121467549Y-74629702D01*
X121544203Y-74748825D01*
X121661163Y-74828741D01*
X121775000Y-74851793D01*
X121775000Y-75410000D01*
X121811157Y-75591775D01*
X121914124Y-75745876D01*
X124868313Y-78700065D01*
X124867836Y-78700780D01*
X124776491Y-79160000D01*
X124867836Y-79619220D01*
X125127963Y-80008528D01*
X125517271Y-80268655D01*
X125976491Y-80360000D01*
X126023509Y-80360000D01*
X126482729Y-80268655D01*
X126872037Y-80008528D01*
X127132164Y-79619220D01*
X127215552Y-79200000D01*
X128743144Y-79200000D01*
X128743144Y-79800000D01*
X128767549Y-79929702D01*
X128844203Y-80048825D01*
X128961163Y-80128741D01*
X129100000Y-80156856D01*
X129900000Y-80156856D01*
X130029702Y-80132451D01*
X130148825Y-80055797D01*
X130228741Y-79938837D01*
X130256856Y-79800000D01*
X130256856Y-79414896D01*
X130335876Y-79335876D01*
X130426665Y-79200000D01*
X130438843Y-79181775D01*
X130444842Y-79151616D01*
X130475001Y-79000000D01*
X130475000Y-78999995D01*
X130475000Y-77471128D01*
X130498825Y-77455797D01*
X130578741Y-77338837D01*
X130606856Y-77200000D01*
X130606856Y-76300000D01*
X130582451Y-76170298D01*
X130505797Y-76051175D01*
X130388837Y-75971259D01*
X130250000Y-75943144D01*
X129750000Y-75943144D01*
X129620298Y-75967549D01*
X129501175Y-76044203D01*
X129421259Y-76161163D01*
X129393144Y-76300000D01*
X129393144Y-77200000D01*
X129417549Y-77329702D01*
X129494203Y-77448825D01*
X129525000Y-77469868D01*
X129525000Y-78803248D01*
X129485104Y-78843144D01*
X129100000Y-78843144D01*
X128970298Y-78867549D01*
X128851175Y-78944203D01*
X128771259Y-79061163D01*
X128743144Y-79200000D01*
X127215552Y-79200000D01*
X127223509Y-79160000D01*
X127132164Y-78700780D01*
X126872037Y-78311472D01*
X126482729Y-78051345D01*
X126023509Y-77960000D01*
X125976491Y-77960000D01*
X125555494Y-78043742D01*
X124131752Y-76620000D01*
X124776491Y-76620000D01*
X124867836Y-77079220D01*
X125127963Y-77468528D01*
X125517271Y-77728655D01*
X125976491Y-77820000D01*
X126023509Y-77820000D01*
X126482729Y-77728655D01*
X126872037Y-77468528D01*
X127034757Y-77225000D01*
X127897848Y-77225000D01*
X127917549Y-77329702D01*
X127994203Y-77448825D01*
X128111163Y-77528741D01*
X128250000Y-77556856D01*
X128750000Y-77556856D01*
X128879702Y-77532451D01*
X128998825Y-77455797D01*
X129078741Y-77338837D01*
X129106856Y-77200000D01*
X129106856Y-76300000D01*
X129082451Y-76170298D01*
X129005797Y-76051175D01*
X128888837Y-75971259D01*
X128750000Y-75943144D01*
X128250000Y-75943144D01*
X128120298Y-75967549D01*
X128001175Y-76044203D01*
X127921259Y-76161163D01*
X127898207Y-76275000D01*
X127154884Y-76275000D01*
X127132164Y-76160780D01*
X126872037Y-75771472D01*
X126482729Y-75511345D01*
X126023509Y-75420000D01*
X125976491Y-75420000D01*
X125517271Y-75511345D01*
X125127963Y-75771472D01*
X124867836Y-76160780D01*
X124776491Y-76620000D01*
X124131752Y-76620000D01*
X122725000Y-75213248D01*
X122725000Y-74852152D01*
X122829702Y-74832451D01*
X122948825Y-74755797D01*
X123028741Y-74638837D01*
X123056856Y-74500000D01*
X123056856Y-74000000D01*
X123032451Y-73870298D01*
X122955797Y-73751175D01*
X122838837Y-73671259D01*
X122700000Y-73643144D01*
X121800000Y-73643144D01*
X121670298Y-73667549D01*
X121551175Y-73744203D01*
X121471259Y-73861163D01*
X121443144Y-74000000D01*
X91400000Y-74000000D01*
X91400000Y-72500000D01*
X121443144Y-72500000D01*
X121443144Y-73000000D01*
X121467549Y-73129702D01*
X121544203Y-73248825D01*
X121661163Y-73328741D01*
X121800000Y-73356856D01*
X122700000Y-73356856D01*
X122829702Y-73332451D01*
X122948825Y-73255797D01*
X123028741Y-73138837D01*
X123056856Y-73000000D01*
X123056856Y-72500000D01*
X123032451Y-72370298D01*
X122955797Y-72251175D01*
X122838837Y-72171259D01*
X122725000Y-72148207D01*
X122725000Y-71846752D01*
X124793144Y-69778608D01*
X124793144Y-69850000D01*
X124817549Y-69979702D01*
X124894203Y-70098825D01*
X125011163Y-70178741D01*
X125150000Y-70206856D01*
X126850000Y-70206856D01*
X126979702Y-70182451D01*
X127098825Y-70105797D01*
X127178741Y-69988837D01*
X127206856Y-69850000D01*
X127206856Y-68150000D01*
X127182451Y-68020298D01*
X127105797Y-67901175D01*
X126988837Y-67821259D01*
X126850000Y-67793144D01*
X125150000Y-67793144D01*
X125020298Y-67817549D01*
X124901175Y-67894203D01*
X124821259Y-68011163D01*
X124793144Y-68150000D01*
X124793144Y-68546255D01*
X124718225Y-68561157D01*
X124564124Y-68664124D01*
X121914124Y-71314124D01*
X121811157Y-71468225D01*
X121775000Y-71650000D01*
X121775000Y-72147848D01*
X121670298Y-72167549D01*
X121551175Y-72244203D01*
X121471259Y-72361163D01*
X121443144Y-72500000D01*
X91400000Y-72500000D01*
X91400000Y-67400000D01*
X197100000Y-67400000D01*
X197100000Y-129100000D01*
X197100000Y-129100000D01*
G37*
X197100000Y-129100000D02*
X183550000Y-129100000D01*
X183550000Y-103500000D01*
X183529483Y-103390963D01*
X183465042Y-103290819D01*
X183366717Y-103223636D01*
X183250000Y-103200000D01*
X127500000Y-103200000D01*
X127500000Y-96111752D01*
X136711752Y-86900000D01*
X139800000Y-86900000D01*
X139800000Y-89200000D01*
X139806839Y-89236346D01*
X139828319Y-89269727D01*
X139861094Y-89292121D01*
X139900000Y-89300000D01*
X142600000Y-89300000D01*
X142636346Y-89293161D01*
X142669727Y-89271681D01*
X142692121Y-89238906D01*
X142700000Y-89200000D01*
X142700000Y-86900000D01*
X142693161Y-86863654D01*
X142671681Y-86830273D01*
X142638906Y-86807879D01*
X142600000Y-86800000D01*
X139900000Y-86800000D01*
X139863654Y-86806839D01*
X139830273Y-86828319D01*
X139807879Y-86861094D01*
X139800000Y-86900000D01*
X136711752Y-86900000D01*
X137636752Y-85975000D01*
X139957453Y-85975000D01*
X140214123Y-86359135D01*
X140608298Y-86622514D01*
X141073258Y-86715000D01*
X141426742Y-86715000D01*
X141891702Y-86622514D01*
X142285877Y-86359135D01*
X142549256Y-85964960D01*
X142641742Y-85500000D01*
X142549256Y-85035040D01*
X142285877Y-84640865D01*
X141891702Y-84377486D01*
X141426742Y-84285000D01*
X141073258Y-84285000D01*
X140608298Y-84377486D01*
X140214123Y-84640865D01*
X139957453Y-85025000D01*
X137440000Y-85025000D01*
X137258225Y-85061157D01*
X137104124Y-85164124D01*
X126968248Y-95300000D01*
X126795004Y-95300000D01*
X126872037Y-95248528D01*
X127132164Y-94859220D01*
X127223509Y-94400000D01*
X127132164Y-93940780D01*
X126872037Y-93551472D01*
X126482729Y-93291345D01*
X126023509Y-93200000D01*
X125976491Y-93200000D01*
X125517271Y-93291345D01*
X125127963Y-93551472D01*
X124867836Y-93940780D01*
X124776491Y-94400000D01*
X124867836Y-94859220D01*
X125127963Y-95248528D01*
X125204996Y-95300000D01*
X113700000Y-95300000D01*
X113600000Y-95318817D01*
X113600000Y-92000000D01*
X113593161Y-91963654D01*
X113571681Y-91930273D01*
X113538906Y-91907879D01*
X113500000Y-91900000D01*
X91400000Y-91900000D01*
X91400000Y-91860000D01*
X124776491Y-91860000D01*
X124867836Y-92319220D01*
X125127963Y-92708528D01*
X125517271Y-92968655D01*
X125976491Y-93060000D01*
X126023509Y-93060000D01*
X126482729Y-92968655D01*
X126872037Y-92708528D01*
X127132164Y-92319220D01*
X127223509Y-91860000D01*
X127132164Y-91400780D01*
X126872037Y-91011472D01*
X126482729Y-90751345D01*
X126023509Y-90660000D01*
X125976491Y-90660000D01*
X125517271Y-90751345D01*
X125127963Y-91011472D01*
X124867836Y-91400780D01*
X124776491Y-91860000D01*
X91400000Y-91860000D01*
X91400000Y-89320000D01*
X124776491Y-89320000D01*
X124867836Y-89779220D01*
X125127963Y-90168528D01*
X125517271Y-90428655D01*
X125976491Y-90520000D01*
X126023509Y-90520000D01*
X126482729Y-90428655D01*
X126872037Y-90168528D01*
X127132164Y-89779220D01*
X127223509Y-89320000D01*
X127132164Y-88860780D01*
X126872037Y-88471472D01*
X126482729Y-88211345D01*
X126023509Y-88120000D01*
X125976491Y-88120000D01*
X125517271Y-88211345D01*
X125127963Y-88471472D01*
X124867836Y-88860780D01*
X124776491Y-89320000D01*
X91400000Y-89320000D01*
X91400000Y-82960000D01*
X139858258Y-82960000D01*
X139950744Y-83424960D01*
X140214123Y-83819135D01*
X140608298Y-84082514D01*
X141073258Y-84175000D01*
X141426742Y-84175000D01*
X141891702Y-84082514D01*
X142285877Y-83819135D01*
X142549256Y-83424960D01*
X142641742Y-82960000D01*
X142549256Y-82495040D01*
X142285877Y-82100865D01*
X141891702Y-81837486D01*
X141426742Y-81745000D01*
X141073258Y-81745000D01*
X140608298Y-81837486D01*
X140214123Y-82100865D01*
X139950744Y-82495040D01*
X139858258Y-82960000D01*
X91400000Y-82960000D01*
X91400000Y-81700000D01*
X124776491Y-81700000D01*
X124867836Y-82159220D01*
X125127963Y-82548528D01*
X125517271Y-82808655D01*
X125976491Y-82900000D01*
X126023509Y-82900000D01*
X126482729Y-82808655D01*
X126872037Y-82548528D01*
X127132164Y-82159220D01*
X127223509Y-81700000D01*
X127132164Y-81240780D01*
X126872037Y-80851472D01*
X126495683Y-80600000D01*
X128700000Y-80600000D01*
X128700000Y-81800000D01*
X128706839Y-81836346D01*
X128728319Y-81869727D01*
X128761094Y-81892121D01*
X128800000Y-81900000D01*
X130200000Y-81900000D01*
X130236346Y-81893161D01*
X130269727Y-81871681D01*
X130292121Y-81838906D01*
X130300000Y-81800000D01*
X130300000Y-80600000D01*
X130293161Y-80563654D01*
X130271681Y-80530273D01*
X130238906Y-80507879D01*
X130200000Y-80500000D01*
X128800000Y-80500000D01*
X128763654Y-80506839D01*
X128730273Y-80528319D01*
X128707879Y-80561094D01*
X128700000Y-80600000D01*
X126495683Y-80600000D01*
X126482729Y-80591345D01*
X126023509Y-80500000D01*
X125976491Y-80500000D01*
X125517271Y-80591345D01*
X125127963Y-80851472D01*
X124867836Y-81240780D01*
X124776491Y-81700000D01*
X91400000Y-81700000D01*
X91400000Y-74000000D01*
X121443144Y-74000000D01*
X121443144Y-74500000D01*
X121467549Y-74629702D01*
X121544203Y-74748825D01*
X121661163Y-74828741D01*
X121775000Y-74851793D01*
X121775000Y-75410000D01*
X121811157Y-75591775D01*
X121914124Y-75745876D01*
X124868313Y-78700065D01*
X124867836Y-78700780D01*
X124776491Y-79160000D01*
X124867836Y-79619220D01*
X125127963Y-80008528D01*
X125517271Y-80268655D01*
X125976491Y-80360000D01*
X126023509Y-80360000D01*
X126482729Y-80268655D01*
X126872037Y-80008528D01*
X127132164Y-79619220D01*
X127215552Y-79200000D01*
X128743144Y-79200000D01*
X128743144Y-79800000D01*
X128767549Y-79929702D01*
X128844203Y-80048825D01*
X128961163Y-80128741D01*
X129100000Y-80156856D01*
X129900000Y-80156856D01*
X130029702Y-80132451D01*
X130148825Y-80055797D01*
X130228741Y-79938837D01*
X130256856Y-79800000D01*
X130256856Y-79414896D01*
X130335876Y-79335876D01*
X130426665Y-79200000D01*
X130438843Y-79181775D01*
X130444842Y-79151616D01*
X130475001Y-79000000D01*
X130475000Y-78999995D01*
X130475000Y-77471128D01*
X130498825Y-77455797D01*
X130578741Y-77338837D01*
X130606856Y-77200000D01*
X130606856Y-76300000D01*
X130582451Y-76170298D01*
X130505797Y-76051175D01*
X130388837Y-75971259D01*
X130250000Y-75943144D01*
X129750000Y-75943144D01*
X129620298Y-75967549D01*
X129501175Y-76044203D01*
X129421259Y-76161163D01*
X129393144Y-76300000D01*
X129393144Y-77200000D01*
X129417549Y-77329702D01*
X129494203Y-77448825D01*
X129525000Y-77469868D01*
X129525000Y-78803248D01*
X129485104Y-78843144D01*
X129100000Y-78843144D01*
X128970298Y-78867549D01*
X128851175Y-78944203D01*
X128771259Y-79061163D01*
X128743144Y-79200000D01*
X127215552Y-79200000D01*
X127223509Y-79160000D01*
X127132164Y-78700780D01*
X126872037Y-78311472D01*
X126482729Y-78051345D01*
X126023509Y-77960000D01*
X125976491Y-77960000D01*
X125555494Y-78043742D01*
X124131752Y-76620000D01*
X124776491Y-76620000D01*
X124867836Y-77079220D01*
X125127963Y-77468528D01*
X125517271Y-77728655D01*
X125976491Y-77820000D01*
X126023509Y-77820000D01*
X126482729Y-77728655D01*
X126872037Y-77468528D01*
X127034757Y-77225000D01*
X127897848Y-77225000D01*
X127917549Y-77329702D01*
X127994203Y-77448825D01*
X128111163Y-77528741D01*
X128250000Y-77556856D01*
X128750000Y-77556856D01*
X128879702Y-77532451D01*
X128998825Y-77455797D01*
X129078741Y-77338837D01*
X129106856Y-77200000D01*
X129106856Y-76300000D01*
X129082451Y-76170298D01*
X129005797Y-76051175D01*
X128888837Y-75971259D01*
X128750000Y-75943144D01*
X128250000Y-75943144D01*
X128120298Y-75967549D01*
X128001175Y-76044203D01*
X127921259Y-76161163D01*
X127898207Y-76275000D01*
X127154884Y-76275000D01*
X127132164Y-76160780D01*
X126872037Y-75771472D01*
X126482729Y-75511345D01*
X126023509Y-75420000D01*
X125976491Y-75420000D01*
X125517271Y-75511345D01*
X125127963Y-75771472D01*
X124867836Y-76160780D01*
X124776491Y-76620000D01*
X124131752Y-76620000D01*
X122725000Y-75213248D01*
X122725000Y-74852152D01*
X122829702Y-74832451D01*
X122948825Y-74755797D01*
X123028741Y-74638837D01*
X123056856Y-74500000D01*
X123056856Y-74000000D01*
X123032451Y-73870298D01*
X122955797Y-73751175D01*
X122838837Y-73671259D01*
X122700000Y-73643144D01*
X121800000Y-73643144D01*
X121670298Y-73667549D01*
X121551175Y-73744203D01*
X121471259Y-73861163D01*
X121443144Y-74000000D01*
X91400000Y-74000000D01*
X91400000Y-72500000D01*
X121443144Y-72500000D01*
X121443144Y-73000000D01*
X121467549Y-73129702D01*
X121544203Y-73248825D01*
X121661163Y-73328741D01*
X121800000Y-73356856D01*
X122700000Y-73356856D01*
X122829702Y-73332451D01*
X122948825Y-73255797D01*
X123028741Y-73138837D01*
X123056856Y-73000000D01*
X123056856Y-72500000D01*
X123032451Y-72370298D01*
X122955797Y-72251175D01*
X122838837Y-72171259D01*
X122725000Y-72148207D01*
X122725000Y-71846752D01*
X124793144Y-69778608D01*
X124793144Y-69850000D01*
X124817549Y-69979702D01*
X124894203Y-70098825D01*
X125011163Y-70178741D01*
X125150000Y-70206856D01*
X126850000Y-70206856D01*
X126979702Y-70182451D01*
X127098825Y-70105797D01*
X127178741Y-69988837D01*
X127206856Y-69850000D01*
X127206856Y-68150000D01*
X127182451Y-68020298D01*
X127105797Y-67901175D01*
X126988837Y-67821259D01*
X126850000Y-67793144D01*
X125150000Y-67793144D01*
X125020298Y-67817549D01*
X124901175Y-67894203D01*
X124821259Y-68011163D01*
X124793144Y-68150000D01*
X124793144Y-68546255D01*
X124718225Y-68561157D01*
X124564124Y-68664124D01*
X121914124Y-71314124D01*
X121811157Y-71468225D01*
X121775000Y-71650000D01*
X121775000Y-72147848D01*
X121670298Y-72167549D01*
X121551175Y-72244203D01*
X121471259Y-72361163D01*
X121443144Y-72500000D01*
X91400000Y-72500000D01*
X91400000Y-67400000D01*
X197100000Y-67400000D01*
X197100000Y-129100000D01*
M02*
