G04 #@! TF.FileFunction,Copper,L1,Top,Signal*
%FSLAX46Y46*%
G04 Gerber Fmt 4.6, Leading zero omitted, Abs format (unit mm)*
G04 Created by KiCad (PCBNEW 4.0.7-e2-6376~58~ubuntu16.04.1) date Mon Jan 15 19:31:07 2018*
%MOMM*%
%LPD*%
G01*
G04 APERTURE LIST*
%ADD10C,0.100000*%
%ADD11R,1.700000X1.700000*%
%ADD12O,1.700000X1.700000*%
%ADD13R,0.900000X0.500000*%
%ADD14C,6.000000*%
%ADD15R,2.030000X1.730000*%
%ADD16O,2.030000X1.730000*%
%ADD17R,0.800000X0.600000*%
%ADD18R,0.500000X0.900000*%
%ADD19C,5.700000*%
%ADD20R,2.000000X3.600000*%
%ADD21O,2.000000X3.600000*%
%ADD22C,1.000000*%
%ADD23C,0.250000*%
%ADD24C,1.000000*%
%ADD25C,0.300000*%
G04 APERTURE END LIST*
D10*
D11*
X126000000Y-69000000D03*
D12*
X126000000Y-74080000D03*
X126000000Y-76620000D03*
X126000000Y-79160000D03*
X126000000Y-81700000D03*
X126000000Y-84240000D03*
X126000000Y-86780000D03*
X126000000Y-89320000D03*
X126000000Y-91860000D03*
X126000000Y-94400000D03*
X126000000Y-96940000D03*
X126000000Y-99480000D03*
X126000000Y-102020000D03*
X126000000Y-104560000D03*
X126000000Y-107100000D03*
X126000000Y-109640000D03*
X126000000Y-112180000D03*
X126000000Y-114720000D03*
X126000000Y-117260000D03*
X126000000Y-119800000D03*
X126000000Y-122340000D03*
X126000000Y-124880000D03*
X126000000Y-127420000D03*
D13*
X122250000Y-72750000D03*
X122250000Y-74250000D03*
D14*
X117500000Y-107000000D03*
X117500000Y-99500000D03*
D15*
X141250000Y-88040000D03*
D16*
X141250000Y-85500000D03*
X141250000Y-82960000D03*
D17*
X132900000Y-81000000D03*
X132900000Y-79300000D03*
D18*
X131400000Y-76750000D03*
X132900000Y-76750000D03*
D19*
X94750000Y-70750000D03*
X163750000Y-70750000D03*
X94750000Y-125750000D03*
X163750000Y-125750000D03*
D20*
X135100000Y-112000000D03*
D21*
X140100000Y-112000000D03*
X145100000Y-112000000D03*
X150100000Y-112000000D03*
X155100000Y-112000000D03*
D20*
X135100000Y-124100000D03*
D21*
X140100000Y-124100000D03*
X145100000Y-124100000D03*
X150100000Y-124100000D03*
X155100000Y-124100000D03*
D22*
X119000000Y-111000000D03*
X117000000Y-111000000D03*
X117000000Y-127000000D03*
X116000000Y-125000000D03*
X116000000Y-121000000D03*
X116000000Y-117000000D03*
X117000000Y-115000000D03*
X118000000Y-117000000D03*
X117000000Y-119000000D03*
X118000000Y-121000000D03*
X117000000Y-123000000D03*
X118000000Y-125000000D03*
X119000000Y-127000000D03*
X120000000Y-125000000D03*
X119000000Y-123000000D03*
X120000000Y-121000000D03*
X119000000Y-119000000D03*
X120000000Y-117000000D03*
X119000000Y-115000000D03*
X120000000Y-113000000D03*
X118000000Y-113000000D03*
X116000000Y-113000000D03*
X129000000Y-101000000D03*
X130000000Y-99000000D03*
X163000000Y-122000000D03*
X163000000Y-120000000D03*
X163000000Y-118000000D03*
X163000000Y-116000000D03*
X163000000Y-114000000D03*
X163000000Y-112000000D03*
X163000000Y-110000000D03*
X163000000Y-108000000D03*
X163000000Y-106000000D03*
X163000000Y-104000000D03*
X161000000Y-101000000D03*
X161000000Y-123000000D03*
X161000000Y-121000000D03*
X161000000Y-119000000D03*
X161000000Y-117000000D03*
X161000000Y-115000000D03*
X161000000Y-113000000D03*
X161000000Y-111000000D03*
X161000000Y-109000000D03*
X161000000Y-107000000D03*
X161000000Y-105000000D03*
X161000000Y-103000000D03*
X158000000Y-99000000D03*
X156000000Y-99000000D03*
X154000000Y-99000000D03*
X152000000Y-99000000D03*
X150000000Y-99000000D03*
X148000000Y-99000000D03*
X146000000Y-99000000D03*
X144000000Y-99000000D03*
X142000000Y-99000000D03*
X140000000Y-99000000D03*
X138000000Y-99000000D03*
X136000000Y-99000000D03*
X134000000Y-99000000D03*
X132000000Y-99000000D03*
X159000000Y-101000000D03*
X157000000Y-101000000D03*
X155000000Y-101000000D03*
X153000000Y-101000000D03*
X151000000Y-101000000D03*
X149000000Y-101000000D03*
X147000000Y-101000000D03*
X145000000Y-101000000D03*
X143000000Y-101000000D03*
X141000000Y-101000000D03*
X139000000Y-101000000D03*
X137000000Y-101000000D03*
X135000000Y-101000000D03*
X133000000Y-101000000D03*
X131000000Y-101000000D03*
X114400000Y-102200000D03*
X114400000Y-96800000D03*
X120800000Y-102200000D03*
X120800000Y-96800000D03*
D23*
X126000000Y-69000000D02*
X124900000Y-69000000D01*
X124900000Y-69000000D02*
X122250000Y-71650000D01*
X122250000Y-71650000D02*
X122250000Y-72250000D01*
X122250000Y-72250000D02*
X122250000Y-72750000D01*
X118000000Y-113000000D02*
X118000000Y-112000000D01*
X118000000Y-112000000D02*
X117000000Y-111000000D01*
X116000000Y-125000000D02*
X116000000Y-126000000D01*
X116000000Y-126000000D02*
X117000000Y-127000000D01*
X116000000Y-117000000D02*
X116000000Y-121000000D01*
X118000000Y-117000000D02*
X118000000Y-116000000D01*
X118000000Y-116000000D02*
X117000000Y-115000000D01*
X118000000Y-121000000D02*
X118000000Y-120000000D01*
X118000000Y-120000000D02*
X117000000Y-119000000D01*
X117000000Y-123000000D02*
X117000000Y-122000000D01*
X117000000Y-122000000D02*
X118000000Y-121000000D01*
X119000000Y-127000000D02*
X119000000Y-126000000D01*
X119000000Y-126000000D02*
X118000000Y-125000000D01*
X119000000Y-123000000D02*
X119000000Y-124000000D01*
X119000000Y-124000000D02*
X120000000Y-125000000D01*
X119000000Y-119000000D02*
X119000000Y-120000000D01*
X119000000Y-120000000D02*
X120000000Y-121000000D01*
X119000000Y-115000000D02*
X119000000Y-116000000D01*
X119000000Y-116000000D02*
X120000000Y-117000000D01*
X118000000Y-113000000D02*
X120000000Y-113000000D01*
X116000000Y-112742640D02*
X116000000Y-113000000D01*
X117500000Y-107000000D02*
X117500000Y-111242640D01*
X117500000Y-111242640D02*
X116000000Y-112742640D01*
X132000000Y-99000000D02*
X130000000Y-99000000D01*
X163000000Y-120000000D02*
X163000000Y-122000000D01*
X163000000Y-116000000D02*
X163000000Y-118000000D01*
X163000000Y-112000000D02*
X163000000Y-114000000D01*
X163000000Y-108000000D02*
X163000000Y-110000000D01*
X163000000Y-104000000D02*
X163000000Y-106000000D01*
X161000000Y-121000000D02*
X161000000Y-123000000D01*
X161000000Y-117000000D02*
X161000000Y-119000000D01*
X161000000Y-115000000D02*
X161000000Y-117000000D01*
X161000000Y-111000000D02*
X161000000Y-113000000D01*
X161000000Y-107000000D02*
X161000000Y-109000000D01*
X161000000Y-103000000D02*
X161000000Y-105000000D01*
X156000000Y-99000000D02*
X158000000Y-99000000D01*
X152000000Y-99000000D02*
X154000000Y-99000000D01*
X148000000Y-99000000D02*
X150000000Y-99000000D01*
X142000000Y-99000000D02*
X144000000Y-99000000D01*
X138000000Y-99000000D02*
X140000000Y-99000000D01*
X134000000Y-99000000D02*
X136000000Y-99000000D01*
X131000000Y-101000000D02*
X131000000Y-100000000D01*
X131000000Y-100000000D02*
X132000000Y-99000000D01*
X157000000Y-101000000D02*
X159000000Y-101000000D01*
X153000000Y-101000000D02*
X155000000Y-101000000D01*
X149000000Y-101000000D02*
X151000000Y-101000000D01*
X145000000Y-101000000D02*
X147000000Y-101000000D01*
X141000000Y-101000000D02*
X143000000Y-101000000D01*
X137000000Y-101000000D02*
X139000000Y-101000000D01*
X133000000Y-101000000D02*
X135000000Y-101000000D01*
X131000000Y-101000000D02*
X133000000Y-101000000D01*
X132900000Y-82000000D02*
X128240000Y-82000000D01*
X128240000Y-82000000D02*
X126000000Y-84240000D01*
X132900000Y-81000000D02*
X132900000Y-82000000D01*
X131400000Y-76750000D02*
X126130000Y-76750000D01*
X126130000Y-76750000D02*
X126000000Y-76620000D01*
X122250000Y-74250000D02*
X122250000Y-75410000D01*
X122250000Y-75410000D02*
X126000000Y-79160000D01*
X117500000Y-99500000D02*
X117100000Y-99500000D01*
X117100000Y-99500000D02*
X114400000Y-102200000D01*
X117500000Y-99500000D02*
X118100000Y-99500000D01*
X118300000Y-99700000D02*
X120800000Y-102200000D01*
X141250000Y-85500000D02*
X137440000Y-85500000D01*
X137440000Y-85500000D02*
X126000000Y-96940000D01*
D24*
X125980000Y-99500000D02*
X126000000Y-99480000D01*
D23*
X132900000Y-76750000D02*
X132900000Y-77450000D01*
X132900000Y-77450000D02*
X132900000Y-79300000D01*
D25*
G36*
X126950000Y-102950000D02*
X124800000Y-102950000D01*
X124636444Y-102980775D01*
X124528866Y-103050000D01*
X113850000Y-103050000D01*
X113850000Y-95850000D01*
X126950000Y-95850000D01*
X126950000Y-102950000D01*
X126950000Y-102950000D01*
G37*
X126950000Y-102950000D02*
X124800000Y-102950000D01*
X124636444Y-102980775D01*
X124528866Y-103050000D01*
X113850000Y-103050000D01*
X113850000Y-95850000D01*
X126950000Y-95850000D01*
X126950000Y-102950000D01*
G36*
X113700000Y-103650000D02*
X124350000Y-103650000D01*
X124350000Y-107600000D01*
X124383075Y-107769332D01*
X124481802Y-107918198D01*
X125281802Y-108718198D01*
X125424925Y-108814546D01*
X125600000Y-108850000D01*
X126413604Y-108850000D01*
X126750000Y-109186396D01*
X126750000Y-110013604D01*
X126313604Y-110450000D01*
X125600000Y-110450000D01*
X125430668Y-110483075D01*
X125281802Y-110581802D01*
X124481802Y-111381802D01*
X124385454Y-111524925D01*
X124350000Y-111700000D01*
X124350000Y-112600000D01*
X124383075Y-112769332D01*
X124481802Y-112918198D01*
X125381802Y-113818198D01*
X125524925Y-113914546D01*
X125700000Y-113950000D01*
X126413604Y-113950000D01*
X126750000Y-114286396D01*
X126750000Y-115113604D01*
X126313604Y-115550000D01*
X125600000Y-115550000D01*
X125430668Y-115583075D01*
X125281802Y-115681802D01*
X124481802Y-116481802D01*
X124385454Y-116624925D01*
X124350000Y-116800000D01*
X124350000Y-117700000D01*
X124383075Y-117869332D01*
X124481802Y-118018198D01*
X125281802Y-118818198D01*
X125424925Y-118914546D01*
X125600000Y-118950000D01*
X126313604Y-118950000D01*
X126750000Y-119386396D01*
X126750000Y-120213604D01*
X126313604Y-120650000D01*
X125500000Y-120650000D01*
X125330668Y-120683075D01*
X125181802Y-120781802D01*
X124481802Y-121481802D01*
X124385454Y-121624925D01*
X124350000Y-121800000D01*
X124350000Y-122800000D01*
X124383075Y-122969332D01*
X124481802Y-123118198D01*
X125281802Y-123918198D01*
X125424925Y-124014546D01*
X125600000Y-124050000D01*
X126313604Y-124050000D01*
X126750000Y-124486396D01*
X126750000Y-125313604D01*
X126313604Y-125750000D01*
X125600000Y-125750000D01*
X125430668Y-125783075D01*
X125281802Y-125881802D01*
X124381802Y-126781802D01*
X124285454Y-126924925D01*
X124250000Y-127100000D01*
X124250000Y-129050000D01*
X91450000Y-129050000D01*
X91450000Y-114650000D01*
X113500000Y-114650000D01*
X113554519Y-114639742D01*
X113604591Y-114607521D01*
X113638182Y-114558358D01*
X113650000Y-114500000D01*
X113650000Y-103639875D01*
X113700000Y-103650000D01*
X113700000Y-103650000D01*
G37*
X113700000Y-103650000D02*
X124350000Y-103650000D01*
X124350000Y-107600000D01*
X124383075Y-107769332D01*
X124481802Y-107918198D01*
X125281802Y-108718198D01*
X125424925Y-108814546D01*
X125600000Y-108850000D01*
X126413604Y-108850000D01*
X126750000Y-109186396D01*
X126750000Y-110013604D01*
X126313604Y-110450000D01*
X125600000Y-110450000D01*
X125430668Y-110483075D01*
X125281802Y-110581802D01*
X124481802Y-111381802D01*
X124385454Y-111524925D01*
X124350000Y-111700000D01*
X124350000Y-112600000D01*
X124383075Y-112769332D01*
X124481802Y-112918198D01*
X125381802Y-113818198D01*
X125524925Y-113914546D01*
X125700000Y-113950000D01*
X126413604Y-113950000D01*
X126750000Y-114286396D01*
X126750000Y-115113604D01*
X126313604Y-115550000D01*
X125600000Y-115550000D01*
X125430668Y-115583075D01*
X125281802Y-115681802D01*
X124481802Y-116481802D01*
X124385454Y-116624925D01*
X124350000Y-116800000D01*
X124350000Y-117700000D01*
X124383075Y-117869332D01*
X124481802Y-118018198D01*
X125281802Y-118818198D01*
X125424925Y-118914546D01*
X125600000Y-118950000D01*
X126313604Y-118950000D01*
X126750000Y-119386396D01*
X126750000Y-120213604D01*
X126313604Y-120650000D01*
X125500000Y-120650000D01*
X125330668Y-120683075D01*
X125181802Y-120781802D01*
X124481802Y-121481802D01*
X124385454Y-121624925D01*
X124350000Y-121800000D01*
X124350000Y-122800000D01*
X124383075Y-122969332D01*
X124481802Y-123118198D01*
X125281802Y-123918198D01*
X125424925Y-124014546D01*
X125600000Y-124050000D01*
X126313604Y-124050000D01*
X126750000Y-124486396D01*
X126750000Y-125313604D01*
X126313604Y-125750000D01*
X125600000Y-125750000D01*
X125430668Y-125783075D01*
X125281802Y-125881802D01*
X124381802Y-126781802D01*
X124285454Y-126924925D01*
X124250000Y-127100000D01*
X124250000Y-129050000D01*
X91450000Y-129050000D01*
X91450000Y-114650000D01*
X113500000Y-114650000D01*
X113554519Y-114639742D01*
X113604591Y-114607521D01*
X113638182Y-114558358D01*
X113650000Y-114500000D01*
X113650000Y-103639875D01*
X113700000Y-103650000D01*
G36*
X167050000Y-129050000D02*
X158550000Y-129050000D01*
X158550000Y-103400000D01*
X158519225Y-103236444D01*
X158422563Y-103086228D01*
X158275075Y-102985454D01*
X158100000Y-102950000D01*
X127550000Y-102950000D01*
X127550000Y-96203172D01*
X137678173Y-86075000D01*
X139904353Y-86075000D01*
X140141454Y-86429845D01*
X140568070Y-86714902D01*
X140744520Y-86750000D01*
X139900000Y-86750000D01*
X139845481Y-86760258D01*
X139795409Y-86792479D01*
X139761818Y-86841642D01*
X139750000Y-86900000D01*
X139750000Y-89200000D01*
X139760258Y-89254519D01*
X139792479Y-89304591D01*
X139841642Y-89338182D01*
X139900000Y-89350000D01*
X142600000Y-89350000D01*
X142654519Y-89339742D01*
X142704591Y-89307521D01*
X142738182Y-89258358D01*
X142750000Y-89200000D01*
X142750000Y-86900000D01*
X142739742Y-86845481D01*
X142707521Y-86795409D01*
X142658358Y-86761818D01*
X142600000Y-86750000D01*
X141755480Y-86750000D01*
X141931930Y-86714902D01*
X142358546Y-86429845D01*
X142643603Y-86003229D01*
X142743701Y-85500000D01*
X142643603Y-84996771D01*
X142358546Y-84570155D01*
X141931930Y-84285098D01*
X141654932Y-84230000D01*
X141931930Y-84174902D01*
X142358546Y-83889845D01*
X142643603Y-83463229D01*
X142743701Y-82960000D01*
X142643603Y-82456771D01*
X142358546Y-82030155D01*
X141931930Y-81745098D01*
X141428701Y-81645000D01*
X141071299Y-81645000D01*
X140568070Y-81745098D01*
X140141454Y-82030155D01*
X139856397Y-82456771D01*
X139756299Y-82960000D01*
X139856397Y-83463229D01*
X140141454Y-83889845D01*
X140568070Y-84174902D01*
X140845068Y-84230000D01*
X140568070Y-84285098D01*
X140141454Y-84570155D01*
X139904353Y-84925000D01*
X137440000Y-84925000D01*
X137219957Y-84968769D01*
X137033413Y-85093414D01*
X127220818Y-94906010D01*
X127226512Y-94897488D01*
X127325469Y-94400000D01*
X127226512Y-93902512D01*
X126944708Y-93480761D01*
X126522957Y-93198957D01*
X126176288Y-93130000D01*
X126522957Y-93061043D01*
X126944708Y-92779239D01*
X127226512Y-92357488D01*
X127325469Y-91860000D01*
X127226512Y-91362512D01*
X126944708Y-90940761D01*
X126522957Y-90658957D01*
X126176288Y-90590000D01*
X126522957Y-90521043D01*
X126944708Y-90239239D01*
X127226512Y-89817488D01*
X127325469Y-89320000D01*
X127226512Y-88822512D01*
X126944708Y-88400761D01*
X126522957Y-88118957D01*
X126025469Y-88020000D01*
X125974531Y-88020000D01*
X125477043Y-88118957D01*
X125055292Y-88400761D01*
X124773488Y-88822512D01*
X124674531Y-89320000D01*
X124773488Y-89817488D01*
X125055292Y-90239239D01*
X125477043Y-90521043D01*
X125823712Y-90590000D01*
X125477043Y-90658957D01*
X125055292Y-90940761D01*
X124773488Y-91362512D01*
X124674531Y-91860000D01*
X124773488Y-92357488D01*
X125055292Y-92779239D01*
X125477043Y-93061043D01*
X125823712Y-93130000D01*
X125477043Y-93198957D01*
X125055292Y-93480761D01*
X124773488Y-93902512D01*
X124674531Y-94400000D01*
X124773488Y-94897488D01*
X125009028Y-95250000D01*
X113700000Y-95250000D01*
X113650000Y-95259408D01*
X113650000Y-92000000D01*
X113639742Y-91945481D01*
X113607521Y-91895409D01*
X113558358Y-91861818D01*
X113500000Y-91850000D01*
X91450000Y-91850000D01*
X91450000Y-74000000D01*
X121341184Y-74000000D01*
X121341184Y-74500000D01*
X121372562Y-74666760D01*
X121471117Y-74819919D01*
X121621495Y-74922668D01*
X121675000Y-74933503D01*
X121675000Y-75410000D01*
X121718769Y-75630043D01*
X121843414Y-75816586D01*
X124759527Y-78732699D01*
X124674531Y-79160000D01*
X124773488Y-79657488D01*
X125055292Y-80079239D01*
X125477043Y-80361043D01*
X125823712Y-80430000D01*
X125477043Y-80498957D01*
X125055292Y-80780761D01*
X124773488Y-81202512D01*
X124674531Y-81700000D01*
X124773488Y-82197488D01*
X125055292Y-82619239D01*
X125477043Y-82901043D01*
X125974531Y-83000000D01*
X126025469Y-83000000D01*
X126522957Y-82901043D01*
X126944708Y-82619239D01*
X127226512Y-82197488D01*
X127325469Y-81700000D01*
X127226512Y-81202512D01*
X126944708Y-80780761D01*
X126522957Y-80498957D01*
X126176288Y-80430000D01*
X126213103Y-80422677D01*
X132050000Y-80422677D01*
X132050000Y-81622677D01*
X132060258Y-81677196D01*
X132092479Y-81727268D01*
X132141642Y-81760859D01*
X132200000Y-81772677D01*
X133600000Y-81772677D01*
X133654519Y-81762419D01*
X133704591Y-81730198D01*
X133738182Y-81681035D01*
X133750000Y-81622677D01*
X133750000Y-80422677D01*
X133739742Y-80368158D01*
X133707521Y-80318086D01*
X133658358Y-80284495D01*
X133600000Y-80272677D01*
X132200000Y-80272677D01*
X132145481Y-80282935D01*
X132095409Y-80315156D01*
X132061818Y-80364319D01*
X132050000Y-80422677D01*
X126213103Y-80422677D01*
X126522957Y-80361043D01*
X126944708Y-80079239D01*
X127226512Y-79657488D01*
X127325469Y-79160000D01*
X127293643Y-79000000D01*
X132041184Y-79000000D01*
X132041184Y-79600000D01*
X132072562Y-79766760D01*
X132171117Y-79919919D01*
X132321495Y-80022668D01*
X132500000Y-80058816D01*
X133300000Y-80058816D01*
X133466760Y-80027438D01*
X133619919Y-79928883D01*
X133722668Y-79778505D01*
X133758816Y-79600000D01*
X133758816Y-79000000D01*
X133727438Y-78833240D01*
X133628883Y-78680081D01*
X133478505Y-78577332D01*
X133475000Y-78576622D01*
X133475000Y-77521447D01*
X133572668Y-77378505D01*
X133608816Y-77200000D01*
X133608816Y-76300000D01*
X133577438Y-76133240D01*
X133478883Y-75980081D01*
X133328505Y-75877332D01*
X133150000Y-75841184D01*
X132650000Y-75841184D01*
X132483240Y-75872562D01*
X132330081Y-75971117D01*
X132227332Y-76121495D01*
X132191184Y-76300000D01*
X132191184Y-77200000D01*
X132222562Y-77366760D01*
X132321117Y-77519919D01*
X132325000Y-77522572D01*
X132325000Y-78577864D01*
X132180081Y-78671117D01*
X132077332Y-78821495D01*
X132041184Y-79000000D01*
X127293643Y-79000000D01*
X127226512Y-78662512D01*
X126944708Y-78240761D01*
X126522957Y-77958957D01*
X126176288Y-77890000D01*
X126522957Y-77821043D01*
X126944708Y-77539239D01*
X127087857Y-77325000D01*
X130714704Y-77325000D01*
X130722562Y-77366760D01*
X130821117Y-77519919D01*
X130971495Y-77622668D01*
X131150000Y-77658816D01*
X131650000Y-77658816D01*
X131816760Y-77627438D01*
X131969919Y-77528883D01*
X132072668Y-77378505D01*
X132108816Y-77200000D01*
X132108816Y-76300000D01*
X132077438Y-76133240D01*
X131978883Y-75980081D01*
X131828505Y-75877332D01*
X131650000Y-75841184D01*
X131150000Y-75841184D01*
X130983240Y-75872562D01*
X130830081Y-75971117D01*
X130727332Y-76121495D01*
X130716497Y-76175000D01*
X127236953Y-76175000D01*
X127226512Y-76122512D01*
X126944708Y-75700761D01*
X126522957Y-75418957D01*
X126025469Y-75320000D01*
X125974531Y-75320000D01*
X125477043Y-75418957D01*
X125055292Y-75700761D01*
X124773488Y-76122512D01*
X124674531Y-76620000D01*
X124773488Y-77117488D01*
X124779183Y-77126011D01*
X122825000Y-75171828D01*
X122825000Y-74935296D01*
X122866760Y-74927438D01*
X123019919Y-74828883D01*
X123122668Y-74678505D01*
X123158816Y-74500000D01*
X123158816Y-74000000D01*
X123127438Y-73833240D01*
X123028883Y-73680081D01*
X122878505Y-73577332D01*
X122700000Y-73541184D01*
X121800000Y-73541184D01*
X121633240Y-73572562D01*
X121480081Y-73671117D01*
X121377332Y-73821495D01*
X121341184Y-74000000D01*
X91450000Y-74000000D01*
X91450000Y-72500000D01*
X121341184Y-72500000D01*
X121341184Y-73000000D01*
X121372562Y-73166760D01*
X121471117Y-73319919D01*
X121621495Y-73422668D01*
X121800000Y-73458816D01*
X122700000Y-73458816D01*
X122866760Y-73427438D01*
X123019919Y-73328883D01*
X123122668Y-73178505D01*
X123158816Y-73000000D01*
X123158816Y-72500000D01*
X123127438Y-72333240D01*
X123028883Y-72180081D01*
X122878505Y-72077332D01*
X122825000Y-72066497D01*
X122825000Y-71888172D01*
X124718421Y-69994751D01*
X124722562Y-70016760D01*
X124821117Y-70169919D01*
X124971495Y-70272668D01*
X125150000Y-70308816D01*
X126850000Y-70308816D01*
X127016760Y-70277438D01*
X127169919Y-70178883D01*
X127272668Y-70028505D01*
X127308816Y-69850000D01*
X127308816Y-68150000D01*
X127277438Y-67983240D01*
X127178883Y-67830081D01*
X127028505Y-67727332D01*
X126850000Y-67691184D01*
X125150000Y-67691184D01*
X124983240Y-67722562D01*
X124830081Y-67821117D01*
X124727332Y-67971495D01*
X124691184Y-68150000D01*
X124691184Y-68466536D01*
X124679957Y-68468769D01*
X124493414Y-68593414D01*
X121843414Y-71243414D01*
X121718769Y-71429957D01*
X121675000Y-71650000D01*
X121675000Y-72064704D01*
X121633240Y-72072562D01*
X121480081Y-72171117D01*
X121377332Y-72321495D01*
X121341184Y-72500000D01*
X91450000Y-72500000D01*
X91450000Y-67450000D01*
X167050000Y-67450000D01*
X167050000Y-129050000D01*
X167050000Y-129050000D01*
G37*
X167050000Y-129050000D02*
X158550000Y-129050000D01*
X158550000Y-103400000D01*
X158519225Y-103236444D01*
X158422563Y-103086228D01*
X158275075Y-102985454D01*
X158100000Y-102950000D01*
X127550000Y-102950000D01*
X127550000Y-96203172D01*
X137678173Y-86075000D01*
X139904353Y-86075000D01*
X140141454Y-86429845D01*
X140568070Y-86714902D01*
X140744520Y-86750000D01*
X139900000Y-86750000D01*
X139845481Y-86760258D01*
X139795409Y-86792479D01*
X139761818Y-86841642D01*
X139750000Y-86900000D01*
X139750000Y-89200000D01*
X139760258Y-89254519D01*
X139792479Y-89304591D01*
X139841642Y-89338182D01*
X139900000Y-89350000D01*
X142600000Y-89350000D01*
X142654519Y-89339742D01*
X142704591Y-89307521D01*
X142738182Y-89258358D01*
X142750000Y-89200000D01*
X142750000Y-86900000D01*
X142739742Y-86845481D01*
X142707521Y-86795409D01*
X142658358Y-86761818D01*
X142600000Y-86750000D01*
X141755480Y-86750000D01*
X141931930Y-86714902D01*
X142358546Y-86429845D01*
X142643603Y-86003229D01*
X142743701Y-85500000D01*
X142643603Y-84996771D01*
X142358546Y-84570155D01*
X141931930Y-84285098D01*
X141654932Y-84230000D01*
X141931930Y-84174902D01*
X142358546Y-83889845D01*
X142643603Y-83463229D01*
X142743701Y-82960000D01*
X142643603Y-82456771D01*
X142358546Y-82030155D01*
X141931930Y-81745098D01*
X141428701Y-81645000D01*
X141071299Y-81645000D01*
X140568070Y-81745098D01*
X140141454Y-82030155D01*
X139856397Y-82456771D01*
X139756299Y-82960000D01*
X139856397Y-83463229D01*
X140141454Y-83889845D01*
X140568070Y-84174902D01*
X140845068Y-84230000D01*
X140568070Y-84285098D01*
X140141454Y-84570155D01*
X139904353Y-84925000D01*
X137440000Y-84925000D01*
X137219957Y-84968769D01*
X137033413Y-85093414D01*
X127220818Y-94906010D01*
X127226512Y-94897488D01*
X127325469Y-94400000D01*
X127226512Y-93902512D01*
X126944708Y-93480761D01*
X126522957Y-93198957D01*
X126176288Y-93130000D01*
X126522957Y-93061043D01*
X126944708Y-92779239D01*
X127226512Y-92357488D01*
X127325469Y-91860000D01*
X127226512Y-91362512D01*
X126944708Y-90940761D01*
X126522957Y-90658957D01*
X126176288Y-90590000D01*
X126522957Y-90521043D01*
X126944708Y-90239239D01*
X127226512Y-89817488D01*
X127325469Y-89320000D01*
X127226512Y-88822512D01*
X126944708Y-88400761D01*
X126522957Y-88118957D01*
X126025469Y-88020000D01*
X125974531Y-88020000D01*
X125477043Y-88118957D01*
X125055292Y-88400761D01*
X124773488Y-88822512D01*
X124674531Y-89320000D01*
X124773488Y-89817488D01*
X125055292Y-90239239D01*
X125477043Y-90521043D01*
X125823712Y-90590000D01*
X125477043Y-90658957D01*
X125055292Y-90940761D01*
X124773488Y-91362512D01*
X124674531Y-91860000D01*
X124773488Y-92357488D01*
X125055292Y-92779239D01*
X125477043Y-93061043D01*
X125823712Y-93130000D01*
X125477043Y-93198957D01*
X125055292Y-93480761D01*
X124773488Y-93902512D01*
X124674531Y-94400000D01*
X124773488Y-94897488D01*
X125009028Y-95250000D01*
X113700000Y-95250000D01*
X113650000Y-95259408D01*
X113650000Y-92000000D01*
X113639742Y-91945481D01*
X113607521Y-91895409D01*
X113558358Y-91861818D01*
X113500000Y-91850000D01*
X91450000Y-91850000D01*
X91450000Y-74000000D01*
X121341184Y-74000000D01*
X121341184Y-74500000D01*
X121372562Y-74666760D01*
X121471117Y-74819919D01*
X121621495Y-74922668D01*
X121675000Y-74933503D01*
X121675000Y-75410000D01*
X121718769Y-75630043D01*
X121843414Y-75816586D01*
X124759527Y-78732699D01*
X124674531Y-79160000D01*
X124773488Y-79657488D01*
X125055292Y-80079239D01*
X125477043Y-80361043D01*
X125823712Y-80430000D01*
X125477043Y-80498957D01*
X125055292Y-80780761D01*
X124773488Y-81202512D01*
X124674531Y-81700000D01*
X124773488Y-82197488D01*
X125055292Y-82619239D01*
X125477043Y-82901043D01*
X125974531Y-83000000D01*
X126025469Y-83000000D01*
X126522957Y-82901043D01*
X126944708Y-82619239D01*
X127226512Y-82197488D01*
X127325469Y-81700000D01*
X127226512Y-81202512D01*
X126944708Y-80780761D01*
X126522957Y-80498957D01*
X126176288Y-80430000D01*
X126213103Y-80422677D01*
X132050000Y-80422677D01*
X132050000Y-81622677D01*
X132060258Y-81677196D01*
X132092479Y-81727268D01*
X132141642Y-81760859D01*
X132200000Y-81772677D01*
X133600000Y-81772677D01*
X133654519Y-81762419D01*
X133704591Y-81730198D01*
X133738182Y-81681035D01*
X133750000Y-81622677D01*
X133750000Y-80422677D01*
X133739742Y-80368158D01*
X133707521Y-80318086D01*
X133658358Y-80284495D01*
X133600000Y-80272677D01*
X132200000Y-80272677D01*
X132145481Y-80282935D01*
X132095409Y-80315156D01*
X132061818Y-80364319D01*
X132050000Y-80422677D01*
X126213103Y-80422677D01*
X126522957Y-80361043D01*
X126944708Y-80079239D01*
X127226512Y-79657488D01*
X127325469Y-79160000D01*
X127293643Y-79000000D01*
X132041184Y-79000000D01*
X132041184Y-79600000D01*
X132072562Y-79766760D01*
X132171117Y-79919919D01*
X132321495Y-80022668D01*
X132500000Y-80058816D01*
X133300000Y-80058816D01*
X133466760Y-80027438D01*
X133619919Y-79928883D01*
X133722668Y-79778505D01*
X133758816Y-79600000D01*
X133758816Y-79000000D01*
X133727438Y-78833240D01*
X133628883Y-78680081D01*
X133478505Y-78577332D01*
X133475000Y-78576622D01*
X133475000Y-77521447D01*
X133572668Y-77378505D01*
X133608816Y-77200000D01*
X133608816Y-76300000D01*
X133577438Y-76133240D01*
X133478883Y-75980081D01*
X133328505Y-75877332D01*
X133150000Y-75841184D01*
X132650000Y-75841184D01*
X132483240Y-75872562D01*
X132330081Y-75971117D01*
X132227332Y-76121495D01*
X132191184Y-76300000D01*
X132191184Y-77200000D01*
X132222562Y-77366760D01*
X132321117Y-77519919D01*
X132325000Y-77522572D01*
X132325000Y-78577864D01*
X132180081Y-78671117D01*
X132077332Y-78821495D01*
X132041184Y-79000000D01*
X127293643Y-79000000D01*
X127226512Y-78662512D01*
X126944708Y-78240761D01*
X126522957Y-77958957D01*
X126176288Y-77890000D01*
X126522957Y-77821043D01*
X126944708Y-77539239D01*
X127087857Y-77325000D01*
X130714704Y-77325000D01*
X130722562Y-77366760D01*
X130821117Y-77519919D01*
X130971495Y-77622668D01*
X131150000Y-77658816D01*
X131650000Y-77658816D01*
X131816760Y-77627438D01*
X131969919Y-77528883D01*
X132072668Y-77378505D01*
X132108816Y-77200000D01*
X132108816Y-76300000D01*
X132077438Y-76133240D01*
X131978883Y-75980081D01*
X131828505Y-75877332D01*
X131650000Y-75841184D01*
X131150000Y-75841184D01*
X130983240Y-75872562D01*
X130830081Y-75971117D01*
X130727332Y-76121495D01*
X130716497Y-76175000D01*
X127236953Y-76175000D01*
X127226512Y-76122512D01*
X126944708Y-75700761D01*
X126522957Y-75418957D01*
X126025469Y-75320000D01*
X125974531Y-75320000D01*
X125477043Y-75418957D01*
X125055292Y-75700761D01*
X124773488Y-76122512D01*
X124674531Y-76620000D01*
X124773488Y-77117488D01*
X124779183Y-77126011D01*
X122825000Y-75171828D01*
X122825000Y-74935296D01*
X122866760Y-74927438D01*
X123019919Y-74828883D01*
X123122668Y-74678505D01*
X123158816Y-74500000D01*
X123158816Y-74000000D01*
X123127438Y-73833240D01*
X123028883Y-73680081D01*
X122878505Y-73577332D01*
X122700000Y-73541184D01*
X121800000Y-73541184D01*
X121633240Y-73572562D01*
X121480081Y-73671117D01*
X121377332Y-73821495D01*
X121341184Y-74000000D01*
X91450000Y-74000000D01*
X91450000Y-72500000D01*
X121341184Y-72500000D01*
X121341184Y-73000000D01*
X121372562Y-73166760D01*
X121471117Y-73319919D01*
X121621495Y-73422668D01*
X121800000Y-73458816D01*
X122700000Y-73458816D01*
X122866760Y-73427438D01*
X123019919Y-73328883D01*
X123122668Y-73178505D01*
X123158816Y-73000000D01*
X123158816Y-72500000D01*
X123127438Y-72333240D01*
X123028883Y-72180081D01*
X122878505Y-72077332D01*
X122825000Y-72066497D01*
X122825000Y-71888172D01*
X124718421Y-69994751D01*
X124722562Y-70016760D01*
X124821117Y-70169919D01*
X124971495Y-70272668D01*
X125150000Y-70308816D01*
X126850000Y-70308816D01*
X127016760Y-70277438D01*
X127169919Y-70178883D01*
X127272668Y-70028505D01*
X127308816Y-69850000D01*
X127308816Y-68150000D01*
X127277438Y-67983240D01*
X127178883Y-67830081D01*
X127028505Y-67727332D01*
X126850000Y-67691184D01*
X125150000Y-67691184D01*
X124983240Y-67722562D01*
X124830081Y-67821117D01*
X124727332Y-67971495D01*
X124691184Y-68150000D01*
X124691184Y-68466536D01*
X124679957Y-68468769D01*
X124493414Y-68593414D01*
X121843414Y-71243414D01*
X121718769Y-71429957D01*
X121675000Y-71650000D01*
X121675000Y-72064704D01*
X121633240Y-72072562D01*
X121480081Y-72171117D01*
X121377332Y-72321495D01*
X121341184Y-72500000D01*
X91450000Y-72500000D01*
X91450000Y-67450000D01*
X167050000Y-67450000D01*
X167050000Y-129050000D01*
G36*
X157950000Y-129050000D02*
X124850000Y-129050000D01*
X124850000Y-127162132D01*
X125662132Y-126350000D01*
X126500000Y-126350000D01*
X126558358Y-126338182D01*
X126606066Y-126306066D01*
X127306066Y-125606066D01*
X127338975Y-125556444D01*
X127350000Y-125500000D01*
X127350000Y-124300000D01*
X127338182Y-124241642D01*
X127306066Y-124193934D01*
X126606066Y-123493934D01*
X126556444Y-123461025D01*
X126500000Y-123450000D01*
X125662132Y-123450000D01*
X124950000Y-122737868D01*
X124950000Y-122300000D01*
X133641184Y-122300000D01*
X133641184Y-125900000D01*
X133672562Y-126066760D01*
X133771117Y-126219919D01*
X133921495Y-126322668D01*
X134100000Y-126358816D01*
X136100000Y-126358816D01*
X136266760Y-126327438D01*
X136419919Y-126228883D01*
X136522668Y-126078505D01*
X136558816Y-125900000D01*
X136558816Y-123255920D01*
X138650000Y-123255920D01*
X138650000Y-124944080D01*
X138760375Y-125498971D01*
X139074695Y-125969385D01*
X139545109Y-126283705D01*
X140100000Y-126394080D01*
X140654891Y-126283705D01*
X141125305Y-125969385D01*
X141439625Y-125498971D01*
X141550000Y-124944080D01*
X141550000Y-123255920D01*
X143650000Y-123255920D01*
X143650000Y-124944080D01*
X143760375Y-125498971D01*
X144074695Y-125969385D01*
X144545109Y-126283705D01*
X145100000Y-126394080D01*
X145654891Y-126283705D01*
X146125305Y-125969385D01*
X146439625Y-125498971D01*
X146550000Y-124944080D01*
X146550000Y-123255920D01*
X148650000Y-123255920D01*
X148650000Y-124944080D01*
X148760375Y-125498971D01*
X149074695Y-125969385D01*
X149545109Y-126283705D01*
X150100000Y-126394080D01*
X150654891Y-126283705D01*
X151125305Y-125969385D01*
X151439625Y-125498971D01*
X151550000Y-124944080D01*
X151550000Y-123255920D01*
X153650000Y-123255920D01*
X153650000Y-124944080D01*
X153760375Y-125498971D01*
X154074695Y-125969385D01*
X154545109Y-126283705D01*
X155100000Y-126394080D01*
X155654891Y-126283705D01*
X156125305Y-125969385D01*
X156439625Y-125498971D01*
X156550000Y-124944080D01*
X156550000Y-123255920D01*
X156439625Y-122701029D01*
X156125305Y-122230615D01*
X155654891Y-121916295D01*
X155100000Y-121805920D01*
X154545109Y-121916295D01*
X154074695Y-122230615D01*
X153760375Y-122701029D01*
X153650000Y-123255920D01*
X151550000Y-123255920D01*
X151439625Y-122701029D01*
X151125305Y-122230615D01*
X150654891Y-121916295D01*
X150100000Y-121805920D01*
X149545109Y-121916295D01*
X149074695Y-122230615D01*
X148760375Y-122701029D01*
X148650000Y-123255920D01*
X146550000Y-123255920D01*
X146439625Y-122701029D01*
X146125305Y-122230615D01*
X145654891Y-121916295D01*
X145100000Y-121805920D01*
X144545109Y-121916295D01*
X144074695Y-122230615D01*
X143760375Y-122701029D01*
X143650000Y-123255920D01*
X141550000Y-123255920D01*
X141439625Y-122701029D01*
X141125305Y-122230615D01*
X140654891Y-121916295D01*
X140100000Y-121805920D01*
X139545109Y-121916295D01*
X139074695Y-122230615D01*
X138760375Y-122701029D01*
X138650000Y-123255920D01*
X136558816Y-123255920D01*
X136558816Y-122300000D01*
X136527438Y-122133240D01*
X136428883Y-121980081D01*
X136278505Y-121877332D01*
X136100000Y-121841184D01*
X134100000Y-121841184D01*
X133933240Y-121872562D01*
X133780081Y-121971117D01*
X133677332Y-122121495D01*
X133641184Y-122300000D01*
X124950000Y-122300000D01*
X124950000Y-121862132D01*
X125562132Y-121250000D01*
X126500000Y-121250000D01*
X126558358Y-121238182D01*
X126606066Y-121206066D01*
X127306066Y-120506066D01*
X127338975Y-120456444D01*
X127350000Y-120400000D01*
X127350000Y-119200000D01*
X127338182Y-119141642D01*
X127306066Y-119093934D01*
X126606066Y-118393934D01*
X126556444Y-118361025D01*
X126500000Y-118350000D01*
X125662132Y-118350000D01*
X124950000Y-117637868D01*
X124950000Y-116862132D01*
X125662132Y-116150000D01*
X126500000Y-116150000D01*
X126558358Y-116138182D01*
X126606066Y-116106066D01*
X127306066Y-115406066D01*
X127338975Y-115356444D01*
X127350000Y-115300000D01*
X127350000Y-114100000D01*
X127338182Y-114041642D01*
X127306066Y-113993934D01*
X126706066Y-113393934D01*
X126656444Y-113361025D01*
X126600000Y-113350000D01*
X125762132Y-113350000D01*
X124950000Y-112537868D01*
X124950000Y-111762132D01*
X125662132Y-111050000D01*
X126500000Y-111050000D01*
X126558358Y-111038182D01*
X126606066Y-111006066D01*
X127306066Y-110306066D01*
X127338975Y-110256444D01*
X127350000Y-110200000D01*
X127350000Y-109000000D01*
X127338182Y-108941642D01*
X127306066Y-108893934D01*
X126706066Y-108293934D01*
X126656444Y-108261025D01*
X126600000Y-108250000D01*
X125662132Y-108250000D01*
X124950000Y-107537868D01*
X124950000Y-103550000D01*
X157950000Y-103550000D01*
X157950000Y-129050000D01*
X157950000Y-129050000D01*
G37*
X157950000Y-129050000D02*
X124850000Y-129050000D01*
X124850000Y-127162132D01*
X125662132Y-126350000D01*
X126500000Y-126350000D01*
X126558358Y-126338182D01*
X126606066Y-126306066D01*
X127306066Y-125606066D01*
X127338975Y-125556444D01*
X127350000Y-125500000D01*
X127350000Y-124300000D01*
X127338182Y-124241642D01*
X127306066Y-124193934D01*
X126606066Y-123493934D01*
X126556444Y-123461025D01*
X126500000Y-123450000D01*
X125662132Y-123450000D01*
X124950000Y-122737868D01*
X124950000Y-122300000D01*
X133641184Y-122300000D01*
X133641184Y-125900000D01*
X133672562Y-126066760D01*
X133771117Y-126219919D01*
X133921495Y-126322668D01*
X134100000Y-126358816D01*
X136100000Y-126358816D01*
X136266760Y-126327438D01*
X136419919Y-126228883D01*
X136522668Y-126078505D01*
X136558816Y-125900000D01*
X136558816Y-123255920D01*
X138650000Y-123255920D01*
X138650000Y-124944080D01*
X138760375Y-125498971D01*
X139074695Y-125969385D01*
X139545109Y-126283705D01*
X140100000Y-126394080D01*
X140654891Y-126283705D01*
X141125305Y-125969385D01*
X141439625Y-125498971D01*
X141550000Y-124944080D01*
X141550000Y-123255920D01*
X143650000Y-123255920D01*
X143650000Y-124944080D01*
X143760375Y-125498971D01*
X144074695Y-125969385D01*
X144545109Y-126283705D01*
X145100000Y-126394080D01*
X145654891Y-126283705D01*
X146125305Y-125969385D01*
X146439625Y-125498971D01*
X146550000Y-124944080D01*
X146550000Y-123255920D01*
X148650000Y-123255920D01*
X148650000Y-124944080D01*
X148760375Y-125498971D01*
X149074695Y-125969385D01*
X149545109Y-126283705D01*
X150100000Y-126394080D01*
X150654891Y-126283705D01*
X151125305Y-125969385D01*
X151439625Y-125498971D01*
X151550000Y-124944080D01*
X151550000Y-123255920D01*
X153650000Y-123255920D01*
X153650000Y-124944080D01*
X153760375Y-125498971D01*
X154074695Y-125969385D01*
X154545109Y-126283705D01*
X155100000Y-126394080D01*
X155654891Y-126283705D01*
X156125305Y-125969385D01*
X156439625Y-125498971D01*
X156550000Y-124944080D01*
X156550000Y-123255920D01*
X156439625Y-122701029D01*
X156125305Y-122230615D01*
X155654891Y-121916295D01*
X155100000Y-121805920D01*
X154545109Y-121916295D01*
X154074695Y-122230615D01*
X153760375Y-122701029D01*
X153650000Y-123255920D01*
X151550000Y-123255920D01*
X151439625Y-122701029D01*
X151125305Y-122230615D01*
X150654891Y-121916295D01*
X150100000Y-121805920D01*
X149545109Y-121916295D01*
X149074695Y-122230615D01*
X148760375Y-122701029D01*
X148650000Y-123255920D01*
X146550000Y-123255920D01*
X146439625Y-122701029D01*
X146125305Y-122230615D01*
X145654891Y-121916295D01*
X145100000Y-121805920D01*
X144545109Y-121916295D01*
X144074695Y-122230615D01*
X143760375Y-122701029D01*
X143650000Y-123255920D01*
X141550000Y-123255920D01*
X141439625Y-122701029D01*
X141125305Y-122230615D01*
X140654891Y-121916295D01*
X140100000Y-121805920D01*
X139545109Y-121916295D01*
X139074695Y-122230615D01*
X138760375Y-122701029D01*
X138650000Y-123255920D01*
X136558816Y-123255920D01*
X136558816Y-122300000D01*
X136527438Y-122133240D01*
X136428883Y-121980081D01*
X136278505Y-121877332D01*
X136100000Y-121841184D01*
X134100000Y-121841184D01*
X133933240Y-121872562D01*
X133780081Y-121971117D01*
X133677332Y-122121495D01*
X133641184Y-122300000D01*
X124950000Y-122300000D01*
X124950000Y-121862132D01*
X125562132Y-121250000D01*
X126500000Y-121250000D01*
X126558358Y-121238182D01*
X126606066Y-121206066D01*
X127306066Y-120506066D01*
X127338975Y-120456444D01*
X127350000Y-120400000D01*
X127350000Y-119200000D01*
X127338182Y-119141642D01*
X127306066Y-119093934D01*
X126606066Y-118393934D01*
X126556444Y-118361025D01*
X126500000Y-118350000D01*
X125662132Y-118350000D01*
X124950000Y-117637868D01*
X124950000Y-116862132D01*
X125662132Y-116150000D01*
X126500000Y-116150000D01*
X126558358Y-116138182D01*
X126606066Y-116106066D01*
X127306066Y-115406066D01*
X127338975Y-115356444D01*
X127350000Y-115300000D01*
X127350000Y-114100000D01*
X127338182Y-114041642D01*
X127306066Y-113993934D01*
X126706066Y-113393934D01*
X126656444Y-113361025D01*
X126600000Y-113350000D01*
X125762132Y-113350000D01*
X124950000Y-112537868D01*
X124950000Y-111762132D01*
X125662132Y-111050000D01*
X126500000Y-111050000D01*
X126558358Y-111038182D01*
X126606066Y-111006066D01*
X127306066Y-110306066D01*
X127338975Y-110256444D01*
X127350000Y-110200000D01*
X127350000Y-109000000D01*
X127338182Y-108941642D01*
X127306066Y-108893934D01*
X126706066Y-108293934D01*
X126656444Y-108261025D01*
X126600000Y-108250000D01*
X125662132Y-108250000D01*
X124950000Y-107537868D01*
X124950000Y-103550000D01*
X157950000Y-103550000D01*
X157950000Y-129050000D01*
M02*
