G04 #@! TF.FileFunction,Soldermask,Bot*
%FSLAX46Y46*%
G04 Gerber Fmt 4.6, Leading zero omitted, Abs format (unit mm)*
G04 Created by KiCad (PCBNEW 4.0.7-e2-6376~58~ubuntu16.04.1) date Sun Feb 11 20:20:02 2018*
%MOMM*%
%LPD*%
G01*
G04 APERTURE LIST*
%ADD10C,0.100000*%
%ADD11R,2.100000X2.100000*%
%ADD12O,2.100000X2.100000*%
%ADD13C,6.400000*%
%ADD14R,2.430000X2.130000*%
%ADD15O,2.430000X2.130000*%
%ADD16C,6.100000*%
%ADD17R,2.400000X4.000000*%
%ADD18O,2.400000X4.000000*%
%ADD19C,0.250000*%
G04 APERTURE END LIST*
D10*
D11*
X126000000Y-69000000D03*
D12*
X126000000Y-74080000D03*
X126000000Y-76620000D03*
X126000000Y-79160000D03*
X126000000Y-81700000D03*
X126000000Y-84240000D03*
X126000000Y-86780000D03*
X126000000Y-89320000D03*
X126000000Y-91860000D03*
X126000000Y-94400000D03*
X126000000Y-96940000D03*
X126000000Y-99480000D03*
X126000000Y-102020000D03*
X126000000Y-104560000D03*
X126000000Y-107100000D03*
X126000000Y-109640000D03*
X126000000Y-112180000D03*
X126000000Y-114720000D03*
X126000000Y-117260000D03*
X126000000Y-119800000D03*
X126000000Y-122340000D03*
X126000000Y-124880000D03*
X126000000Y-127420000D03*
D13*
X117500000Y-107000000D03*
X117500000Y-99500000D03*
D14*
X139250000Y-88040000D03*
D15*
X139250000Y-85500000D03*
X139250000Y-82960000D03*
D16*
X94750000Y-73100000D03*
X168750000Y-73100000D03*
X94750000Y-123400000D03*
X168750000Y-123400000D03*
X118300000Y-73100000D03*
D17*
X135100000Y-112000000D03*
D18*
X140100000Y-112000000D03*
X145100000Y-112000000D03*
X150100000Y-112000000D03*
X155100000Y-112000000D03*
X160100000Y-112000000D03*
D17*
X135100000Y-124100000D03*
D18*
X140100000Y-124100000D03*
X145100000Y-124100000D03*
X150100000Y-124100000D03*
X155100000Y-124100000D03*
X160100000Y-124100000D03*
D19*
G36*
X121375000Y-102775000D02*
X113925000Y-102775000D01*
X113925000Y-95925000D01*
X121375000Y-95925000D01*
X121375000Y-102775000D01*
X121375000Y-102775000D01*
G37*
X121375000Y-102775000D02*
X113925000Y-102775000D01*
X113925000Y-95925000D01*
X121375000Y-95925000D01*
X121375000Y-102775000D01*
G36*
X121375000Y-110175000D02*
X113925000Y-110175000D01*
X113925000Y-103825000D01*
X121375000Y-103825000D01*
X121375000Y-110175000D01*
X121375000Y-110175000D01*
G37*
X121375000Y-110175000D02*
X113925000Y-110175000D01*
X113925000Y-103825000D01*
X121375000Y-103825000D01*
X121375000Y-110175000D01*
G36*
X162575000Y-128775000D02*
X127725000Y-128775000D01*
X127725000Y-117775000D01*
X162575000Y-117775000D01*
X162575000Y-128775000D01*
X162575000Y-128775000D01*
G37*
X162575000Y-128775000D02*
X127725000Y-128775000D01*
X127725000Y-117775000D01*
X162575000Y-117775000D01*
X162575000Y-128775000D01*
M02*
