G04 #@! TF.FileFunction,Legend,Top*
%FSLAX46Y46*%
G04 Gerber Fmt 4.6, Leading zero omitted, Abs format (unit mm)*
G04 Created by KiCad (PCBNEW 4.0.7-e2-6376~58~ubuntu16.04.1) date Sun Feb 11 20:20:02 2018*
%MOMM*%
%LPD*%
G01*
G04 APERTURE LIST*
%ADD10C,0.100000*%
%ADD11C,0.250000*%
%ADD12C,0.200000*%
%ADD13C,0.120000*%
%ADD14C,0.010000*%
G04 APERTURE END LIST*
D10*
D11*
X130457143Y-69497619D02*
X130457143Y-68397619D01*
X130719048Y-68397619D01*
X130876190Y-68450000D01*
X130980952Y-68554762D01*
X131033333Y-68659524D01*
X131085714Y-68869048D01*
X131085714Y-69026190D01*
X131033333Y-69235714D01*
X130980952Y-69340476D01*
X130876190Y-69445238D01*
X130719048Y-69497619D01*
X130457143Y-69497619D01*
X132185714Y-69392857D02*
X132133333Y-69445238D01*
X131976190Y-69497619D01*
X131871428Y-69497619D01*
X131714286Y-69445238D01*
X131609524Y-69340476D01*
X131557143Y-69235714D01*
X131504762Y-69026190D01*
X131504762Y-68869048D01*
X131557143Y-68659524D01*
X131609524Y-68554762D01*
X131714286Y-68450000D01*
X131871428Y-68397619D01*
X131976190Y-68397619D01*
X132133333Y-68450000D01*
X132185714Y-68502381D01*
X133442857Y-68345238D02*
X132500000Y-69759524D01*
X133809524Y-69497619D02*
X133809524Y-68397619D01*
X134071429Y-68397619D01*
X134228571Y-68450000D01*
X134333333Y-68554762D01*
X134385714Y-68659524D01*
X134438095Y-68869048D01*
X134438095Y-69026190D01*
X134385714Y-69235714D01*
X134333333Y-69340476D01*
X134228571Y-69445238D01*
X134071429Y-69497619D01*
X133809524Y-69497619D01*
X135538095Y-69392857D02*
X135485714Y-69445238D01*
X135328571Y-69497619D01*
X135223809Y-69497619D01*
X135066667Y-69445238D01*
X134961905Y-69340476D01*
X134909524Y-69235714D01*
X134857143Y-69026190D01*
X134857143Y-68869048D01*
X134909524Y-68659524D01*
X134961905Y-68554762D01*
X135066667Y-68450000D01*
X135223809Y-68397619D01*
X135328571Y-68397619D01*
X135485714Y-68450000D01*
X135538095Y-68502381D01*
X137319047Y-68764286D02*
X137319047Y-69497619D01*
X137057143Y-68345238D02*
X136795238Y-69130952D01*
X137476190Y-69130952D01*
X138104762Y-68397619D02*
X138209523Y-68397619D01*
X138314285Y-68450000D01*
X138366666Y-68502381D01*
X138419047Y-68607143D01*
X138471428Y-68816667D01*
X138471428Y-69078571D01*
X138419047Y-69288095D01*
X138366666Y-69392857D01*
X138314285Y-69445238D01*
X138209523Y-69497619D01*
X138104762Y-69497619D01*
X138000000Y-69445238D01*
X137947619Y-69392857D01*
X137895238Y-69288095D01*
X137842857Y-69078571D01*
X137842857Y-68816667D01*
X137895238Y-68607143D01*
X137947619Y-68502381D01*
X138000000Y-68450000D01*
X138104762Y-68397619D01*
X139152381Y-68397619D02*
X139257142Y-68397619D01*
X139361904Y-68450000D01*
X139414285Y-68502381D01*
X139466666Y-68607143D01*
X139519047Y-68816667D01*
X139519047Y-69078571D01*
X139466666Y-69288095D01*
X139414285Y-69392857D01*
X139361904Y-69445238D01*
X139257142Y-69497619D01*
X139152381Y-69497619D01*
X139047619Y-69445238D01*
X138995238Y-69392857D01*
X138942857Y-69288095D01*
X138890476Y-69078571D01*
X138890476Y-68816667D01*
X138942857Y-68607143D01*
X138995238Y-68502381D01*
X139047619Y-68450000D01*
X139152381Y-68397619D01*
X139885714Y-68397619D02*
X140147619Y-69497619D01*
X140357142Y-68711905D01*
X140566666Y-69497619D01*
X140828571Y-68397619D01*
X141980952Y-68764286D02*
X142242857Y-69497619D01*
X142504761Y-68764286D01*
X142923809Y-69392857D02*
X142976190Y-69445238D01*
X142923809Y-69497619D01*
X142871428Y-69445238D01*
X142923809Y-69392857D01*
X142923809Y-69497619D01*
X144023809Y-69497619D02*
X143395238Y-69497619D01*
X143709524Y-69497619D02*
X143709524Y-68397619D01*
X143604762Y-68554762D01*
X143500000Y-68659524D01*
X143395238Y-68711905D01*
X144495238Y-69392857D02*
X144547619Y-69445238D01*
X144495238Y-69497619D01*
X144442857Y-69445238D01*
X144495238Y-69392857D01*
X144495238Y-69497619D01*
X145228572Y-68397619D02*
X145333333Y-68397619D01*
X145438095Y-68450000D01*
X145490476Y-68502381D01*
X145542857Y-68607143D01*
X145595238Y-68816667D01*
X145595238Y-69078571D01*
X145542857Y-69288095D01*
X145490476Y-69392857D01*
X145438095Y-69445238D01*
X145333333Y-69497619D01*
X145228572Y-69497619D01*
X145123810Y-69445238D01*
X145071429Y-69392857D01*
X145019048Y-69288095D01*
X144966667Y-69078571D01*
X144966667Y-68816667D01*
X145019048Y-68607143D01*
X145071429Y-68502381D01*
X145123810Y-68450000D01*
X145228572Y-68397619D01*
D12*
X145400000Y-77900000D02*
X133500000Y-77900000D01*
X145400000Y-80400000D02*
X145400000Y-77900000D01*
X133500000Y-80400000D02*
X145400000Y-80400000D01*
D11*
X116661905Y-111750000D02*
X116557143Y-111697619D01*
X116400000Y-111697619D01*
X116242858Y-111750000D01*
X116138096Y-111854762D01*
X116085715Y-111959524D01*
X116033334Y-112169048D01*
X116033334Y-112326190D01*
X116085715Y-112535714D01*
X116138096Y-112640476D01*
X116242858Y-112745238D01*
X116400000Y-112797619D01*
X116504762Y-112797619D01*
X116661905Y-112745238D01*
X116714286Y-112692857D01*
X116714286Y-112326190D01*
X116504762Y-112326190D01*
X117185715Y-112797619D02*
X117185715Y-111697619D01*
X117814286Y-112797619D01*
X117814286Y-111697619D01*
X118338096Y-112797619D02*
X118338096Y-111697619D01*
X118600001Y-111697619D01*
X118757143Y-111750000D01*
X118861905Y-111854762D01*
X118914286Y-111959524D01*
X118966667Y-112169048D01*
X118966667Y-112326190D01*
X118914286Y-112535714D01*
X118861905Y-112640476D01*
X118757143Y-112745238D01*
X118600001Y-112797619D01*
X118338096Y-112797619D01*
X115561905Y-93878571D02*
X116400000Y-93878571D01*
X115980952Y-94297619D02*
X115980952Y-93459524D01*
X117500000Y-94297619D02*
X116871429Y-94297619D01*
X117185715Y-94297619D02*
X117185715Y-93197619D01*
X117080953Y-93354762D01*
X116976191Y-93459524D01*
X116871429Y-93511905D01*
X117919048Y-93302381D02*
X117971429Y-93250000D01*
X118076191Y-93197619D01*
X118338095Y-93197619D01*
X118442857Y-93250000D01*
X118495238Y-93302381D01*
X118547619Y-93407143D01*
X118547619Y-93511905D01*
X118495238Y-93669048D01*
X117866667Y-94297619D01*
X118547619Y-94297619D01*
X118861905Y-93197619D02*
X119228572Y-94297619D01*
X119595238Y-93197619D01*
X134188096Y-79697619D02*
X134188096Y-78597619D01*
X134607143Y-78597619D01*
X134711905Y-78650000D01*
X134764286Y-78702381D01*
X134816667Y-78807143D01*
X134816667Y-78964286D01*
X134764286Y-79069048D01*
X134711905Y-79121429D01*
X134607143Y-79173810D01*
X134188096Y-79173810D01*
X135497620Y-78597619D02*
X135707143Y-78597619D01*
X135811905Y-78650000D01*
X135916667Y-78754762D01*
X135969048Y-78964286D01*
X135969048Y-79330952D01*
X135916667Y-79540476D01*
X135811905Y-79645238D01*
X135707143Y-79697619D01*
X135497620Y-79697619D01*
X135392858Y-79645238D01*
X135288096Y-79540476D01*
X135235715Y-79330952D01*
X135235715Y-78964286D01*
X135288096Y-78754762D01*
X135392858Y-78650000D01*
X135497620Y-78597619D01*
X136335715Y-78597619D02*
X136597620Y-79697619D01*
X136807143Y-78911905D01*
X137016667Y-79697619D01*
X137278572Y-78597619D01*
X137697620Y-79121429D02*
X138064286Y-79121429D01*
X138221429Y-79697619D02*
X137697620Y-79697619D01*
X137697620Y-78597619D01*
X138221429Y-78597619D01*
X139321429Y-79697619D02*
X138954763Y-79173810D01*
X138692858Y-79697619D02*
X138692858Y-78597619D01*
X139111905Y-78597619D01*
X139216667Y-78650000D01*
X139269048Y-78702381D01*
X139321429Y-78807143D01*
X139321429Y-78964286D01*
X139269048Y-79069048D01*
X139216667Y-79121429D01*
X139111905Y-79173810D01*
X138692858Y-79173810D01*
X139530953Y-79802381D02*
X140369048Y-79802381D01*
X141207143Y-78650000D02*
X141102381Y-78597619D01*
X140945238Y-78597619D01*
X140788096Y-78650000D01*
X140683334Y-78754762D01*
X140630953Y-78859524D01*
X140578572Y-79069048D01*
X140578572Y-79226190D01*
X140630953Y-79435714D01*
X140683334Y-79540476D01*
X140788096Y-79645238D01*
X140945238Y-79697619D01*
X141050000Y-79697619D01*
X141207143Y-79645238D01*
X141259524Y-79592857D01*
X141259524Y-79226190D01*
X141050000Y-79226190D01*
X141940477Y-78597619D02*
X142150000Y-78597619D01*
X142254762Y-78650000D01*
X142359524Y-78754762D01*
X142411905Y-78964286D01*
X142411905Y-79330952D01*
X142359524Y-79540476D01*
X142254762Y-79645238D01*
X142150000Y-79697619D01*
X141940477Y-79697619D01*
X141835715Y-79645238D01*
X141730953Y-79540476D01*
X141678572Y-79330952D01*
X141678572Y-78964286D01*
X141730953Y-78754762D01*
X141835715Y-78650000D01*
X141940477Y-78597619D01*
X143092858Y-78597619D02*
X143302381Y-78597619D01*
X143407143Y-78650000D01*
X143511905Y-78754762D01*
X143564286Y-78964286D01*
X143564286Y-79330952D01*
X143511905Y-79540476D01*
X143407143Y-79645238D01*
X143302381Y-79697619D01*
X143092858Y-79697619D01*
X142988096Y-79645238D01*
X142883334Y-79540476D01*
X142830953Y-79330952D01*
X142830953Y-78964286D01*
X142883334Y-78754762D01*
X142988096Y-78650000D01*
X143092858Y-78597619D01*
X144035715Y-79697619D02*
X144035715Y-78597619D01*
X144297620Y-78597619D01*
X144454762Y-78650000D01*
X144559524Y-78754762D01*
X144611905Y-78859524D01*
X144664286Y-79069048D01*
X144664286Y-79226190D01*
X144611905Y-79435714D01*
X144559524Y-79540476D01*
X144454762Y-79645238D01*
X144297620Y-79697619D01*
X144035715Y-79697619D01*
D12*
X131300000Y-79600000D02*
X131300000Y-79900000D01*
X131300000Y-78600000D02*
X131300000Y-78300000D01*
X130900000Y-79500000D02*
X131700000Y-79500000D01*
X131700000Y-78700000D02*
X130900000Y-78700000D01*
X131300000Y-79400000D02*
X131700000Y-78700000D01*
X130900000Y-78700000D02*
X131300000Y-79400000D01*
D13*
X124670000Y-128750000D02*
X127330000Y-128750000D01*
X124670000Y-70270000D02*
X124670000Y-128750000D01*
X127330000Y-70270000D02*
X127330000Y-128750000D01*
X124670000Y-70270000D02*
X127330000Y-70270000D01*
X124670000Y-69000000D02*
X124670000Y-67670000D01*
X124670000Y-67670000D02*
X126000000Y-67670000D01*
X122520000Y-70250000D02*
X122520000Y-69250000D01*
X123880000Y-69250000D02*
X123880000Y-70250000D01*
X142650000Y-89390000D02*
X136600000Y-89390000D01*
X136600000Y-89390000D02*
X136600000Y-81590000D01*
X136600000Y-81590000D02*
X142650000Y-81590000D01*
X142650000Y-81590000D02*
X142650000Y-89390000D01*
X142550000Y-88040000D02*
X141540000Y-88040000D01*
X141540000Y-88040000D02*
X141540000Y-82960000D01*
X141540000Y-82960000D02*
X142550000Y-82960000D01*
X132330000Y-80450000D02*
X133470000Y-80450000D01*
X133470000Y-80450000D02*
X133470000Y-78350000D01*
X132330000Y-80450000D02*
X132330000Y-78350000D01*
X132650000Y-77430000D02*
X131650000Y-77430000D01*
X131650000Y-76070000D02*
X132650000Y-76070000D01*
X120895000Y-70250000D02*
X120895000Y-69250000D01*
X122255000Y-69250000D02*
X122255000Y-70250000D01*
X137086841Y-114215821D02*
G75*
G02X133100000Y-114200000I-1986841J1665821D01*
G01*
X142086841Y-114215821D02*
G75*
G02X138100000Y-114200000I-1986841J1665821D01*
G01*
X147086841Y-114215821D02*
G75*
G02X143100000Y-114200000I-1986841J1665821D01*
G01*
X152086841Y-114215821D02*
G75*
G02X148100000Y-114200000I-1986841J1665821D01*
G01*
X157086841Y-114215821D02*
G75*
G02X153100000Y-114200000I-1986841J1665821D01*
G01*
X162086841Y-114215821D02*
G75*
G02X158100000Y-114200000I-1986841J1665821D01*
G01*
X131520000Y-107120000D02*
X131520000Y-115880000D01*
X131520000Y-115880000D02*
X163680000Y-115880000D01*
X163680000Y-115880000D02*
X163680000Y-107120000D01*
X163680000Y-107120000D02*
X131520000Y-107120000D01*
X131520000Y-107900000D02*
X134020000Y-107900000D01*
X163680000Y-107900000D02*
X161180000Y-107900000D01*
X136100000Y-107900000D02*
X139100000Y-107900000D01*
X141100000Y-107900000D02*
X144100000Y-107900000D01*
X146100000Y-107900000D02*
X149100000Y-107900000D01*
X151100000Y-107900000D02*
X154100000Y-107900000D01*
X156100000Y-107900000D02*
X159100000Y-107900000D01*
X134100000Y-108900000D02*
X134100000Y-107120000D01*
X134100000Y-107120000D02*
X136100000Y-107120000D01*
X136100000Y-107120000D02*
X136100000Y-108900000D01*
X136100000Y-108900000D02*
X134100000Y-108900000D01*
X139100000Y-108900000D02*
X139100000Y-107120000D01*
X139100000Y-107120000D02*
X141100000Y-107120000D01*
X141100000Y-107120000D02*
X141100000Y-108900000D01*
X141100000Y-108900000D02*
X139100000Y-108900000D01*
X144100000Y-108900000D02*
X144100000Y-107120000D01*
X144100000Y-107120000D02*
X146100000Y-107120000D01*
X146100000Y-107120000D02*
X146100000Y-108900000D01*
X146100000Y-108900000D02*
X144100000Y-108900000D01*
X149100000Y-108900000D02*
X149100000Y-107120000D01*
X149100000Y-107120000D02*
X151100000Y-107120000D01*
X151100000Y-107120000D02*
X151100000Y-108900000D01*
X151100000Y-108900000D02*
X149100000Y-108900000D01*
X154100000Y-108900000D02*
X154100000Y-107120000D01*
X154100000Y-107120000D02*
X156100000Y-107120000D01*
X156100000Y-107120000D02*
X156100000Y-108900000D01*
X156100000Y-108900000D02*
X154100000Y-108900000D01*
X159100000Y-108900000D02*
X159100000Y-107120000D01*
X159100000Y-107120000D02*
X161100000Y-107120000D01*
X161100000Y-107120000D02*
X161100000Y-108900000D01*
X161100000Y-108900000D02*
X159100000Y-108900000D01*
X137100000Y-114200000D02*
X138100000Y-114200000D01*
X142100000Y-114200000D02*
X143100000Y-114200000D01*
X147100000Y-114200000D02*
X148100000Y-114200000D01*
X152100000Y-114200000D02*
X153100000Y-114200000D01*
X157100000Y-114200000D02*
X158100000Y-114200000D01*
X133100000Y-114200000D02*
X132400000Y-114200000D01*
X132400000Y-114200000D02*
X132400000Y-108900000D01*
X132400000Y-108900000D02*
X162800000Y-108900000D01*
X162800000Y-108900000D02*
X162800000Y-114200000D01*
X162800000Y-114200000D02*
X162100000Y-114200000D01*
X135400000Y-106320000D02*
X135100000Y-106920000D01*
X135100000Y-106920000D02*
X134800000Y-106320000D01*
X134800000Y-106320000D02*
X135400000Y-106320000D01*
X137086841Y-126315821D02*
G75*
G02X133100000Y-126300000I-1986841J1665821D01*
G01*
X142086841Y-126315821D02*
G75*
G02X138100000Y-126300000I-1986841J1665821D01*
G01*
X147086841Y-126315821D02*
G75*
G02X143100000Y-126300000I-1986841J1665821D01*
G01*
X152086841Y-126315821D02*
G75*
G02X148100000Y-126300000I-1986841J1665821D01*
G01*
X157086841Y-126315821D02*
G75*
G02X153100000Y-126300000I-1986841J1665821D01*
G01*
X162086841Y-126315821D02*
G75*
G02X158100000Y-126300000I-1986841J1665821D01*
G01*
X131520000Y-119220000D02*
X131520000Y-127980000D01*
X131520000Y-127980000D02*
X163680000Y-127980000D01*
X163680000Y-127980000D02*
X163680000Y-119220000D01*
X163680000Y-119220000D02*
X131520000Y-119220000D01*
X131520000Y-120000000D02*
X134020000Y-120000000D01*
X163680000Y-120000000D02*
X161180000Y-120000000D01*
X136100000Y-120000000D02*
X139100000Y-120000000D01*
X141100000Y-120000000D02*
X144100000Y-120000000D01*
X146100000Y-120000000D02*
X149100000Y-120000000D01*
X151100000Y-120000000D02*
X154100000Y-120000000D01*
X156100000Y-120000000D02*
X159100000Y-120000000D01*
X134100000Y-121000000D02*
X134100000Y-119220000D01*
X134100000Y-119220000D02*
X136100000Y-119220000D01*
X136100000Y-119220000D02*
X136100000Y-121000000D01*
X136100000Y-121000000D02*
X134100000Y-121000000D01*
X139100000Y-121000000D02*
X139100000Y-119220000D01*
X139100000Y-119220000D02*
X141100000Y-119220000D01*
X141100000Y-119220000D02*
X141100000Y-121000000D01*
X141100000Y-121000000D02*
X139100000Y-121000000D01*
X144100000Y-121000000D02*
X144100000Y-119220000D01*
X144100000Y-119220000D02*
X146100000Y-119220000D01*
X146100000Y-119220000D02*
X146100000Y-121000000D01*
X146100000Y-121000000D02*
X144100000Y-121000000D01*
X149100000Y-121000000D02*
X149100000Y-119220000D01*
X149100000Y-119220000D02*
X151100000Y-119220000D01*
X151100000Y-119220000D02*
X151100000Y-121000000D01*
X151100000Y-121000000D02*
X149100000Y-121000000D01*
X154100000Y-121000000D02*
X154100000Y-119220000D01*
X154100000Y-119220000D02*
X156100000Y-119220000D01*
X156100000Y-119220000D02*
X156100000Y-121000000D01*
X156100000Y-121000000D02*
X154100000Y-121000000D01*
X159100000Y-121000000D02*
X159100000Y-119220000D01*
X159100000Y-119220000D02*
X161100000Y-119220000D01*
X161100000Y-119220000D02*
X161100000Y-121000000D01*
X161100000Y-121000000D02*
X159100000Y-121000000D01*
X137100000Y-126300000D02*
X138100000Y-126300000D01*
X142100000Y-126300000D02*
X143100000Y-126300000D01*
X147100000Y-126300000D02*
X148100000Y-126300000D01*
X152100000Y-126300000D02*
X153100000Y-126300000D01*
X157100000Y-126300000D02*
X158100000Y-126300000D01*
X133100000Y-126300000D02*
X132400000Y-126300000D01*
X132400000Y-126300000D02*
X132400000Y-121000000D01*
X132400000Y-121000000D02*
X162800000Y-121000000D01*
X162800000Y-121000000D02*
X162800000Y-126300000D01*
X162800000Y-126300000D02*
X162100000Y-126300000D01*
X135400000Y-118420000D02*
X135100000Y-119020000D01*
X135100000Y-119020000D02*
X134800000Y-118420000D01*
X134800000Y-118420000D02*
X135400000Y-118420000D01*
D14*
G36*
X147558950Y-83974220D02*
X147548920Y-84021387D01*
X147521007Y-84103840D01*
X147492159Y-84179082D01*
X147370213Y-84522909D01*
X147274727Y-84874733D01*
X147262404Y-84928880D01*
X147245790Y-85009624D01*
X147233730Y-85085913D01*
X147225551Y-85166741D01*
X147220580Y-85261106D01*
X147218145Y-85378000D01*
X147217573Y-85526420D01*
X147217574Y-85528320D01*
X147218098Y-85669198D01*
X147219906Y-85777977D01*
X147223783Y-85863194D01*
X147230511Y-85933387D01*
X147240873Y-85997092D01*
X147255652Y-86062847D01*
X147272550Y-86127760D01*
X147329688Y-86302553D01*
X147407520Y-86486677D01*
X147498881Y-86665273D01*
X147596606Y-86823486D01*
X147631399Y-86871842D01*
X147829402Y-87101328D01*
X148062473Y-87311896D01*
X148329430Y-87502999D01*
X148629089Y-87674087D01*
X148960267Y-87824611D01*
X149321780Y-87954023D01*
X149712444Y-88061775D01*
X150131077Y-88147316D01*
X150497120Y-88200834D01*
X150747991Y-88224861D01*
X151028940Y-88240367D01*
X151330328Y-88247447D01*
X151642515Y-88246199D01*
X151955863Y-88236721D01*
X152260735Y-88219108D01*
X152547491Y-88193460D01*
X152671360Y-88178901D01*
X153033402Y-88125082D01*
X153400787Y-88056158D01*
X153764842Y-87974289D01*
X154116897Y-87881636D01*
X154448283Y-87780358D01*
X154750329Y-87672616D01*
X154829532Y-87641149D01*
X154925940Y-87603502D01*
X154986175Y-87583822D01*
X155010437Y-87581950D01*
X154998927Y-87597728D01*
X154951844Y-87630996D01*
X154869389Y-87681595D01*
X154751762Y-87749366D01*
X154599164Y-87834149D01*
X154558635Y-87856315D01*
X154070557Y-88102534D01*
X153558831Y-88322658D01*
X153029951Y-88514727D01*
X152490413Y-88676782D01*
X151946710Y-88806862D01*
X151405337Y-88903007D01*
X150897333Y-88961273D01*
X150793878Y-88967655D01*
X150660750Y-88972675D01*
X150507520Y-88976272D01*
X150343761Y-88978382D01*
X150179042Y-88978944D01*
X150022937Y-88977896D01*
X149885016Y-88975173D01*
X149774852Y-88970716D01*
X149745280Y-88968783D01*
X149623886Y-88956680D01*
X149475433Y-88937229D01*
X149312404Y-88912460D01*
X149147284Y-88884402D01*
X148992555Y-88855084D01*
X148860702Y-88826535D01*
X148841040Y-88821801D01*
X148474801Y-88716198D01*
X148136639Y-88586451D01*
X147827593Y-88433494D01*
X147548705Y-88258261D01*
X147301017Y-88061684D01*
X147085570Y-87844695D01*
X146903405Y-87608229D01*
X146755564Y-87353217D01*
X146643088Y-87080593D01*
X146567018Y-86791290D01*
X146565443Y-86783072D01*
X146548511Y-86657559D01*
X146538536Y-86504833D01*
X146535499Y-86337717D01*
X146539379Y-86169033D01*
X146550159Y-86011605D01*
X146566812Y-85883920D01*
X146638574Y-85578215D01*
X146747835Y-85264008D01*
X146893103Y-84944253D01*
X147072886Y-84621904D01*
X147285690Y-84299915D01*
X147525110Y-83987231D01*
X147551035Y-83962711D01*
X147558950Y-83974220D01*
X147558950Y-83974220D01*
G37*
X147558950Y-83974220D02*
X147548920Y-84021387D01*
X147521007Y-84103840D01*
X147492159Y-84179082D01*
X147370213Y-84522909D01*
X147274727Y-84874733D01*
X147262404Y-84928880D01*
X147245790Y-85009624D01*
X147233730Y-85085913D01*
X147225551Y-85166741D01*
X147220580Y-85261106D01*
X147218145Y-85378000D01*
X147217573Y-85526420D01*
X147217574Y-85528320D01*
X147218098Y-85669198D01*
X147219906Y-85777977D01*
X147223783Y-85863194D01*
X147230511Y-85933387D01*
X147240873Y-85997092D01*
X147255652Y-86062847D01*
X147272550Y-86127760D01*
X147329688Y-86302553D01*
X147407520Y-86486677D01*
X147498881Y-86665273D01*
X147596606Y-86823486D01*
X147631399Y-86871842D01*
X147829402Y-87101328D01*
X148062473Y-87311896D01*
X148329430Y-87502999D01*
X148629089Y-87674087D01*
X148960267Y-87824611D01*
X149321780Y-87954023D01*
X149712444Y-88061775D01*
X150131077Y-88147316D01*
X150497120Y-88200834D01*
X150747991Y-88224861D01*
X151028940Y-88240367D01*
X151330328Y-88247447D01*
X151642515Y-88246199D01*
X151955863Y-88236721D01*
X152260735Y-88219108D01*
X152547491Y-88193460D01*
X152671360Y-88178901D01*
X153033402Y-88125082D01*
X153400787Y-88056158D01*
X153764842Y-87974289D01*
X154116897Y-87881636D01*
X154448283Y-87780358D01*
X154750329Y-87672616D01*
X154829532Y-87641149D01*
X154925940Y-87603502D01*
X154986175Y-87583822D01*
X155010437Y-87581950D01*
X154998927Y-87597728D01*
X154951844Y-87630996D01*
X154869389Y-87681595D01*
X154751762Y-87749366D01*
X154599164Y-87834149D01*
X154558635Y-87856315D01*
X154070557Y-88102534D01*
X153558831Y-88322658D01*
X153029951Y-88514727D01*
X152490413Y-88676782D01*
X151946710Y-88806862D01*
X151405337Y-88903007D01*
X150897333Y-88961273D01*
X150793878Y-88967655D01*
X150660750Y-88972675D01*
X150507520Y-88976272D01*
X150343761Y-88978382D01*
X150179042Y-88978944D01*
X150022937Y-88977896D01*
X149885016Y-88975173D01*
X149774852Y-88970716D01*
X149745280Y-88968783D01*
X149623886Y-88956680D01*
X149475433Y-88937229D01*
X149312404Y-88912460D01*
X149147284Y-88884402D01*
X148992555Y-88855084D01*
X148860702Y-88826535D01*
X148841040Y-88821801D01*
X148474801Y-88716198D01*
X148136639Y-88586451D01*
X147827593Y-88433494D01*
X147548705Y-88258261D01*
X147301017Y-88061684D01*
X147085570Y-87844695D01*
X146903405Y-87608229D01*
X146755564Y-87353217D01*
X146643088Y-87080593D01*
X146567018Y-86791290D01*
X146565443Y-86783072D01*
X146548511Y-86657559D01*
X146538536Y-86504833D01*
X146535499Y-86337717D01*
X146539379Y-86169033D01*
X146550159Y-86011605D01*
X146566812Y-85883920D01*
X146638574Y-85578215D01*
X146747835Y-85264008D01*
X146893103Y-84944253D01*
X147072886Y-84621904D01*
X147285690Y-84299915D01*
X147525110Y-83987231D01*
X147551035Y-83962711D01*
X147558950Y-83974220D01*
G36*
X150702880Y-83651078D02*
X150845686Y-83655969D01*
X150964094Y-83666317D01*
X151066184Y-83683521D01*
X151160032Y-83708980D01*
X151253718Y-83744092D01*
X151355319Y-83790258D01*
X151366103Y-83795477D01*
X151518800Y-83888379D01*
X151667042Y-84013221D01*
X151803282Y-84161423D01*
X151919976Y-84324402D01*
X152009578Y-84493576D01*
X152034044Y-84555159D01*
X152069788Y-84654560D01*
X152930941Y-84654560D01*
X153025171Y-84923800D01*
X153059871Y-85023006D01*
X153104541Y-85150809D01*
X153155767Y-85297433D01*
X153210132Y-85453102D01*
X153264223Y-85608040D01*
X153287102Y-85673592D01*
X153454802Y-86154144D01*
X153977372Y-84654560D01*
X154423820Y-84654560D01*
X154575359Y-84655046D01*
X154690205Y-84656658D01*
X154772296Y-84659624D01*
X154825568Y-84664173D01*
X154853959Y-84670533D01*
X154861406Y-84678933D01*
X154861128Y-84679960D01*
X154853052Y-84703007D01*
X154832731Y-84761233D01*
X154801280Y-84851433D01*
X154759814Y-84970406D01*
X154709450Y-85114949D01*
X154651303Y-85281858D01*
X154586490Y-85467931D01*
X154516126Y-85669966D01*
X154441327Y-85884759D01*
X154399166Y-86005840D01*
X154322394Y-86225964D01*
X154249303Y-86434828D01*
X154181022Y-86629257D01*
X154118676Y-86806078D01*
X154063391Y-86962116D01*
X154016293Y-87094198D01*
X153978510Y-87199148D01*
X153951168Y-87273794D01*
X153935392Y-87314961D01*
X153932054Y-87322182D01*
X153910497Y-87328557D01*
X153855824Y-87340804D01*
X153774917Y-87357613D01*
X153674661Y-87377670D01*
X153561939Y-87399666D01*
X153443633Y-87422287D01*
X153326629Y-87444223D01*
X153217808Y-87464161D01*
X153124056Y-87480791D01*
X153052254Y-87492800D01*
X153009286Y-87498877D01*
X153002235Y-87499360D01*
X152996532Y-87483907D01*
X152996480Y-87481487D01*
X153002901Y-87457206D01*
X153020668Y-87401384D01*
X153047540Y-87320782D01*
X153081272Y-87222160D01*
X153108240Y-87144670D01*
X153145389Y-87038160D01*
X153177311Y-86945694D01*
X153201784Y-86873790D01*
X153216583Y-86828967D01*
X153220000Y-86817102D01*
X153202668Y-86810437D01*
X153172819Y-86808480D01*
X153072133Y-86791143D01*
X152964194Y-86743503D01*
X152858875Y-86672111D01*
X152766048Y-86583518D01*
X152702343Y-86496212D01*
X152685360Y-86459575D01*
X152656760Y-86388869D01*
X152618157Y-86288448D01*
X152571168Y-86162670D01*
X152517407Y-86015890D01*
X152458489Y-85852463D01*
X152396029Y-85676745D01*
X152350888Y-85548261D01*
X152049088Y-84685040D01*
X151569278Y-84679595D01*
X151089469Y-84674151D01*
X151076641Y-84615747D01*
X151039855Y-84521803D01*
X150975902Y-84427849D01*
X150895634Y-84348218D01*
X150850221Y-84316741D01*
X150795270Y-84287893D01*
X150741662Y-84269729D01*
X150676043Y-84259202D01*
X150585057Y-84253262D01*
X150569244Y-84252611D01*
X150475936Y-84250340D01*
X150410403Y-84253516D01*
X150359943Y-84263982D01*
X150311850Y-84283577D01*
X150294084Y-84292490D01*
X150201508Y-84356442D01*
X150141163Y-84432940D01*
X150114825Y-84516325D01*
X150124273Y-84600937D01*
X150171282Y-84681116D01*
X150171852Y-84681767D01*
X150218991Y-84726447D01*
X150279696Y-84765855D01*
X150359428Y-84802151D01*
X150463650Y-84837497D01*
X150597823Y-84874053D01*
X150747462Y-84909494D01*
X151005017Y-84971696D01*
X151225405Y-85034151D01*
X151412073Y-85098613D01*
X151568465Y-85166831D01*
X151698028Y-85240559D01*
X151804206Y-85321548D01*
X151890447Y-85411550D01*
X151960194Y-85512315D01*
X151971182Y-85531584D01*
X151997248Y-85581101D01*
X152014446Y-85624301D01*
X152024610Y-85671659D01*
X152029573Y-85733651D01*
X152031170Y-85820751D01*
X152031280Y-85874813D01*
X152030767Y-85976867D01*
X152027707Y-86049934D01*
X152019818Y-86105669D01*
X152004818Y-86155725D01*
X151980426Y-86211755D01*
X151955157Y-86263571D01*
X151882237Y-86388836D01*
X151792311Y-86496698D01*
X151751141Y-86536838D01*
X151642245Y-86629687D01*
X151533556Y-86701708D01*
X151412159Y-86760032D01*
X151265141Y-86811788D01*
X151238353Y-86819943D01*
X151165206Y-86840540D01*
X151097682Y-86855752D01*
X151026617Y-86866667D01*
X150942849Y-86874374D01*
X150837212Y-86879961D01*
X150700544Y-86884518D01*
X150692961Y-86884732D01*
X150422359Y-86885927D01*
X150186578Y-86872749D01*
X149982125Y-86844374D01*
X149805508Y-86799978D01*
X149653232Y-86738740D01*
X149521806Y-86659835D01*
X149434372Y-86588154D01*
X149296816Y-86432990D01*
X149190069Y-86252327D01*
X149115363Y-86048536D01*
X149086996Y-85919480D01*
X149075736Y-85853440D01*
X150067248Y-85853440D01*
X150091268Y-85929640D01*
X150150987Y-86059452D01*
X150238559Y-86162413D01*
X150306833Y-86211727D01*
X150403804Y-86251322D01*
X150523185Y-86274825D01*
X150649594Y-86281088D01*
X150767646Y-86268963D01*
X150831942Y-86250934D01*
X150930879Y-86197611D01*
X151000398Y-86127851D01*
X151038238Y-86047624D01*
X151042143Y-85962900D01*
X151009851Y-85879649D01*
X150984947Y-85846552D01*
X150938423Y-85802343D01*
X150878682Y-85763332D01*
X150800316Y-85727401D01*
X150697916Y-85692428D01*
X150566072Y-85656291D01*
X150399375Y-85616871D01*
X150398840Y-85616750D01*
X150142618Y-85554804D01*
X149923613Y-85491967D01*
X149738404Y-85426793D01*
X149583573Y-85357836D01*
X149455698Y-85283650D01*
X149351361Y-85202790D01*
X149300300Y-85152282D01*
X149212649Y-85038975D01*
X149156033Y-84918548D01*
X149125662Y-84779265D01*
X149119391Y-84709207D01*
X149126888Y-84516836D01*
X149171730Y-84337793D01*
X149252218Y-84174127D01*
X149366654Y-84027889D01*
X149513338Y-83901132D01*
X149690572Y-83795905D01*
X149896657Y-83714259D01*
X149958640Y-83696083D01*
X150021509Y-83680294D01*
X150082847Y-83668628D01*
X150150517Y-83660452D01*
X150232382Y-83655131D01*
X150336303Y-83652032D01*
X150470144Y-83650523D01*
X150527600Y-83650244D01*
X150702880Y-83651078D01*
X150702880Y-83651078D01*
G37*
X150702880Y-83651078D02*
X150845686Y-83655969D01*
X150964094Y-83666317D01*
X151066184Y-83683521D01*
X151160032Y-83708980D01*
X151253718Y-83744092D01*
X151355319Y-83790258D01*
X151366103Y-83795477D01*
X151518800Y-83888379D01*
X151667042Y-84013221D01*
X151803282Y-84161423D01*
X151919976Y-84324402D01*
X152009578Y-84493576D01*
X152034044Y-84555159D01*
X152069788Y-84654560D01*
X152930941Y-84654560D01*
X153025171Y-84923800D01*
X153059871Y-85023006D01*
X153104541Y-85150809D01*
X153155767Y-85297433D01*
X153210132Y-85453102D01*
X153264223Y-85608040D01*
X153287102Y-85673592D01*
X153454802Y-86154144D01*
X153977372Y-84654560D01*
X154423820Y-84654560D01*
X154575359Y-84655046D01*
X154690205Y-84656658D01*
X154772296Y-84659624D01*
X154825568Y-84664173D01*
X154853959Y-84670533D01*
X154861406Y-84678933D01*
X154861128Y-84679960D01*
X154853052Y-84703007D01*
X154832731Y-84761233D01*
X154801280Y-84851433D01*
X154759814Y-84970406D01*
X154709450Y-85114949D01*
X154651303Y-85281858D01*
X154586490Y-85467931D01*
X154516126Y-85669966D01*
X154441327Y-85884759D01*
X154399166Y-86005840D01*
X154322394Y-86225964D01*
X154249303Y-86434828D01*
X154181022Y-86629257D01*
X154118676Y-86806078D01*
X154063391Y-86962116D01*
X154016293Y-87094198D01*
X153978510Y-87199148D01*
X153951168Y-87273794D01*
X153935392Y-87314961D01*
X153932054Y-87322182D01*
X153910497Y-87328557D01*
X153855824Y-87340804D01*
X153774917Y-87357613D01*
X153674661Y-87377670D01*
X153561939Y-87399666D01*
X153443633Y-87422287D01*
X153326629Y-87444223D01*
X153217808Y-87464161D01*
X153124056Y-87480791D01*
X153052254Y-87492800D01*
X153009286Y-87498877D01*
X153002235Y-87499360D01*
X152996532Y-87483907D01*
X152996480Y-87481487D01*
X153002901Y-87457206D01*
X153020668Y-87401384D01*
X153047540Y-87320782D01*
X153081272Y-87222160D01*
X153108240Y-87144670D01*
X153145389Y-87038160D01*
X153177311Y-86945694D01*
X153201784Y-86873790D01*
X153216583Y-86828967D01*
X153220000Y-86817102D01*
X153202668Y-86810437D01*
X153172819Y-86808480D01*
X153072133Y-86791143D01*
X152964194Y-86743503D01*
X152858875Y-86672111D01*
X152766048Y-86583518D01*
X152702343Y-86496212D01*
X152685360Y-86459575D01*
X152656760Y-86388869D01*
X152618157Y-86288448D01*
X152571168Y-86162670D01*
X152517407Y-86015890D01*
X152458489Y-85852463D01*
X152396029Y-85676745D01*
X152350888Y-85548261D01*
X152049088Y-84685040D01*
X151569278Y-84679595D01*
X151089469Y-84674151D01*
X151076641Y-84615747D01*
X151039855Y-84521803D01*
X150975902Y-84427849D01*
X150895634Y-84348218D01*
X150850221Y-84316741D01*
X150795270Y-84287893D01*
X150741662Y-84269729D01*
X150676043Y-84259202D01*
X150585057Y-84253262D01*
X150569244Y-84252611D01*
X150475936Y-84250340D01*
X150410403Y-84253516D01*
X150359943Y-84263982D01*
X150311850Y-84283577D01*
X150294084Y-84292490D01*
X150201508Y-84356442D01*
X150141163Y-84432940D01*
X150114825Y-84516325D01*
X150124273Y-84600937D01*
X150171282Y-84681116D01*
X150171852Y-84681767D01*
X150218991Y-84726447D01*
X150279696Y-84765855D01*
X150359428Y-84802151D01*
X150463650Y-84837497D01*
X150597823Y-84874053D01*
X150747462Y-84909494D01*
X151005017Y-84971696D01*
X151225405Y-85034151D01*
X151412073Y-85098613D01*
X151568465Y-85166831D01*
X151698028Y-85240559D01*
X151804206Y-85321548D01*
X151890447Y-85411550D01*
X151960194Y-85512315D01*
X151971182Y-85531584D01*
X151997248Y-85581101D01*
X152014446Y-85624301D01*
X152024610Y-85671659D01*
X152029573Y-85733651D01*
X152031170Y-85820751D01*
X152031280Y-85874813D01*
X152030767Y-85976867D01*
X152027707Y-86049934D01*
X152019818Y-86105669D01*
X152004818Y-86155725D01*
X151980426Y-86211755D01*
X151955157Y-86263571D01*
X151882237Y-86388836D01*
X151792311Y-86496698D01*
X151751141Y-86536838D01*
X151642245Y-86629687D01*
X151533556Y-86701708D01*
X151412159Y-86760032D01*
X151265141Y-86811788D01*
X151238353Y-86819943D01*
X151165206Y-86840540D01*
X151097682Y-86855752D01*
X151026617Y-86866667D01*
X150942849Y-86874374D01*
X150837212Y-86879961D01*
X150700544Y-86884518D01*
X150692961Y-86884732D01*
X150422359Y-86885927D01*
X150186578Y-86872749D01*
X149982125Y-86844374D01*
X149805508Y-86799978D01*
X149653232Y-86738740D01*
X149521806Y-86659835D01*
X149434372Y-86588154D01*
X149296816Y-86432990D01*
X149190069Y-86252327D01*
X149115363Y-86048536D01*
X149086996Y-85919480D01*
X149075736Y-85853440D01*
X150067248Y-85853440D01*
X150091268Y-85929640D01*
X150150987Y-86059452D01*
X150238559Y-86162413D01*
X150306833Y-86211727D01*
X150403804Y-86251322D01*
X150523185Y-86274825D01*
X150649594Y-86281088D01*
X150767646Y-86268963D01*
X150831942Y-86250934D01*
X150930879Y-86197611D01*
X151000398Y-86127851D01*
X151038238Y-86047624D01*
X151042143Y-85962900D01*
X151009851Y-85879649D01*
X150984947Y-85846552D01*
X150938423Y-85802343D01*
X150878682Y-85763332D01*
X150800316Y-85727401D01*
X150697916Y-85692428D01*
X150566072Y-85656291D01*
X150399375Y-85616871D01*
X150398840Y-85616750D01*
X150142618Y-85554804D01*
X149923613Y-85491967D01*
X149738404Y-85426793D01*
X149583573Y-85357836D01*
X149455698Y-85283650D01*
X149351361Y-85202790D01*
X149300300Y-85152282D01*
X149212649Y-85038975D01*
X149156033Y-84918548D01*
X149125662Y-84779265D01*
X149119391Y-84709207D01*
X149126888Y-84516836D01*
X149171730Y-84337793D01*
X149252218Y-84174127D01*
X149366654Y-84027889D01*
X149513338Y-83901132D01*
X149690572Y-83795905D01*
X149896657Y-83714259D01*
X149958640Y-83696083D01*
X150021509Y-83680294D01*
X150082847Y-83668628D01*
X150150517Y-83660452D01*
X150232382Y-83655131D01*
X150336303Y-83652032D01*
X150470144Y-83650523D01*
X150527600Y-83650244D01*
X150702880Y-83651078D01*
G36*
X159260946Y-84624887D02*
X159414092Y-84633937D01*
X159546182Y-84649277D01*
X159610640Y-84661437D01*
X159833369Y-84729720D01*
X160026413Y-84825642D01*
X160189251Y-84948540D01*
X160321362Y-85097752D01*
X160422227Y-85272615D01*
X160491325Y-85472466D01*
X160528136Y-85696641D01*
X160534491Y-85838200D01*
X160535200Y-85975360D01*
X158627063Y-85975360D01*
X158654140Y-86065328D01*
X158701500Y-86178054D01*
X158770513Y-86262145D01*
X158869181Y-86327248D01*
X158873088Y-86329211D01*
X159000919Y-86372265D01*
X159136836Y-86382161D01*
X159269817Y-86359564D01*
X159388840Y-86305140D01*
X159400416Y-86297372D01*
X159420292Y-86285705D01*
X159445655Y-86276721D01*
X159481684Y-86270074D01*
X159533557Y-86265421D01*
X159606452Y-86262416D01*
X159705550Y-86260716D01*
X159836027Y-86259974D01*
X159964296Y-86259840D01*
X160103431Y-86260497D01*
X160228105Y-86262347D01*
X160332887Y-86265206D01*
X160412347Y-86268889D01*
X160461055Y-86273213D01*
X160474240Y-86277111D01*
X160460346Y-86311092D01*
X160422868Y-86364939D01*
X160368111Y-86430984D01*
X160302379Y-86501555D01*
X160241077Y-86560753D01*
X160083520Y-86680989D01*
X159903251Y-86773175D01*
X159725316Y-86832506D01*
X159634753Y-86850159D01*
X159513015Y-86864487D01*
X159369450Y-86875252D01*
X159213404Y-86882214D01*
X159054226Y-86885136D01*
X158901263Y-86883778D01*
X158763862Y-86877902D01*
X158651372Y-86867269D01*
X158611740Y-86860939D01*
X158411280Y-86811787D01*
X158241130Y-86744521D01*
X158093452Y-86655037D01*
X157960407Y-86539230D01*
X157924080Y-86500836D01*
X157806696Y-86350927D01*
X157723917Y-86194089D01*
X157672969Y-86022855D01*
X157651080Y-85829757D01*
X157649760Y-85761999D01*
X157664449Y-85552238D01*
X157675410Y-85507347D01*
X158645440Y-85507347D01*
X158646808Y-85520800D01*
X158654245Y-85530961D01*
X158672747Y-85538292D01*
X158707312Y-85543253D01*
X158762938Y-85546307D01*
X158844621Y-85547915D01*
X158957358Y-85548538D01*
X159092480Y-85548640D01*
X159242224Y-85548229D01*
X159355812Y-85546813D01*
X159437717Y-85544111D01*
X159492418Y-85539843D01*
X159524388Y-85533729D01*
X159538105Y-85525491D01*
X159539520Y-85520714D01*
X159527508Y-85457290D01*
X159496522Y-85379266D01*
X159454129Y-85302815D01*
X159411951Y-85248172D01*
X159319319Y-85180131D01*
X159207521Y-85140744D01*
X159085935Y-85129738D01*
X158963936Y-85146836D01*
X158850900Y-85191763D01*
X158756203Y-85264242D01*
X158753089Y-85267539D01*
X158709675Y-85327902D01*
X158672377Y-85403158D01*
X158649229Y-85475412D01*
X158645440Y-85507347D01*
X157675410Y-85507347D01*
X157709788Y-85366564D01*
X157787680Y-85200338D01*
X157900029Y-85048919D01*
X157973034Y-84974178D01*
X158128189Y-84850444D01*
X158305145Y-84753024D01*
X158510671Y-84678278D01*
X158536891Y-84670848D01*
X158642098Y-84649793D01*
X158777321Y-84634580D01*
X158932346Y-84625298D01*
X159096960Y-84622037D01*
X159260946Y-84624887D01*
X159260946Y-84624887D01*
G37*
X159260946Y-84624887D02*
X159414092Y-84633937D01*
X159546182Y-84649277D01*
X159610640Y-84661437D01*
X159833369Y-84729720D01*
X160026413Y-84825642D01*
X160189251Y-84948540D01*
X160321362Y-85097752D01*
X160422227Y-85272615D01*
X160491325Y-85472466D01*
X160528136Y-85696641D01*
X160534491Y-85838200D01*
X160535200Y-85975360D01*
X158627063Y-85975360D01*
X158654140Y-86065328D01*
X158701500Y-86178054D01*
X158770513Y-86262145D01*
X158869181Y-86327248D01*
X158873088Y-86329211D01*
X159000919Y-86372265D01*
X159136836Y-86382161D01*
X159269817Y-86359564D01*
X159388840Y-86305140D01*
X159400416Y-86297372D01*
X159420292Y-86285705D01*
X159445655Y-86276721D01*
X159481684Y-86270074D01*
X159533557Y-86265421D01*
X159606452Y-86262416D01*
X159705550Y-86260716D01*
X159836027Y-86259974D01*
X159964296Y-86259840D01*
X160103431Y-86260497D01*
X160228105Y-86262347D01*
X160332887Y-86265206D01*
X160412347Y-86268889D01*
X160461055Y-86273213D01*
X160474240Y-86277111D01*
X160460346Y-86311092D01*
X160422868Y-86364939D01*
X160368111Y-86430984D01*
X160302379Y-86501555D01*
X160241077Y-86560753D01*
X160083520Y-86680989D01*
X159903251Y-86773175D01*
X159725316Y-86832506D01*
X159634753Y-86850159D01*
X159513015Y-86864487D01*
X159369450Y-86875252D01*
X159213404Y-86882214D01*
X159054226Y-86885136D01*
X158901263Y-86883778D01*
X158763862Y-86877902D01*
X158651372Y-86867269D01*
X158611740Y-86860939D01*
X158411280Y-86811787D01*
X158241130Y-86744521D01*
X158093452Y-86655037D01*
X157960407Y-86539230D01*
X157924080Y-86500836D01*
X157806696Y-86350927D01*
X157723917Y-86194089D01*
X157672969Y-86022855D01*
X157651080Y-85829757D01*
X157649760Y-85761999D01*
X157664449Y-85552238D01*
X157675410Y-85507347D01*
X158645440Y-85507347D01*
X158646808Y-85520800D01*
X158654245Y-85530961D01*
X158672747Y-85538292D01*
X158707312Y-85543253D01*
X158762938Y-85546307D01*
X158844621Y-85547915D01*
X158957358Y-85548538D01*
X159092480Y-85548640D01*
X159242224Y-85548229D01*
X159355812Y-85546813D01*
X159437717Y-85544111D01*
X159492418Y-85539843D01*
X159524388Y-85533729D01*
X159538105Y-85525491D01*
X159539520Y-85520714D01*
X159527508Y-85457290D01*
X159496522Y-85379266D01*
X159454129Y-85302815D01*
X159411951Y-85248172D01*
X159319319Y-85180131D01*
X159207521Y-85140744D01*
X159085935Y-85129738D01*
X158963936Y-85146836D01*
X158850900Y-85191763D01*
X158756203Y-85264242D01*
X158753089Y-85267539D01*
X158709675Y-85327902D01*
X158672377Y-85403158D01*
X158649229Y-85475412D01*
X158645440Y-85507347D01*
X157675410Y-85507347D01*
X157709788Y-85366564D01*
X157787680Y-85200338D01*
X157900029Y-85048919D01*
X157973034Y-84974178D01*
X158128189Y-84850444D01*
X158305145Y-84753024D01*
X158510671Y-84678278D01*
X158536891Y-84670848D01*
X158642098Y-84649793D01*
X158777321Y-84634580D01*
X158932346Y-84625298D01*
X159096960Y-84622037D01*
X159260946Y-84624887D01*
G36*
X163656885Y-83982899D02*
X163660083Y-84036160D01*
X163662554Y-84116864D01*
X163664082Y-84218414D01*
X163664480Y-84309120D01*
X163664480Y-84654560D01*
X164152160Y-84654560D01*
X164152160Y-85284480D01*
X163664480Y-85284480D01*
X163664480Y-85763009D01*
X163665153Y-85932885D01*
X163667639Y-86066728D01*
X163672637Y-86169130D01*
X163680848Y-86244683D01*
X163692971Y-86297980D01*
X163709705Y-86333612D01*
X163731750Y-86356170D01*
X163756830Y-86369137D01*
X163790832Y-86374680D01*
X163854458Y-86378983D01*
X163936696Y-86381428D01*
X163981101Y-86381760D01*
X164172480Y-86381760D01*
X164172480Y-86613070D01*
X164172078Y-86712978D01*
X164169956Y-86779631D01*
X164164737Y-86820409D01*
X164155045Y-86842695D01*
X164139505Y-86853872D01*
X164126760Y-86858328D01*
X164079090Y-86866297D01*
X163999042Y-86872643D01*
X163894845Y-86877331D01*
X163774728Y-86880322D01*
X163646922Y-86881580D01*
X163519656Y-86881068D01*
X163401161Y-86878749D01*
X163299666Y-86874585D01*
X163223402Y-86868541D01*
X163186960Y-86862557D01*
X163071383Y-86824822D01*
X162981397Y-86775345D01*
X162902073Y-86705499D01*
X162886859Y-86689086D01*
X162857429Y-86655984D01*
X162832272Y-86624596D01*
X162811034Y-86591575D01*
X162793356Y-86553577D01*
X162778882Y-86507256D01*
X162767256Y-86449267D01*
X162758120Y-86376265D01*
X162751118Y-86284904D01*
X162745893Y-86171838D01*
X162742089Y-86033723D01*
X162739348Y-85867213D01*
X162737313Y-85668963D01*
X162735629Y-85435627D01*
X162734536Y-85260747D01*
X162727578Y-84129574D01*
X162835349Y-84108249D01*
X162890447Y-84097753D01*
X162971094Y-84082911D01*
X163069935Y-84065022D01*
X163179616Y-84045386D01*
X163292780Y-84025304D01*
X163402074Y-84006076D01*
X163500141Y-83989003D01*
X163579628Y-83975383D01*
X163633179Y-83966519D01*
X163653175Y-83963680D01*
X163656885Y-83982899D01*
X163656885Y-83982899D01*
G37*
X163656885Y-83982899D02*
X163660083Y-84036160D01*
X163662554Y-84116864D01*
X163664082Y-84218414D01*
X163664480Y-84309120D01*
X163664480Y-84654560D01*
X164152160Y-84654560D01*
X164152160Y-85284480D01*
X163664480Y-85284480D01*
X163664480Y-85763009D01*
X163665153Y-85932885D01*
X163667639Y-86066728D01*
X163672637Y-86169130D01*
X163680848Y-86244683D01*
X163692971Y-86297980D01*
X163709705Y-86333612D01*
X163731750Y-86356170D01*
X163756830Y-86369137D01*
X163790832Y-86374680D01*
X163854458Y-86378983D01*
X163936696Y-86381428D01*
X163981101Y-86381760D01*
X164172480Y-86381760D01*
X164172480Y-86613070D01*
X164172078Y-86712978D01*
X164169956Y-86779631D01*
X164164737Y-86820409D01*
X164155045Y-86842695D01*
X164139505Y-86853872D01*
X164126760Y-86858328D01*
X164079090Y-86866297D01*
X163999042Y-86872643D01*
X163894845Y-86877331D01*
X163774728Y-86880322D01*
X163646922Y-86881580D01*
X163519656Y-86881068D01*
X163401161Y-86878749D01*
X163299666Y-86874585D01*
X163223402Y-86868541D01*
X163186960Y-86862557D01*
X163071383Y-86824822D01*
X162981397Y-86775345D01*
X162902073Y-86705499D01*
X162886859Y-86689086D01*
X162857429Y-86655984D01*
X162832272Y-86624596D01*
X162811034Y-86591575D01*
X162793356Y-86553577D01*
X162778882Y-86507256D01*
X162767256Y-86449267D01*
X162758120Y-86376265D01*
X162751118Y-86284904D01*
X162745893Y-86171838D01*
X162742089Y-86033723D01*
X162739348Y-85867213D01*
X162737313Y-85668963D01*
X162735629Y-85435627D01*
X162734536Y-85260747D01*
X162727578Y-84129574D01*
X162835349Y-84108249D01*
X162890447Y-84097753D01*
X162971094Y-84082911D01*
X163069935Y-84065022D01*
X163179616Y-84045386D01*
X163292780Y-84025304D01*
X163402074Y-84006076D01*
X163500141Y-83989003D01*
X163579628Y-83975383D01*
X163633179Y-83966519D01*
X163653175Y-83963680D01*
X163656885Y-83982899D01*
G36*
X165891312Y-84626932D02*
X166003359Y-84629045D01*
X166092057Y-84633594D01*
X166166045Y-84641255D01*
X166233963Y-84652705D01*
X166304449Y-84668619D01*
X166313684Y-84670910D01*
X166533895Y-84743279D01*
X166723590Y-84842407D01*
X166882280Y-84967666D01*
X167009477Y-85118431D01*
X167104693Y-85294076D01*
X167167440Y-85493974D01*
X167197231Y-85717500D01*
X167199807Y-85807720D01*
X167200160Y-85975360D01*
X166255280Y-85975360D01*
X166030604Y-85975238D01*
X165843379Y-85975195D01*
X165690415Y-85975711D01*
X165568524Y-85977267D01*
X165474518Y-85980344D01*
X165405209Y-85985424D01*
X165357408Y-85992987D01*
X165327926Y-86003515D01*
X165313576Y-86017488D01*
X165311170Y-86035389D01*
X165317518Y-86057697D01*
X165329433Y-86084894D01*
X165341957Y-86113172D01*
X165409432Y-86225204D01*
X165504277Y-86309252D01*
X165621790Y-86362294D01*
X165757269Y-86381304D01*
X165758900Y-86381313D01*
X165849151Y-86374604D01*
X165940121Y-86356179D01*
X166019266Y-86329609D01*
X166074045Y-86298463D01*
X166083789Y-86288838D01*
X166097862Y-86279754D01*
X166126126Y-86272704D01*
X166172986Y-86267455D01*
X166242849Y-86263776D01*
X166340121Y-86261435D01*
X166469208Y-86260200D01*
X166634516Y-86259840D01*
X167161817Y-86259840D01*
X167125108Y-86322264D01*
X167076506Y-86389339D01*
X167004779Y-86469438D01*
X166920176Y-86552396D01*
X166832947Y-86628048D01*
X166767387Y-86677004D01*
X166651677Y-86740365D01*
X166506675Y-86796290D01*
X166343560Y-86841041D01*
X166197091Y-86867768D01*
X166088453Y-86878415D01*
X165953545Y-86884891D01*
X165803399Y-86887311D01*
X165649045Y-86885791D01*
X165501514Y-86880447D01*
X165371839Y-86871395D01*
X165271049Y-86858750D01*
X165266802Y-86857996D01*
X165075951Y-86811504D01*
X164909570Y-86743790D01*
X164789575Y-86673741D01*
X164635067Y-86547769D01*
X164509137Y-86396747D01*
X164413116Y-86225780D01*
X164348337Y-86039975D01*
X164316132Y-85844435D01*
X164317832Y-85644268D01*
X164344559Y-85499785D01*
X165310074Y-85499785D01*
X165321257Y-85522318D01*
X165353933Y-85536634D01*
X165412020Y-85544578D01*
X165499439Y-85547998D01*
X165620109Y-85548738D01*
X165757440Y-85548640D01*
X166204480Y-85548640D01*
X166204480Y-85501829D01*
X166195598Y-85458094D01*
X166172738Y-85395222D01*
X166151715Y-85349135D01*
X166084662Y-85248659D01*
X165997828Y-85180529D01*
X165887191Y-85142479D01*
X165766006Y-85132080D01*
X165628637Y-85146763D01*
X165516898Y-85192003D01*
X165427721Y-85269584D01*
X165366280Y-85364422D01*
X165336505Y-85422683D01*
X165316463Y-85467188D01*
X165310074Y-85499785D01*
X164344559Y-85499785D01*
X164354772Y-85444577D01*
X164421733Y-85264160D01*
X164513698Y-85113844D01*
X164639974Y-84976158D01*
X164795130Y-84855227D01*
X164973739Y-84755175D01*
X165170370Y-84680128D01*
X165202694Y-84670840D01*
X165266192Y-84654888D01*
X165328666Y-84643254D01*
X165398289Y-84635274D01*
X165483233Y-84630283D01*
X165591673Y-84627618D01*
X165731780Y-84626614D01*
X165747280Y-84626580D01*
X165891312Y-84626932D01*
X165891312Y-84626932D01*
G37*
X165891312Y-84626932D02*
X166003359Y-84629045D01*
X166092057Y-84633594D01*
X166166045Y-84641255D01*
X166233963Y-84652705D01*
X166304449Y-84668619D01*
X166313684Y-84670910D01*
X166533895Y-84743279D01*
X166723590Y-84842407D01*
X166882280Y-84967666D01*
X167009477Y-85118431D01*
X167104693Y-85294076D01*
X167167440Y-85493974D01*
X167197231Y-85717500D01*
X167199807Y-85807720D01*
X167200160Y-85975360D01*
X166255280Y-85975360D01*
X166030604Y-85975238D01*
X165843379Y-85975195D01*
X165690415Y-85975711D01*
X165568524Y-85977267D01*
X165474518Y-85980344D01*
X165405209Y-85985424D01*
X165357408Y-85992987D01*
X165327926Y-86003515D01*
X165313576Y-86017488D01*
X165311170Y-86035389D01*
X165317518Y-86057697D01*
X165329433Y-86084894D01*
X165341957Y-86113172D01*
X165409432Y-86225204D01*
X165504277Y-86309252D01*
X165621790Y-86362294D01*
X165757269Y-86381304D01*
X165758900Y-86381313D01*
X165849151Y-86374604D01*
X165940121Y-86356179D01*
X166019266Y-86329609D01*
X166074045Y-86298463D01*
X166083789Y-86288838D01*
X166097862Y-86279754D01*
X166126126Y-86272704D01*
X166172986Y-86267455D01*
X166242849Y-86263776D01*
X166340121Y-86261435D01*
X166469208Y-86260200D01*
X166634516Y-86259840D01*
X167161817Y-86259840D01*
X167125108Y-86322264D01*
X167076506Y-86389339D01*
X167004779Y-86469438D01*
X166920176Y-86552396D01*
X166832947Y-86628048D01*
X166767387Y-86677004D01*
X166651677Y-86740365D01*
X166506675Y-86796290D01*
X166343560Y-86841041D01*
X166197091Y-86867768D01*
X166088453Y-86878415D01*
X165953545Y-86884891D01*
X165803399Y-86887311D01*
X165649045Y-86885791D01*
X165501514Y-86880447D01*
X165371839Y-86871395D01*
X165271049Y-86858750D01*
X165266802Y-86857996D01*
X165075951Y-86811504D01*
X164909570Y-86743790D01*
X164789575Y-86673741D01*
X164635067Y-86547769D01*
X164509137Y-86396747D01*
X164413116Y-86225780D01*
X164348337Y-86039975D01*
X164316132Y-85844435D01*
X164317832Y-85644268D01*
X164344559Y-85499785D01*
X165310074Y-85499785D01*
X165321257Y-85522318D01*
X165353933Y-85536634D01*
X165412020Y-85544578D01*
X165499439Y-85547998D01*
X165620109Y-85548738D01*
X165757440Y-85548640D01*
X166204480Y-85548640D01*
X166204480Y-85501829D01*
X166195598Y-85458094D01*
X166172738Y-85395222D01*
X166151715Y-85349135D01*
X166084662Y-85248659D01*
X165997828Y-85180529D01*
X165887191Y-85142479D01*
X165766006Y-85132080D01*
X165628637Y-85146763D01*
X165516898Y-85192003D01*
X165427721Y-85269584D01*
X165366280Y-85364422D01*
X165336505Y-85422683D01*
X165316463Y-85467188D01*
X165310074Y-85499785D01*
X164344559Y-85499785D01*
X164354772Y-85444577D01*
X164421733Y-85264160D01*
X164513698Y-85113844D01*
X164639974Y-84976158D01*
X164795130Y-84855227D01*
X164973739Y-84755175D01*
X165170370Y-84680128D01*
X165202694Y-84670840D01*
X165266192Y-84654888D01*
X165328666Y-84643254D01*
X165398289Y-84635274D01*
X165483233Y-84630283D01*
X165591673Y-84627618D01*
X165731780Y-84626614D01*
X165747280Y-84626580D01*
X165891312Y-84626932D01*
G36*
X168846323Y-84625979D02*
X168966446Y-84628557D01*
X169062128Y-84633984D01*
X169141446Y-84642783D01*
X169212481Y-84655479D01*
X169237312Y-84661042D01*
X169442510Y-84726367D01*
X169620434Y-84819208D01*
X169768816Y-84938347D01*
X169785369Y-84955232D01*
X169845736Y-85026164D01*
X169905311Y-85109167D01*
X169958347Y-85194639D01*
X169999099Y-85272981D01*
X170021822Y-85334594D01*
X170024640Y-85355020D01*
X170020150Y-85365291D01*
X170003487Y-85373060D01*
X169969860Y-85378662D01*
X169914481Y-85382430D01*
X169832558Y-85384699D01*
X169719301Y-85385804D01*
X169579632Y-85386080D01*
X169134623Y-85386080D01*
X169065598Y-85317054D01*
X168973492Y-85252001D01*
X168861925Y-85214860D01*
X168740250Y-85204881D01*
X168617814Y-85221312D01*
X168503970Y-85263403D01*
X168408066Y-85330402D01*
X168369814Y-85372940D01*
X168309645Y-85480119D01*
X168272154Y-85606300D01*
X168256977Y-85742279D01*
X168263752Y-85878852D01*
X168292114Y-86006814D01*
X168341700Y-86116960D01*
X168402142Y-86191423D01*
X168492452Y-86257769D01*
X168591085Y-86295525D01*
X168710822Y-86309234D01*
X168734320Y-86309500D01*
X168872865Y-86295374D01*
X168986456Y-86251662D01*
X169080184Y-86176142D01*
X169104254Y-86148129D01*
X169161040Y-86076961D01*
X169613160Y-86076960D01*
X169766561Y-86076763D01*
X169883274Y-86077469D01*
X169967239Y-86081020D01*
X170022394Y-86089360D01*
X170052678Y-86104432D01*
X170062030Y-86128179D01*
X170054390Y-86162546D01*
X170033695Y-86209474D01*
X170004343Y-86269951D01*
X169902237Y-86437480D01*
X169767671Y-86583068D01*
X169604075Y-86703844D01*
X169414875Y-86796937D01*
X169345513Y-86821711D01*
X169281848Y-86841334D01*
X169223766Y-86855723D01*
X169162735Y-86865836D01*
X169090222Y-86872630D01*
X168997696Y-86877063D01*
X168876623Y-86880091D01*
X168815600Y-86881168D01*
X168687702Y-86882098D01*
X168564656Y-86880871D01*
X168456009Y-86877736D01*
X168371306Y-86872943D01*
X168329373Y-86868432D01*
X168100076Y-86815579D01*
X167897624Y-86732694D01*
X167722427Y-86619981D01*
X167605139Y-86511684D01*
X167502231Y-86386290D01*
X167427659Y-86258737D01*
X167378296Y-86120229D01*
X167351018Y-85961967D01*
X167342698Y-85775154D01*
X167342700Y-85772970D01*
X167352123Y-85572241D01*
X167381478Y-85401219D01*
X167433305Y-85252882D01*
X167510148Y-85120206D01*
X167614550Y-84996167D01*
X167629259Y-84981322D01*
X167786742Y-84848052D01*
X167961182Y-84746770D01*
X168141757Y-84678033D01*
X168204194Y-84659958D01*
X168261184Y-84646694D01*
X168320865Y-84637467D01*
X168391375Y-84631507D01*
X168480851Y-84628043D01*
X168597431Y-84626303D01*
X168693680Y-84625722D01*
X168846323Y-84625979D01*
X168846323Y-84625979D01*
G37*
X168846323Y-84625979D02*
X168966446Y-84628557D01*
X169062128Y-84633984D01*
X169141446Y-84642783D01*
X169212481Y-84655479D01*
X169237312Y-84661042D01*
X169442510Y-84726367D01*
X169620434Y-84819208D01*
X169768816Y-84938347D01*
X169785369Y-84955232D01*
X169845736Y-85026164D01*
X169905311Y-85109167D01*
X169958347Y-85194639D01*
X169999099Y-85272981D01*
X170021822Y-85334594D01*
X170024640Y-85355020D01*
X170020150Y-85365291D01*
X170003487Y-85373060D01*
X169969860Y-85378662D01*
X169914481Y-85382430D01*
X169832558Y-85384699D01*
X169719301Y-85385804D01*
X169579632Y-85386080D01*
X169134623Y-85386080D01*
X169065598Y-85317054D01*
X168973492Y-85252001D01*
X168861925Y-85214860D01*
X168740250Y-85204881D01*
X168617814Y-85221312D01*
X168503970Y-85263403D01*
X168408066Y-85330402D01*
X168369814Y-85372940D01*
X168309645Y-85480119D01*
X168272154Y-85606300D01*
X168256977Y-85742279D01*
X168263752Y-85878852D01*
X168292114Y-86006814D01*
X168341700Y-86116960D01*
X168402142Y-86191423D01*
X168492452Y-86257769D01*
X168591085Y-86295525D01*
X168710822Y-86309234D01*
X168734320Y-86309500D01*
X168872865Y-86295374D01*
X168986456Y-86251662D01*
X169080184Y-86176142D01*
X169104254Y-86148129D01*
X169161040Y-86076961D01*
X169613160Y-86076960D01*
X169766561Y-86076763D01*
X169883274Y-86077469D01*
X169967239Y-86081020D01*
X170022394Y-86089360D01*
X170052678Y-86104432D01*
X170062030Y-86128179D01*
X170054390Y-86162546D01*
X170033695Y-86209474D01*
X170004343Y-86269951D01*
X169902237Y-86437480D01*
X169767671Y-86583068D01*
X169604075Y-86703844D01*
X169414875Y-86796937D01*
X169345513Y-86821711D01*
X169281848Y-86841334D01*
X169223766Y-86855723D01*
X169162735Y-86865836D01*
X169090222Y-86872630D01*
X168997696Y-86877063D01*
X168876623Y-86880091D01*
X168815600Y-86881168D01*
X168687702Y-86882098D01*
X168564656Y-86880871D01*
X168456009Y-86877736D01*
X168371306Y-86872943D01*
X168329373Y-86868432D01*
X168100076Y-86815579D01*
X167897624Y-86732694D01*
X167722427Y-86619981D01*
X167605139Y-86511684D01*
X167502231Y-86386290D01*
X167427659Y-86258737D01*
X167378296Y-86120229D01*
X167351018Y-85961967D01*
X167342698Y-85775154D01*
X167342700Y-85772970D01*
X167352123Y-85572241D01*
X167381478Y-85401219D01*
X167433305Y-85252882D01*
X167510148Y-85120206D01*
X167614550Y-84996167D01*
X167629259Y-84981322D01*
X167786742Y-84848052D01*
X167961182Y-84746770D01*
X168141757Y-84678033D01*
X168204194Y-84659958D01*
X168261184Y-84646694D01*
X168320865Y-84637467D01*
X168391375Y-84631507D01*
X168480851Y-84628043D01*
X168597431Y-84626303D01*
X168693680Y-84625722D01*
X168846323Y-84625979D01*
G36*
X156865850Y-84633648D02*
X157006922Y-84667565D01*
X157029370Y-84675601D01*
X157158853Y-84745012D01*
X157274261Y-84845489D01*
X157366231Y-84967733D01*
X157407799Y-85051429D01*
X157419818Y-85082105D01*
X157429712Y-85111462D01*
X157437721Y-85143688D01*
X157444085Y-85182973D01*
X157449045Y-85233508D01*
X157452840Y-85299482D01*
X157455709Y-85385084D01*
X157457894Y-85494504D01*
X157459635Y-85631932D01*
X157461170Y-85801558D01*
X157462741Y-86007571D01*
X157462765Y-86010920D01*
X157468962Y-86849120D01*
X156555432Y-86849120D01*
X156548670Y-86183640D01*
X156546512Y-85996119D01*
X156544085Y-85844796D01*
X156541146Y-85725228D01*
X156537452Y-85632972D01*
X156532762Y-85563586D01*
X156526832Y-85512627D01*
X156519419Y-85475652D01*
X156510282Y-85448219D01*
X156508251Y-85443540D01*
X156453940Y-85363154D01*
X156375243Y-85312777D01*
X156271924Y-85290217D01*
X156156439Y-85298660D01*
X156056275Y-85343750D01*
X155975808Y-85422996D01*
X155942880Y-85477520D01*
X155928694Y-85506716D01*
X155917381Y-85534563D01*
X155908563Y-85565935D01*
X155901862Y-85605711D01*
X155896897Y-85658764D01*
X155893292Y-85729973D01*
X155890667Y-85824214D01*
X155888644Y-85946362D01*
X155886844Y-86101294D01*
X155885693Y-86214120D01*
X155879306Y-86849120D01*
X154967520Y-86849120D01*
X154967520Y-84654560D01*
X155820960Y-84654560D01*
X155820960Y-84983446D01*
X155927331Y-84887808D01*
X156072835Y-84774047D01*
X156221316Y-84694368D01*
X156383617Y-84642980D01*
X156387493Y-84642108D01*
X156541120Y-84620136D01*
X156705577Y-84617577D01*
X156865850Y-84633648D01*
X156865850Y-84633648D01*
G37*
X156865850Y-84633648D02*
X157006922Y-84667565D01*
X157029370Y-84675601D01*
X157158853Y-84745012D01*
X157274261Y-84845489D01*
X157366231Y-84967733D01*
X157407799Y-85051429D01*
X157419818Y-85082105D01*
X157429712Y-85111462D01*
X157437721Y-85143688D01*
X157444085Y-85182973D01*
X157449045Y-85233508D01*
X157452840Y-85299482D01*
X157455709Y-85385084D01*
X157457894Y-85494504D01*
X157459635Y-85631932D01*
X157461170Y-85801558D01*
X157462741Y-86007571D01*
X157462765Y-86010920D01*
X157468962Y-86849120D01*
X156555432Y-86849120D01*
X156548670Y-86183640D01*
X156546512Y-85996119D01*
X156544085Y-85844796D01*
X156541146Y-85725228D01*
X156537452Y-85632972D01*
X156532762Y-85563586D01*
X156526832Y-85512627D01*
X156519419Y-85475652D01*
X156510282Y-85448219D01*
X156508251Y-85443540D01*
X156453940Y-85363154D01*
X156375243Y-85312777D01*
X156271924Y-85290217D01*
X156156439Y-85298660D01*
X156056275Y-85343750D01*
X155975808Y-85422996D01*
X155942880Y-85477520D01*
X155928694Y-85506716D01*
X155917381Y-85534563D01*
X155908563Y-85565935D01*
X155901862Y-85605711D01*
X155896897Y-85658764D01*
X155893292Y-85729973D01*
X155890667Y-85824214D01*
X155888644Y-85946362D01*
X155886844Y-86101294D01*
X155885693Y-86214120D01*
X155879306Y-86849120D01*
X154967520Y-86849120D01*
X154967520Y-84654560D01*
X155820960Y-84654560D01*
X155820960Y-84983446D01*
X155927331Y-84887808D01*
X156072835Y-84774047D01*
X156221316Y-84694368D01*
X156383617Y-84642980D01*
X156387493Y-84642108D01*
X156541120Y-84620136D01*
X156705577Y-84617577D01*
X156865850Y-84633648D01*
G36*
X161571520Y-84979797D02*
X161644826Y-84898655D01*
X161753873Y-84807053D01*
X161895467Y-84736024D01*
X162066547Y-84686557D01*
X162264049Y-84659643D01*
X162399560Y-84654714D01*
X162485920Y-84654560D01*
X162485920Y-85281619D01*
X162172774Y-85288129D01*
X161859628Y-85294640D01*
X161781614Y-85357265D01*
X161743398Y-85390234D01*
X161712397Y-85424574D01*
X161687854Y-85464764D01*
X161669013Y-85515283D01*
X161655116Y-85580609D01*
X161645407Y-85665221D01*
X161639129Y-85773597D01*
X161635525Y-85910216D01*
X161633837Y-86079557D01*
X161633369Y-86234440D01*
X161632480Y-86849120D01*
X160697760Y-86849120D01*
X160697760Y-84654560D01*
X161571520Y-84654560D01*
X161571520Y-84979797D01*
X161571520Y-84979797D01*
G37*
X161571520Y-84979797D02*
X161644826Y-84898655D01*
X161753873Y-84807053D01*
X161895467Y-84736024D01*
X162066547Y-84686557D01*
X162264049Y-84659643D01*
X162399560Y-84654714D01*
X162485920Y-84654560D01*
X162485920Y-85281619D01*
X162172774Y-85288129D01*
X161859628Y-85294640D01*
X161781614Y-85357265D01*
X161743398Y-85390234D01*
X161712397Y-85424574D01*
X161687854Y-85464764D01*
X161669013Y-85515283D01*
X161655116Y-85580609D01*
X161645407Y-85665221D01*
X161639129Y-85773597D01*
X161635525Y-85910216D01*
X161633837Y-86079557D01*
X161633369Y-86234440D01*
X161632480Y-86849120D01*
X160697760Y-86849120D01*
X160697760Y-84654560D01*
X161571520Y-84654560D01*
X161571520Y-84979797D01*
G36*
X154391015Y-81052229D02*
X154586080Y-81058980D01*
X154759038Y-81069215D01*
X154901249Y-81082934D01*
X154916720Y-81084932D01*
X155327764Y-81154294D01*
X155713181Y-81248653D01*
X156071432Y-81367351D01*
X156400977Y-81509731D01*
X156700279Y-81675136D01*
X156967798Y-81862906D01*
X157183269Y-82053600D01*
X157331800Y-82211250D01*
X157452927Y-82364714D01*
X157556050Y-82527038D01*
X157637975Y-82684654D01*
X157751628Y-82967731D01*
X157825776Y-83259785D01*
X157860435Y-83561013D01*
X157855623Y-83871614D01*
X157811358Y-84191784D01*
X157782574Y-84322723D01*
X157756765Y-84419982D01*
X157725234Y-84524904D01*
X157690586Y-84630323D01*
X157655429Y-84729072D01*
X157622369Y-84813986D01*
X157594012Y-84877898D01*
X157572965Y-84913643D01*
X157565795Y-84918720D01*
X157556640Y-84900221D01*
X157550222Y-84851975D01*
X157548040Y-84791720D01*
X157544703Y-84711898D01*
X157535922Y-84610183D01*
X157523363Y-84504698D01*
X157518603Y-84471680D01*
X157450009Y-84145974D01*
X157346428Y-83840771D01*
X157208137Y-83556374D01*
X157035413Y-83293088D01*
X156828534Y-83051216D01*
X156587777Y-82831062D01*
X156313419Y-82632930D01*
X156005739Y-82457124D01*
X155665014Y-82303949D01*
X155475520Y-82233568D01*
X155232780Y-82156545D01*
X154974526Y-82089162D01*
X154693871Y-82029904D01*
X154383928Y-81977254D01*
X154175040Y-81947401D01*
X154079141Y-81938114D01*
X153949132Y-81930791D01*
X153791494Y-81925396D01*
X153612706Y-81921894D01*
X153419250Y-81920249D01*
X153217605Y-81920426D01*
X153014254Y-81922388D01*
X152815675Y-81926100D01*
X152628350Y-81931527D01*
X152458759Y-81938633D01*
X152313382Y-81947382D01*
X152198701Y-81957738D01*
X152193840Y-81958303D01*
X151697758Y-82026748D01*
X151212567Y-82113428D01*
X150742053Y-82217201D01*
X150290004Y-82336924D01*
X149860205Y-82471454D01*
X149456443Y-82619649D01*
X149082506Y-82780366D01*
X148742179Y-82952461D01*
X148570033Y-83051954D01*
X148504786Y-83089557D01*
X148452503Y-83115936D01*
X148423012Y-83126210D01*
X148420971Y-83126003D01*
X148427489Y-83111885D01*
X148462880Y-83078143D01*
X148522581Y-83028254D01*
X148602031Y-82965697D01*
X148696668Y-82893951D01*
X148801929Y-82816493D01*
X148913253Y-82736801D01*
X149026078Y-82658354D01*
X149099016Y-82609039D01*
X149607238Y-82293844D01*
X150138975Y-82010509D01*
X150691143Y-81760171D01*
X151260656Y-81543964D01*
X151844430Y-81363023D01*
X152439380Y-81218485D01*
X153042420Y-81111484D01*
X153240320Y-81084895D01*
X153386550Y-81070739D01*
X153562523Y-81060067D01*
X153759598Y-81052881D01*
X153969132Y-81049179D01*
X154182485Y-81048962D01*
X154391015Y-81052229D01*
X154391015Y-81052229D01*
G37*
X154391015Y-81052229D02*
X154586080Y-81058980D01*
X154759038Y-81069215D01*
X154901249Y-81082934D01*
X154916720Y-81084932D01*
X155327764Y-81154294D01*
X155713181Y-81248653D01*
X156071432Y-81367351D01*
X156400977Y-81509731D01*
X156700279Y-81675136D01*
X156967798Y-81862906D01*
X157183269Y-82053600D01*
X157331800Y-82211250D01*
X157452927Y-82364714D01*
X157556050Y-82527038D01*
X157637975Y-82684654D01*
X157751628Y-82967731D01*
X157825776Y-83259785D01*
X157860435Y-83561013D01*
X157855623Y-83871614D01*
X157811358Y-84191784D01*
X157782574Y-84322723D01*
X157756765Y-84419982D01*
X157725234Y-84524904D01*
X157690586Y-84630323D01*
X157655429Y-84729072D01*
X157622369Y-84813986D01*
X157594012Y-84877898D01*
X157572965Y-84913643D01*
X157565795Y-84918720D01*
X157556640Y-84900221D01*
X157550222Y-84851975D01*
X157548040Y-84791720D01*
X157544703Y-84711898D01*
X157535922Y-84610183D01*
X157523363Y-84504698D01*
X157518603Y-84471680D01*
X157450009Y-84145974D01*
X157346428Y-83840771D01*
X157208137Y-83556374D01*
X157035413Y-83293088D01*
X156828534Y-83051216D01*
X156587777Y-82831062D01*
X156313419Y-82632930D01*
X156005739Y-82457124D01*
X155665014Y-82303949D01*
X155475520Y-82233568D01*
X155232780Y-82156545D01*
X154974526Y-82089162D01*
X154693871Y-82029904D01*
X154383928Y-81977254D01*
X154175040Y-81947401D01*
X154079141Y-81938114D01*
X153949132Y-81930791D01*
X153791494Y-81925396D01*
X153612706Y-81921894D01*
X153419250Y-81920249D01*
X153217605Y-81920426D01*
X153014254Y-81922388D01*
X152815675Y-81926100D01*
X152628350Y-81931527D01*
X152458759Y-81938633D01*
X152313382Y-81947382D01*
X152198701Y-81957738D01*
X152193840Y-81958303D01*
X151697758Y-82026748D01*
X151212567Y-82113428D01*
X150742053Y-82217201D01*
X150290004Y-82336924D01*
X149860205Y-82471454D01*
X149456443Y-82619649D01*
X149082506Y-82780366D01*
X148742179Y-82952461D01*
X148570033Y-83051954D01*
X148504786Y-83089557D01*
X148452503Y-83115936D01*
X148423012Y-83126210D01*
X148420971Y-83126003D01*
X148427489Y-83111885D01*
X148462880Y-83078143D01*
X148522581Y-83028254D01*
X148602031Y-82965697D01*
X148696668Y-82893951D01*
X148801929Y-82816493D01*
X148913253Y-82736801D01*
X149026078Y-82658354D01*
X149099016Y-82609039D01*
X149607238Y-82293844D01*
X150138975Y-82010509D01*
X150691143Y-81760171D01*
X151260656Y-81543964D01*
X151844430Y-81363023D01*
X152439380Y-81218485D01*
X153042420Y-81111484D01*
X153240320Y-81084895D01*
X153386550Y-81070739D01*
X153562523Y-81060067D01*
X153759598Y-81052881D01*
X153969132Y-81049179D01*
X154182485Y-81048962D01*
X154391015Y-81052229D01*
M02*
